<svg xmlns="http://www.w3.org/2000/svg" width="24" height="20" viewBox="0 0 24 20">
  <path id="twitter" d="M24.1,4.359a8.9,8.9,0,0,1-2.812.821A5.438,5.438,0,0,0,23.5,2.41a9,9,0,0,1-3.113,1.231A5.2,5.2,0,0,0,16.669,2a4.982,4.982,0,0,0-4.921,5.026,3.925,3.925,0,0,0,.1,1.128A13.64,13.64,0,0,1,1.707,2.923,4.475,4.475,0,0,0,1,5.487,5.179,5.179,0,0,0,3.213,9.692,7,7,0,0,1,1,9.077v.1A4.938,4.938,0,0,0,5.021,14.1a4.99,4.99,0,0,1-1.305.205,2.725,2.725,0,0,1-.9-.1,4.774,4.774,0,0,0,4.619,3.487,9.912,9.912,0,0,1-6.126,2.154,4.79,4.79,0,0,1-1.205-.1A13.844,13.844,0,0,0,7.631,22C16.769,22,21.69,14.308,21.69,7.641V7.026A12.182,12.182,0,0,0,24.1,4.359" transform="translate(-0.1 -2)" fill="#fff" fill-rule="evenodd"/>
</svg>
