<svg id="XMLID_13_" xmlns="http://www.w3.org/2000/svg" width="24" height="23.996" viewBox="0 0 24 23.996">
  <path id="XMLID_17_" d="M16.849,0h-9.7A7.156,7.156,0,0,0,0,7.151v9.7A7.155,7.155,0,0,0,7.151,24h9.7A7.158,7.158,0,0,0,24,16.845V7.151A7.161,7.161,0,0,0,16.849,0Zm4.734,16.849a4.736,4.736,0,0,1-4.734,4.734h-9.7a4.736,4.736,0,0,1-4.734-4.734v-9.7A4.736,4.736,0,0,1,7.151,2.417h9.7a4.736,4.736,0,0,1,4.734,4.734v9.7Z" fill="#fff"/>
  <path id="XMLID_81_" d="M139.193,133a6.193,6.193,0,1,0,6.193,6.193A6.2,6.2,0,0,0,139.193,133Zm0,9.978a3.785,3.785,0,1,1,3.785-3.785A3.785,3.785,0,0,1,139.193,142.978Z" transform="translate(-127.195 -127.195)" fill="#fff"/>
  <circle id="XMLID_83_" cx="1.488" cy="1.488" r="1.488" transform="translate(16.726 4.354)" fill="#fff"/>
</svg>
