<svg xmlns="http://www.w3.org/2000/svg" width="206.666" height="278.97" viewBox="0 0 206.666 278.97">
  <g id="그룹_10" data-name="그룹 10" transform="translate(-254.576 -1160.401)">
    <circle id="타원_3" data-name="타원 3" cx="10" cy="10" r="10" transform="translate(398.637 1290.556)" fill="#fff"/>
    <path id="_모양_4_체크_아웃_AdobeCapture" data-name="&apos;모양 4&apos; 체크 아웃 #AdobeCapture" d="M43.767,145.259c-10.964,3.707-21.884,7.527-33.073,10.448a11.128,11.128,0,0,1-4.943.09c-4.134-1.1-3.078-9.369-4-12.829C.494,128.678,0,114.343,0,100.009c.247-3.527-.022-10.178,5.325-8.875,10.717,2.606,21.367,5.5,32.062,8.291,3.393.854,6.808,1.618,10.245,2.382.09.022.382-.2.382-.292a231.536,231.536,0,0,1,1.393-35.072C52.283,44.648,57.54,22.607,68.752,3.487c4.763-8.111,12.178-.2,15.615,4.853,6.583,9.8,10.066,21.277,13.75,32.376a410.472,410.472,0,0,1,11.009,43.633c.494,3.775.966,7.594,1.573,11.369.067,1.955.022,3.909.225,5.842,0,1.281.607,1.123,1.483.809,12.537-5.617,27.119-.809,36.51,8.538,2.09,1.326,5.145,8.628,7.212,7.5a64.2,64.2,0,0,1,8.246-2.269c2.314-.09,10.178-1.011,7.639,2.966-12.357,12.312-17.66,8.291-2.134,14.492,1.663.494,3.033,1.887,1.528,3.438-7.28,8.65-14.851.2-16.312,3.28-6.673,12.874-21.569,20.581-35.836,20.648a34.618,34.618,0,0,1-12.312-2.516c-1.281-.135-5.3-3.73-5.437-1.236C98.9,180.332,67.965,311.566,45.79,232.3a155.29,155.29,0,0,1-5.145-36.937c-.629-16.851-.2-33.792,3.258-50.306l-.135.2m18.648,71.56c-.472,4.494-.157,9.01-.2,13.5a1.243,1.243,0,1,0,2.449-.022c.292-16.357,1.123-32.713,2.022-49.025.292-5.707.562-11.436.674-17.143-.225-1.865,1.932-10.021-.517-9.863-.966-.045-1.191.674-1.281,1.415-1.73,20.378-2.516,40.667-3.146,61.135m9.437-18.648c.809-10.65,2-21.255,2.921-31.9.225-3.033.539-6.089.629-9.144,0-.427-.674-.854-1.034-1.3-2.112,1.1-1.505,8.111-2.067,10.6-.517,7.235-1.573,14.424-2.247,21.637-.921,9.571-1.505,19.165-1.573,28.781-.022,2.09.022,4.179,0,6.269.337,1.73-1.326,6.493.921,6.808,1.483-.247,1.573-2.022,1.55-3.258.157-9.594.472-18.806.9-28.489m8.2-147.951c1.168,16.649.966,33.342,2.134,49.991-.09,2.359,3.011,2.179,2.471.022-.315-5.19-.764-10.358-.9-15.57-.472-14.042-.674-28.085-1.573-42.1a1.809,1.809,0,0,0-1.415-1.932c-2.179.067-.539,7.751-.719,9.594M76.346,81.113q-.4-18.57-.449-37.139c0-1.078-.045-2.674-1.326-2.9-1.573.247-1.146,2.067-1.146,3.213.067,3.864.2,7.729.225,11.593.18,14.716-.472,29.5.7,44.194.135.786.427,1.55,1.528,1.393,1.034-.135.966-.854.921-1.55-.539-6.336-.494-12.312-.449-18.806M16.02,118.1c2.764-.315,25.95,4.9,24.108,1.146-1.348-2.112-4.583-1.056-6.718-1.618-2.427-.27-4.853-.584-7.257-.9-2.427.067-10.29-2.157-11.548-.539-.382,1.034.09,1.8,1.415,1.887m.449,13.279c-2.224.472-2.674,2.943-.022,2.494,7.662-1.371,15.368-2.651,22.94-4.516.764-.18.9-.719.764-1.348-.27-1.438-2-.764-3.011-.674-7.032,1.123-13.638,2.561-20.67,4.022m150.872-11.571a7.043,7.043,0,0,0,.989-.562,1.764,1.764,0,0,0,.359-.517c-3.842-.607-7.549,1.191-11.211,2.112-2.584.292.112,4.965.112,6.718,3.393-2.494,6.313-5.19,9.751-7.751m.449,17.076a2.6,2.6,0,0,0,.539-.315c.2-.157.382-.337.584-.517-3.617-.809-6.9-2.786-10.29-4.314-.809-.382-1.056-.337-1.168.539.022,1.618-1.415,3.932.494,4.92,3.3,1.55,6.516,1.73,9.841-.315m-24.827-18.985c4.044-.831-.854-3.617-2.494-3.977-2.584-.427-6.785.472-6.74,3.73,4.4.472,3.909-3.325,9.234.27m-5.392,1.573c-2.382,1.281-1.213,5.639,1.258,5.37,3.348-.9,2.876-6.493-1.258-5.392M2.764,97.178c.022-.045.067-.09.09-.135-.067.022-.135.022-.09.135" transform="translate(290.409 1160.401) rotate(8)"/>
  </g>
</svg>
