<?xml version="1.0" encoding="utf-8"?>
<!-- Generator: Adobe Illustrator 24.0.1, SVG Export Plug-In . SVG Version: 6.00 Build 0)  -->
<svg version="1.1" id="Layer_1" xmlns="http://www.w3.org/2000/svg" xmlns:xlink="http://www.w3.org/1999/xlink" x="0px" y="0px"
	 viewBox="0 0 515 832" style="enable-background:new 0 0 515 832;" xml:space="preserve">
<style type="text/css">
	.st0{fill:#FFFFFF;}
	.st1{fill:none;}
</style>
<ellipse class="st0" cx="247.5" cy="779.5" rx="89.5" ry="48.5"/>
<desc  xmlns:shape="http://adobe.com/products/shape"></desc>
<g>
	<path class="st1" d="M225.7,358.5c0.4-57.8,10.2-115.9,4.3-173.5c-0.9,0.9-1.9,2-2,3.4c-1.1,27.8-1.6,55.7-2.5,83.5
		c-2.5,41-2.5,81.6-0.4,122.7c3.1,27.8,4.1,57.1,11.1,83.9c0.6-18.6-1-37.4-2.3-56C232.8,401,225.1,380.2,225.7,358.5z"/>
	<path class="st1" d="M183.9,804.3c-13.6-10.4-22.1-24.4-27.9-40.1c-3.1-6.5-1.6-15.4-6.8-20.6c-7.3,7.3,1.4,17.6,2.5,26.7
		c3.7,9.3,24.4,44.5,35.4,40.5C188.9,808.3,186,805.9,183.9,804.3z"/>
	<path class="st1" d="M224.6,79.4c-1.4-11.2-18.8-8.8-16.1-21.3c0.5-2-1.9-2.5-3-3.7c-5.3,4.5,1.4,13.6-6.5,16.6
		C168.6,94.7,229.1,121.6,224.6,79.4z"/>
	<path class="st1" d="M397,251.7c1.4-7.7-6-17.1-13.3-19.3c-1.5-0.4-2.7-2.7-3.6-4.4c-0.5-3.6-1.4-6.7-4.6-9
		c-2.5,5.5,0.5,11.8-7.2,13.6c-8,3.6-13.2,15.1-9,23.9C367.9,273.2,392.7,269,397,251.7z"/>
	<path class="st1" d="M193.2,794.9c-8.5-13.5-15.8-27.5-20.7-42.7c-1.2-2.8-2-6.4-4.9-7.8c-1.9,23,19.9,54.2,34.1,71.7
		c4,4.9,6.7,1.3,4.5-4C201.6,806.8,197.9,800.9,193.2,794.9z"/>
	<path class="st1" d="M147.4,186.3c-3.1-1.1-5.2-2.8-5.2-6.6c0.1-3.3-2.5-15.4-6.6-8.5c-0.3,5,3.2,10.4-3.2,13.2
		c-7.7,3.9-11.9,14.2-9.3,22.5c5,17.8,34,15.3,35.4-3.6C159,197.9,156.1,188.8,147.4,186.3z"/>
	<path class="st1" d="M336.3,168.9c8.4-10.7,2.6-24.4-9.8-28.6c-1.1-0.4-2.1-2.5-2.5-3.9c-1-3.6,0.5-8-3.6-9.9
		c-3,2.2-2.9,5.5-2.4,8.9c1.4,9.2-19.9,6.9-15.4,29.5C308.4,181.3,325.8,180.9,336.3,168.9z"/>
	<path class="st1" d="M325.7,739.8c-5.6,14.7-10.5,30.1-17.1,44.6c-1.2,6.8-20.9,30.7-16.6,33.4c10.3,1.7,33-53.6,35.3-64.5
		C327.9,749.2,335.2,734.7,325.7,739.8z"/>
	<path class="st1" d="M203.4,757.6c-1.3-4.7-2.5-9.4-4-14c-0.4-1.1-2.3-1.7-3.5-2.5c-6.1,4.3,18.8,86.2,27.2,84
		c1.3-11.4-7.5-22-9.8-33.1C209.7,780.9,206.7,769.6,203.4,757.6z"/>
	<path class="st1" d="M350.5,739.3c-2.4,1.2-5.1,1.6-5.3,4.8c-2.8,6.5-5.7,12.9-8.5,20.2c-7,13.7-15.1,26.6-24.8,38.5
		c-0.9,1.3-1.5,4.4-0.8,5.3C318.6,814.3,356,746.9,350.5,739.3z"/>
	<path class="st1" d="M257.7,737.6c-2.9,4.2-0.3,9.9-0.8,15.7c-0.3,21.4,1.7,42.8,0,64.3c-0.1,2.2,0.6,3.8,3,3.1
		c5.7-3.4,2.8-14.3,3.7-20.2C261.7,784.3,267.5,748.9,257.7,737.6z"/>
	<path class="st1" d="M226.9,738.6c-2.8-0.5-2.4,2-2.3,3.8c2.1,26.1,7,51.9,11.6,77.7c0.3,2.8,2.1,4.9,4.2,4.5
		c6.4-1.3-5.3-39.2-5.6-46.8C232.5,769.1,234.4,742.3,226.9,738.6z"/>
	<path class="st1" d="M290.9,735.5c-5.8,8-2.5,23.8-5.3,33.9c-2.5,17-6.7,32.3-10.9,49.3c8.3,8.9,12.9-31.7,15.2-36.8
		C290.5,770.8,298.9,742.9,290.9,735.5z"/>
	<g>
		<path class="st1" d="M183.9,804.3c-13.6-10.4-22.1-24.4-27.9-40.1c-3.1-6.5-1.6-15.4-6.8-20.6c-7.3,7.3,1.4,17.6,2.5,26.7
			c3.7,9.3,24.4,44.5,35.4,40.5C188.9,808.3,186,805.9,183.9,804.3z"/>
		<path class="st1" d="M193.2,794.9c-8.5-13.5-15.8-27.5-20.7-42.7c-1.2-2.8-2-6.4-4.9-7.8c-1.9,23,19.9,54.2,34.1,71.7
			c4,4.9,6.7,1.3,4.5-4C201.6,806.8,197.9,800.9,193.2,794.9z"/>
		<path class="st1" d="M225.7,358.5c0.4-57.8,10.2-115.9,4.3-173.5c-0.9,0.9-1.9,2-2,3.4c-1.1,27.8-1.6,55.7-2.5,83.5
			c-2.5,41-2.5,81.6-0.4,122.7c3.1,27.8,4.1,57.1,11.1,83.9c0.6-18.6-1-37.4-2.3-56C232.8,401,225.1,380.2,225.7,358.5z"/>
		<path class="st1" d="M397,251.7c1.4-7.7-6-17.1-13.3-19.3c-1.5-0.4-2.7-2.7-3.6-4.4c-0.5-3.6-1.4-6.7-4.6-9
			c-2.5,5.5,0.5,11.8-7.2,13.6c-8,3.6-13.2,15.1-9,23.9C367.9,273.2,392.7,269,397,251.7z"/>
		<path class="st1" d="M224.6,79.4c-1.4-11.2-18.8-8.8-16.1-21.3c0.5-2-1.9-2.5-3-3.7c-5.3,4.5,1.4,13.6-6.5,16.6
			C168.6,94.7,229.1,121.6,224.6,79.4z"/>
		<path class="st1" d="M203.4,757.6c-1.3-4.7-2.5-9.4-4-14c-0.4-1.1-2.3-1.7-3.5-2.5c-6.1,4.3,18.8,86.2,27.2,84
			c1.3-11.4-7.5-22-9.8-33.1C209.7,780.9,206.7,769.6,203.4,757.6z"/>
		<path class="st1" d="M147.4,186.3c-3.1-1.1-5.2-2.8-5.2-6.6c0.1-3.3-2.5-15.4-6.6-8.5c-0.3,5,3.2,10.4-3.2,13.2
			c-7.7,3.9-11.9,14.2-9.3,22.5c5,17.8,34,15.3,35.4-3.6C159,197.9,156.1,188.8,147.4,186.3z"/>
		<path class="st1" d="M336.3,168.9c8.4-10.7,2.6-24.4-9.8-28.6c-1.1-0.4-2.1-2.5-2.5-3.9c-1-3.6,0.5-8-3.6-9.9
			c-3,2.2-2.9,5.5-2.4,8.9c1.4,9.2-19.9,6.9-15.4,29.5C308.4,181.3,325.8,180.9,336.3,168.9z"/>
		<path class="st1" d="M350.5,739.3c-2.4,1.2-5.1,1.6-5.3,4.8c-2.8,6.5-5.7,12.9-8.5,20.2c-7,13.7-15.1,26.6-24.8,38.5
			c-0.9,1.3-1.5,4.4-0.8,5.3C318.6,814.3,356,746.9,350.5,739.3z"/>
		<path class="st1" d="M325.7,739.8c-5.6,14.7-10.5,30.1-17.1,44.6c-1.2,6.8-20.9,30.7-16.6,33.4c10.3,1.7,33-53.6,35.3-64.5
			C327.9,749.2,335.2,734.7,325.7,739.8z"/>
		<path class="st1" d="M226.9,738.6c-2.8-0.5-2.4,2-2.3,3.8c2.1,26.1,7,51.9,11.6,77.7c0.3,2.8,2.1,4.9,4.2,4.5
			c6.4-1.3-5.3-39.2-5.6-46.8C232.5,769.1,234.4,742.3,226.9,738.6z"/>
		<path class="st1" d="M257.7,737.6c-2.9,4.2-0.3,9.9-0.8,15.7c-0.3,21.4,1.7,42.8,0,64.3c-0.1,2.2,0.6,3.8,3,3.1
			c5.7-3.4,2.8-14.3,3.7-20.2C261.7,784.3,267.5,748.9,257.7,737.6z"/>
		<path class="st1" d="M290.9,735.5c-5.8,8-2.5,23.8-5.3,33.9c-2.5,17-6.7,32.3-10.9,49.3c8.3,8.9,12.9-31.7,15.2-36.8
			C290.5,770.8,298.9,742.9,290.9,735.5z"/>
		<path class="st1" d="M183.9,804.3c-13.6-10.4-22.1-24.4-27.9-40.1c-3.1-6.5-1.6-15.4-6.8-20.6c-7.3,7.3,1.4,17.6,2.5,26.7
			c3.7,9.3,24.4,44.5,35.4,40.5C188.9,808.3,186,805.9,183.9,804.3z"/>
		<path class="st1" d="M225.7,358.5c0.4-57.8,10.2-115.9,4.3-173.5c-0.9,0.9-1.9,2-2,3.4c-1.1,27.8-1.6,55.7-2.5,83.5
			c-2.5,41-2.5,81.6-0.4,122.7c3.1,27.8,4.1,57.1,11.1,83.9c0.6-18.6-1-37.4-2.3-56C232.8,401,225.1,380.2,225.7,358.5z"/>
		<path class="st1" d="M226.9,738.6c-2.8-0.5-2.4,2-2.3,3.8c2.1,26.1,7,51.9,11.6,77.7c0.3,2.8,2.1,4.9,4.2,4.5
			c6.4-1.3-5.3-39.2-5.6-46.8C232.5,769.1,234.4,742.3,226.9,738.6z"/>
		<path class="st1" d="M203.4,757.6c-1.3-4.7-2.5-9.4-4-14c-0.4-1.1-2.3-1.7-3.5-2.5c-6.1,4.3,18.8,86.2,27.2,84
			c1.3-11.4-7.5-22-9.8-33.1C209.7,780.9,206.7,769.6,203.4,757.6z"/>
		<path class="st1" d="M193.2,794.9c-8.5-13.5-15.8-27.5-20.7-42.7c-1.2-2.8-2-6.4-4.9-7.8c-1.9,23,19.9,54.2,34.1,71.7
			c4,4.9,6.7,1.3,4.5-4C201.6,806.8,197.9,800.9,193.2,794.9z"/>
		<path class="st1" d="M340.3,794.7c-0.6,0.8-1.2,1.5-1.8,2.3C339.1,796.3,339.7,795.5,340.3,794.7
			C340.3,794.7,340.3,794.7,340.3,794.7z"/>
		<path class="st1" d="M147.4,186.3c-3.1-1.1-5.2-2.8-5.2-6.6c0.1-3.3-2.5-15.4-6.6-8.5c-0.3,5,3.2,10.4-3.2,13.2
			c-7.7,3.9-11.9,14.2-9.3,22.5c5,17.8,34,15.3,35.4-3.6C159,197.9,156.1,188.8,147.4,186.3z"/>
		<path class="st1" d="M397,251.7c1.4-7.7-6-17.1-13.3-19.3c-1.5-0.4-2.7-2.7-3.6-4.4c-0.5-3.6-1.4-6.7-4.6-9
			c-2.5,5.5,0.5,11.8-7.2,13.6c-8,3.6-13.2,15.1-9,23.9C367.9,273.2,392.7,269,397,251.7z"/>
		<path class="st1" d="M336.3,168.9c8.4-10.7,2.6-24.4-9.8-28.6c-1.1-0.4-2.1-2.5-2.5-3.9c-1-3.6,0.5-8-3.6-9.9
			c-3,2.2-2.9,5.5-2.4,8.9c1.4,9.2-19.9,6.9-15.4,29.5C308.4,181.3,325.8,180.9,336.3,168.9z"/>
		<path class="st1" d="M224.6,79.4c-1.4-11.2-18.8-8.8-16.1-21.3c0.5-2-1.9-2.5-3-3.7c-5.3,4.5,1.4,13.6-6.5,16.6
			C168.6,94.7,229.1,121.6,224.6,79.4z"/>
		<path class="st1" d="M257.7,737.6c-2.9,4.2-0.3,9.9-0.8,15.7c-0.3,21.4,1.7,42.8,0,64.3c-0.1,2.2,0.6,3.8,3,3.1
			c5.7-3.4,2.8-14.3,3.7-20.2C261.7,784.3,267.5,748.9,257.7,737.6z"/>
		<path class="st1" d="M350.5,739.3c-2.4,1.2-5.1,1.6-5.3,4.8c-2.8,6.5-5.7,12.9-8.5,20.2c-7,13.7-15.1,26.6-24.8,38.5
			c-0.9,1.3-1.5,4.4-0.8,5.3C318.6,814.3,356,746.9,350.5,739.3z"/>
		<path class="st1" d="M290.9,735.5c-5.8,8-2.5,23.8-5.3,33.9c-2.5,17-6.7,32.3-10.9,49.3c8.3,8.9,12.9-31.7,15.2-36.8
			C290.5,770.8,298.9,742.9,290.9,735.5z"/>
		<path class="st1" d="M325.7,739.8c-5.6,14.7-10.5,30.1-17.1,44.6c-1.2,6.8-20.9,30.7-16.6,33.4c10.3,1.7,33-53.6,35.3-64.5
			C327.9,749.2,335.2,734.7,325.7,739.8z"/>
		<path d="M338.5,797c0.6-0.8,1.2-1.6,1.8-2.3c0.2-0.3,0.5-0.6,0.7-0.9c71-93-8.8-68.1-82.3-68.1c-5.5,1-6.9,0-6.8-5.6
			c0.3-16,0.5-32,0.8-48c2-48.8,3.7-97.7-5.1-146c-6.7-37.3-3.3-75-7.6-112.4c-2-17-8.5-33.3-8.3-50.4c-0.3-13.2,0.4-26.3,0.7-39.4
			c0-3.4,1.6-3.1,4.3-2.7c16,3.8,33.6-1.6,44.1-14.6c4.3-5.7,10.2-5.1,15.6-4.2c43.2,9.9,76,26,113.7-8.7
			c22-18.2,52.1-4.8,77.2-15.3c23.4-5.3,26.1-37.4,11.3-53c-18.6-17.7-45.9-20-69.3-28.3c-6.7-2.1-6.5-2-1.7-7.4
			c7.5-8.5,15.4-16.9,21.7-26.2c21.2-31.4-6-64.9-39.4-69.1c-13.8-1.2-9.5-33-26-49.7C360.1,14,318.6-1.4,280.5,2.6
			c-11.5,1.8-21.7,7-31.5,13.2c-10.6,8-24.6-15.4-51.4-8.7c-27.8,5.2-45.5,31.9-52.9,57.6c-0.3,1.4-1.6,3.7-2.6,3.9
			c-25.1-0.6-36.6-2.1-49,23.1c-8.3,14.4-7.6,30-5.3,45.7c-17.7,3.1-37.2-0.2-53.4,9.4c-27.8,13.6-28.2,50.4-21.7,76.6
			c6.2,25.8,31.3,61.3,55,73.7c20.4,9,39.8-5.8,59.6-7.5c32,2.3,50.8,48.8,85.6,32.3c4.2-1.3,5.1-0.8,5,3.6
			c-4.9,71.3,9.8,141.3,19.4,211.6c7.5,61.6,4.8,123.7,1.9,185.5c-0.1,3.6-1.9,4.6-4.8,4.7c-11.6,0.3-23.3,0.5-34.9,0.8
			c-16,2-73.8-2.5-66.5,23.9c4.7,22,20.7,38.3,35.5,54.3l10.9,9.1c0.3,0.2,0.6,0.3,0.9,0.6c0.1,0.1,0.2,0.1,0.4,0.2
			c2.6,1.1,5,2.6,7.7,3.4c19.5,7,39.4,12.2,60.3,11.3c10.7,0,21.4-0.9,32-2.5c14.4-1.1,26.2-8.9,38.6-14.9l0,0
			C319.3,813.5,330.6,806.6,338.5,797z M368.3,232.6c7.7-1.8,4.7-8.1,7.2-13.6c3.2,2.3,4.1,5.3,4.6,9c0.8,1.7,2,4,3.6,4.4
			c7.3,2.1,14.7,11.5,13.3,19.3c-4.2,17.3-29,21.6-37.7,4.8C355.1,247.7,360.3,236.2,368.3,232.6z M318.1,135.4
			c-0.5-3.4-0.6-6.7,2.4-8.9c4.1,2,2.5,6.4,3.6,9.9c0.3,1.4,1.4,3.5,2.5,3.9c12.4,4.2,18.2,17.9,9.8,28.6c-10.4,12-27.8,12.4-33.6-4
			C298.2,142.3,319.5,144.6,318.1,135.4z M158.4,203.3c-1.4,18.9-30.4,21.5-35.4,3.6c-2.5-8.3,1.6-18.6,9.3-22.5
			c6.5-2.8,2.9-8.2,3.2-13.2c4.1-6.9,6.7,5.2,6.6,8.5c0,3.8,2,5.5,5.2,6.6C156.1,188.8,159,197.9,158.4,203.3z M199.1,71
			c7.9-3.1,1.2-12.1,6.5-16.6c1.1,1.2,3.5,1.8,3,3.7c-2.7,12.5,14.7,10.1,16.1,21.3C229.1,121.6,168.6,94.7,199.1,71z M236.2,478.6
			c-7-26.8-8-56.1-11.1-83.9c-2-41.2-2.1-81.7,0.4-122.7c0.9-27.8,1.4-55.7,2.5-83.5c0.1-1.4,1-2.5,2-3.4
			c5.9,57.6-3.9,115.7-4.3,173.5c-0.6,21.6,7.1,42.4,8.2,64.1C235.2,441.2,236.8,460.1,236.2,478.6z M187,810.8
			c-10.9,4-31.7-31.2-35.4-40.5c-1.1-9.2-9.8-19.4-2.5-26.7c5.2,5.3,3.6,14.1,6.8,20.6c5.9,15.7,14.3,29.8,27.9,40.1
			C186,805.9,188.9,808.3,187,810.8z M201.7,816.1c-14.3-17.6-36-48.7-34.1-71.7c2.9,1.4,3.7,5,4.9,7.8
			c4.9,15.2,12.2,29.2,20.7,42.7c4.7,6,8.4,11.9,13,17.2C208.4,817.4,205.7,821,201.7,816.1z M223.2,825c-8.5,2.1-33.4-79.7-27.2-84
			c1.2,0.8,3.1,1.4,3.5,2.5c1.5,4.6,2.7,9.3,4,14c3.3,12.1,6.3,23.3,9.9,34.4C215.7,803.1,224.5,813.7,223.2,825z M240.4,824.7
			c-2,0.4-3.8-1.7-4.2-4.5c-4.6-25.8-9.5-51.6-11.6-77.7c-0.1-1.8-0.5-4.3,2.3-3.8c7.5,3.6,5.6,30.5,7.9,39.3
			C235.2,785.5,246.8,823.4,240.4,824.7z M259.9,820.6c-2.4,0.8-3.1-0.8-3-3.1c1.7-21.5-0.3-42.9,0-64.3c0.5-5.8-2.1-11.5,0.8-15.7
			c9.8,11.3,4,46.7,5.9,62.8C262.7,806.4,265.6,817.2,259.9,820.6z M274.7,818.7c4.2-17.1,8.3-32.3,10.9-49.3
			c2.7-10.1-0.5-25.9,5.3-33.9c8.1,7.4-0.3,35.3-0.9,46.4C287.6,787,283,827.6,274.7,818.7z M292,817.8
			c-4.2-2.7,15.4-26.7,16.6-33.4c6.5-14.4,11.5-29.9,17.1-44.6c9.5-5.1,2.2,9.3,1.6,13.5C325.1,764.3,302.3,819.5,292,817.8z
			 M311.1,808.1c-0.8-0.8-0.2-4,0.8-5.3c9.7-11.9,17.8-24.8,24.8-38.5c2.8-7.3,5.7-13.8,8.5-20.2c0.3-3.2,3-3.6,5.3-4.8
			C356,746.9,318.6,814.3,311.1,808.1z"/>
		<path class="st0" d="M340.9,793.8c-0.2,0.3-0.4,0.6-0.7,0.9C340.5,794.4,340.7,794.1,340.9,793.8z"/>
	</g>
</g>
</svg>
