<?xml version="1.0" encoding="utf-8"?>
<!-- Generator: Adobe Illustrator 24.0.1, SVG Export Plug-In . SVG Version: 6.00 Build 0)  -->
<svg version="1.1" id="Layer_1" xmlns="http://www.w3.org/2000/svg" xmlns:xlink="http://www.w3.org/1999/xlink" x="0px" y="0px"
	 viewBox="0 0 618 592.4" style="enable-background:new 0 0 618 592.4;" xml:space="preserve">
<style type="text/css">
	.st0{fill:#FFFFFF;}
</style>
<ellipse class="st0" cx="307.1" cy="424.2" rx="254.7" ry="113.2"/>
<title>test_ghost</title>
<path d="M429.9,57.5c5.6,11.2,7.6,23.3,11.3,35c1.8,5.8,7.6,8.6,11.9,12.4c9.5,7,17.5,15.4,25.1,24.3c15.5,16.6,25.2,38.7,22.7,61.6
	c-0.4,6.7-1.8,13.3-4,19.6c0.4,8.4,3.3,17.3,4.6,25.8c1.1,6.7,2.3,13.4,3.2,20.2c0.8,6.8-0.4,13.9,4.2,19.6
	c8.8,12.6,10.8,28.2,10.5,43.3c0.5,4.2-3.4,9.3,2.2,11.2c16.7,7.6,33.3,15.8,47.5,27.6c20.7,13.9,40.7,32,47,57.1
	c5,21.1-1,43.6-11.3,62.3c-10.6,19.6-25.7,36.6-42.7,51c-25,22-54.8,37.4-86.7,46.7c-30.5,6.9-61.5,11.2-92.6,14.3
	c-33.7,2.2-67.7,4-101.5,2.3c-20.8-1.7-41.6-3.3-62.1-7.3c-41.9-7.3-83.7-17.4-121.5-37.2c-48.1-23.1-83.3-50.3-96.3-104.6
	C-3.1,418.9,3.3,401,15.6,381c14.6-24.4,37.5-42.6,62.1-56.1c16.9-9.5,33.7-19.3,52.1-25.8c19.1-6.2,38.8-10.1,58.4-14.3
	c21-5.6,42.6-8.3,64-11.9c5.3-1.1,15.6,0.2,19.4-3c-10.7-2.6-19-11-15.9-22.9c2.1-10.7,11.3-9.4,10.8-15.1
	c2.3-10.7,16.9-10.3,25.7-11.2c2.1-0.2,2.6-0.6,2-2.6c-1.8-6.8-2.8-23.4,8.3-20.9c1.8,0,10.5,3.9,9.8,0.6
	c-0.2-6.2-0.6-12.4-0.3-18.7c0.6-11.7,3.6-23.1,6.1-34.5c0.5-5.9,6.2-12.3,1.9-17.6c-11.3-17.7-15.9-40.1-8.4-60.3
	C322,32.9,356,13.1,390.3,22.4C409,25.8,422.1,41.1,429.9,57.5 M316.2,376.5h-0.6c1.5,2.7-0.7,10.8,1.8,12.8c1,0.1,2.9-0.1,2.9-0.4
	c0.2-3.1,0.6-6.3,0-9.3c-0.3-1.2-2.8-1.9-4.4-3.1 M255.2,390.6c0.1,0,0.2,0,0.4,0c-3.6-7.7-7.9-15.4-11.9-23c-0.9-2-4.9-3.4-6.2-1.2
	C244.7,373.4,248.1,383.8,255.2,390.6 M122.7,405.2c18.6-26.8,54.7-31.6,84.4-37.8c19.1-3.5,38.3-6.6,57.6-8.4
	c8.1-1.1,16.9,0.7,24.7-1.1c-5.5-3.9-9.9-9-14.6-13.8c-5.4-5.9-9.4-12.8-11.9-20.4c-0.3-0.7-1-1.3-1.8-1.4
	c-38.1,4.5-76.1,11.9-112.7,23.6c-30.9,10.3-64.5,24.7-79.6,55.6c-6,10.6-5.5,22.5-2.5,33.9c7.2,33.2,60.3,53,89.7,61.8
	c56.8,16.2,116.1,26,175.3,25.4c30.3,1.3,60.3-3.5,89.9-9.6c38-7.4,78-16.9,106.7-44.5c27-24.7,36.9-58.7,2.6-82.5
	c-5.1-4.1-27.4-18.3-33-13.6c-8.7,8.8-18.1,18.4-30,22.7c-4.1,1.5-8.6,1.9-12.5,3.6c25.4,21,36,41.4-1.7,56.2
	c-28,11.3-58.4,15.4-88.3,18.2c-26.1,2.6-52.3,3.2-78.5,1.9c-44.7-3-90.8-7.5-132.4-25.2C135.3,439.9,107.3,432,122.7,405.2
	 M312.8,100.7c2.8,8.8,5.4,18.4,11.2,25.6c1-3.4,5.8-7.6,8.8-4c2,2.6,4.4,4.8,6.1,7.5c5,5.6,2.9,13,8.3,17.5
	c10.4,8.6,28.2,8.6,21.2,26.8c-6.7,16.4-26.3,8.4-29.7-6c-6.3-13.3,3.2-15.6,1.2-26.9c0-3.6-9.5-22.2-12.6-13.6
	c-4.4,13.3-8.8,26.8-10.4,40.8c-1.2,9.4-2,18.7-0.7,28.1c0.2,3,0.4,3.2,3.4,3.8c11,1.7,22,4.3,33.2,4.5c20.6,0.7,40.2-6.9,59.7-12.6
	c8.6-1.5,20.9-10.2,26.8,0c2.2,3.6,2.5,7.9,3.4,12.1c1.6,8.6,3.4,17.3,5.1,25.9c4.8-8,8.8-16.6,10.6-25.8c0.4-3.6,3.4-1.9,3.4,0.6
	c-2.8,12.1-8.5,27.7-18.4,35.6c-8.8,4.6-17.6,9.2-26.1,14.5c-4.6,3.7,7.5,6.5,10,6.2c3.9,0.1,7.7-0.2,11.6-0.7
	c26.2-3.3,37.2-17.1,50.3-38.4c21.7-49.7,0.3-83.2-38.5-114.5c-8.5-6.6-14.7-14.4-15.9-25.4c-4-17.7-11.3-35.3-25.4-47.3
	c-12.4-10.6-29.7-11.7-45.3-11.2C329.5,28.4,306,67.3,312.8,100.7 M349.9,208.4c-11-1-22-2.5-32.8-4.6c-5-0.8-10-1.2-14.7-3
	c-4-1.3-5.1,2.5-5.2,5.4c-0.1,21.4,10.4,41.3,17,61.3c6.7,14.2,8.1,33.8,24.2,40.6c31,15.5,38.5,15.1,70.4,1.4
	c12.4-5.2,24.9-10.3,37.1-16.2c1.9-0.9,2.7-2.3,2.7-4.6c-0.1-7.2-0.2-14.3-2-21.3c-1-3.9-0.9-4.1-4.3-3.7
	c-6.8,0.6-13.6,2.4-20.2,0.4c-3.2-0.6-5.9-2.6-9.4-2.5c-2.6,0-5-1.5-6.1-3.9c-1.5-2.7,1.5-4.6,3.1-1.9c3.8,4.5,2.2-0.8,4.5-3.2
	c-15.3-2.6-0.5-17.7,4.4-9.8c-1.9,2-4.7,1-6.6,3c-2.8,3.2,6.1,3.6,7.5,3.1c3.5-1,6.6-3.2,9.9-4.9c15.6-8.6,17.8-4.9,12.9-23.8
	c-1.7-8.2-3.3-16.5-5.2-24.7c-0.9-3.6-4.5-5.7-7.6-4.7c-16.6,5.5-33.3,10.8-50.4,14.7C369.5,208.3,359.7,209.3,349.9,208.4
	 M444.6,344.5c-16.4,11.7-34.5,20.7-52.2,30.2c-14.5,9.1-29.4,17.6-43.8,26.5c35.6,6.4,72.6,0.3,107.7-7c42-8.5,68.1-57.5,57.1-97.9
	c-2-8.7-7.1-16.2-10.8-24.2c-2.9-17.9-3.8-36.5-8.3-54.2c-4.1,8.5-8.8,16.8-15.3,23.8c-3.8,4.4-7.4,9.6-12.2,13
	c-4.9,3-10.3,5.1-15.8,6.3c-1.8,0.4-2,1.5-1.7,2.8c1.4,7.5,7.4,29-1.5,32.7c-9.2,4-18.4,8.1-27.6,12.2c-0.5,0.3-1.4,1-0.4,1.5
	c12.1,5.3,25,10.2,34.2,19.9C458.8,336.9,448.5,340.2,444.6,344.5 M319.8,293.5c-3.1-9.9-7.3-19.7-11-29.4c-0.9-2.3-1.1-2.3-3.2-0.9
	c-14.6,10.3-38.2,21.8-39.9,41.6c-0.3,4.8-0.6,9.8,0.1,14.6c8,34.4,58.7,58.6,88.6,72.2c3.3,2.1,16.1-8.6,20.5-10.3
	c0.8-0.4,1.1-1.3,0.7-2.1c0-0.1-0.1-0.2-0.1-0.2c-4.8-8.5-10-16.9-14.5-25.5c-5.2-9.8-10.2-21.2-7.9-32.6c0.4-1,0-2.1-1-2.5
	c-0.1,0-0.1-0.1-0.2-0.1C339.2,313,324.9,307.4,319.8,293.5 M308.4,440.4c23.7,2.1,48.4,1.6,71-6.5c11-3.3,24.4-13.5,11.8-24
	c-5-4.2-22.1-1.6-29.8-2.9c-4.5-0.1-23.1-1.5-14.4-8.8c1.2-1,3.1-1.4,3.8-2.8c-32.1-3.9-64.6-4.1-96.8-0.6
	c-16.1,2.6-33.8,3.1-48.1,11.9c-3.5,2.5-5.1,6.3-3,10.7c5.3,9.6,17.1,11.5,26.7,14.2C255.8,436.4,282,438,308.4,440.4 M429.6,343.4
	c-17.9-5.1-56.9-19.7-73.3-14.6c0.7,9.1,4.9,17.3,9.2,25.1c3.6,3.8,13.3,3.4,18.5,5.5c6.7,1,14.6,7.4,21.2,4.3
	c10.1-5.6,20.8-10.6,30.2-17.3C435.4,344.7,431.1,344.4,429.6,343.4 M288.9,234.9c-3.7-0.5-13.2,2.3-14.8-1.6
	c-0.6-1.6,0.3-3.4,1.9-4c6.3-3.5,13.7-2.3,20.4-4.4c-4.8-3-27.9,0.6-26.2,8.9c0.7,14.1,2.5,28.1,6.6,41.6c1.4,5.3,8.8-4.6,11.6-5.5
	c5.6-3.8,11.3-7.4,16.9-11.1c3-0.6-6.1-20.6-6.6-24.4C297.2,230.8,292,234.7,288.9,234.9 M186.3,410.8c-19.6,2.2-39.6,1.8-59.3,1.9
	c-1.1-0.4-3.9,0-2.1-1.5c23.5-2.4,48.1,0.1,71.5-3.2c-22.2-0.9-44.5-1.4-66.6-2.6c-3-0.4-3.1-0.5-4.3,2.1c-1.7,3.7-2.9,7.6-3.4,11.6
	c-0.7,5,3.8,2.6,6.5,2.4c4.4-0.6,8.9-1.1,13.4-1.6c11.4-1.2,22.8-2.1,34.3-3.1c5.3-0.5,10.6-1,15.9-1.5c2.2-0.5,5.1,0.5,6.4-1.8
	c-6.5-1.3-13.5,1.3-20.2,1.4c-4.2,0.5-8.5,0.8-12.8,1.1c-14.1,0.9-28.8,3.5-42.7,2.4c-0.7-2.8,12.3-1.5,14.5-2
	c13.8-1.4,27.6-2.6,41.4-3.5c6.6-0.8,13.9-0.5,20.1-2.6C194.9,409.4,190.8,410.9,186.3,410.8 M362,177.5c6.1-5,7.7-15.9-1.5-19.1
	c-2.8-1-5.4-2.7-8.1-4c-2.7-1.2-5.2-2.9-7.3-5c-0.6-0.6-1.4-0.9-1.8,0.3c-1.2,3.6-4.2,7.1-2.8,11.1C342.1,171,350.3,185,362,177.5
	 M276,381.8c-1.1-5.7-2.3-11.5-3.4-17.2c0-0.5,0.2-1,0.6-1.4c2.3-1.2,2.8,8.8,3.6,10.5c0.9,4.5,1.8,9,2.7,13.4
	c0.2,1.1,2.1,2,3.3,1.3c0.8-1.1,0-3.5-0.3-4.8c-1-7-3.9-14.2-3.5-21.2c3.3,0.6,4.3,17.4,5.8,21.4c0.4,1.9-0.1,4.6,3.1,5
	c0.8,0.1,1.5,0.5,1.1-1c-1.6-7.6-3-15.2-4.7-22.8c-0.7-3.3-0.4-3-3.8-2.9s-7.1,0.2-10.7,0.3c-2,0-2.3,0.4-1.8,2.4
	c1.6,6.5,3.2,13,4.8,19.5c0.6,1.8,1,5.7,3.8,4.5C278.5,388.7,276.1,383.6,276,381.8 M400.3,429.3c22.1,3.5,44.9,3.8,67.4,4.3
	c3.3,0.3,8.3,1.4,6.8-3.8c-0.1-1.2-0.8-1.8-2.1-1.6c-25.2,1.3-51.3-0.7-76.1,0.2C397.3,429.5,398.6,429,400.3,429.3 M174.4,441.9
	c-6.1,1.6-12.6,2.3-18.2,5.1c7.8,3.7,11.2,5.5,19,0.6c13.3-5.6,27-10.5,40.1-16.5c-1.9-1.6-4.3,0-6.4,0.4
	C197.3,435.2,186.1,438.5,174.4,441.9 M169,402c-8-1-16-2-23.9-3.5c-9.4-1.6-9.7-3.1-16.6,4.5c22.6,1.3,45.3,3.2,67.9,3.1
	C187.4,404.1,178.2,404,169,402 M472.6,423.7c-1.3-2.3-1.5-3.8-4.5-3.3c-4.9,0.5-9.8,1.1-14.8,1.5c-11.9,0.8-23.7,2.5-35.6,3
	c-5.5,0.2-10.9,0-16.4,0.1c-1.2,0.1-2.8-0.1-3.6,0.9c24.4,1.3,49-0.5,73.4-0.1C472.6,425.8,473.3,425.7,472.6,423.7 M151.5,434.8
	c16.8-4.1,34.4-6.7,50.7-12.1c-10.5,0.5-21.3,4.1-31.9,5.4c-12.9,2-26.1,2.8-38.8,5.8c0.7,1.1,2.3,1.1,3.3,2
	C139.3,439.3,146.1,435.2,151.5,434.8 M193.2,448.1c8.9-4.9,17.9-9.9,26.7-15.2c-1.7-1.2-3.4-0.2-4.9,0.6c-14.6,7.1-30.4,12-45,18.9
	C181.2,458,183.2,452.8,193.2,448.1 M329.8,446.4c3.2,7.3,6,14.8,8.8,22.3c1,2.6,1,2.6,4.1,2.5c3,1.2-4.3-12.3-4.4-14
	c-1.8-3.3-2.7-9.9-5.5-12.1c-3.3,0-6.7-0.4-9.8,0.2c3.1,2.5,3.5,7,5.1,10.5c1.5,4.1,3.2,8.2,4.4,12.4c1.3,4.5,1.1,3.2,4.7,3.4
	c0.1,0,0.4-0.4,0.4-0.5l-5.8-14.5C331.6,454.9,325.3,443.8,329.8,446.4 M394.5,435.4c16.3,3,32.4,6.8,48.3,11.4
	c7.7,2,13.3,4.9,20.4-1c-18.6-2.8-38.5-6.6-57.6-9.3c-3.3-0.5-6.6-1.1-9.8-1.9c-2.5-0.5-4.7-2.3-7.2-1.1
	C390.5,434.8,392.1,435,394.5,435.4 M419.5,412c6.8-1.3,13.5-3.3,20.2-5c4.5-1.2,9-2.5,13.6-3.8c0.2-0.1,0.5-0.6,0.4-0.7
	c-4.2-6-16.7,1.2-22.7,2.3c-10.1,3.5-20.2,7-30.3,10.8c-0.3,0.1-0.4,1-0.6,1.6C406.6,416.3,412.9,413.7,419.5,412 M174.4,421.6
	c8.3-0.9,16.7-1.5,24.8-3.4c-0.5-0.9-1-1.5-2-1.2c-12.4,0.9-24.8,2.1-37.2,3.5c-8.1,0.5-16.2,1.7-24.2,2.7c-3.6,1-10.1-0.2-12.6,2.4
	c2.5,2.5,11.5-0.6,15.4-0.5C150.6,423.5,162.6,423.4,174.4,421.6 M400.3,445.4c-5-1.9-10-3.8-14.9-5.7c-2.3-0.8-4.3-2.6-6.8-1.4
	c9,4.9,18.4,9,27.4,14c5.1,2.6,10.3,5.2,15.4,7.7c3.1,0.9,6.7-0.6,9.8-1.4C421.4,453.2,410.5,450.5,400.3,445.4 M387.7,437.3
	c11.4,2.5,22.6,6,33.8,9.2c7.7,2,15.5,3.7,22.9,6.7c2.6,0.7,5.9-0.6,8-2.1c-15-3.9-30.5-7.6-45.6-11.5c-4-0.2-21.4-6.7-22.7-3.1
	C385.1,437.3,386.3,436.9,387.7,437.3 M188.2,428.5c-8.4,2-16.8,4.3-25.3,6.1c-7.2,1.9-15.4,1.9-22.2,4.6c0.8,1.3,2.5,1.2,3.6,2
	c3.9,1.8,8.5-1.5,12.6-2c12.5-3.4,25-6.8,37.5-10.4c3.3-1.4,7.9-1.2,10.4-3.8c-1.5-0.8-3,0.1-4.6,0.4
	C196.4,426.4,192.5,427.5,188.2,428.5 M358,464.2c2.5,5,2.1,6.1,8.1,5c2.1-0.2,2.3-0.4,1.2-2.2c-4-6.5-8-12.9-11.8-19.5
	c-1.4-2.5-3-4-6-3.3C345.5,443.2,357.4,461.7,358,464.2 M186.3,436.5c7.8-2.9,16.4-4.3,24-7.6c-1.8-2.2-4.3-1.8-6.6-0.9
	c-18.3,5.7-36.6,11.4-55.2,15.4c4.4,3.7,9.5,1,14.1-0.6C170.6,440.5,178,438.5,186.3,436.5 M443.3,416.9c7-0.5,14-1.7,20.9-2.7
	c3.2-1.5-2.1-4.5-3.8-4.2c-19.2,5-39.6,6.4-58.4,12.1C415.9,421.5,429.2,418.4,443.3,416.9 M131,431.9c23-4.7,46.9-5.9,69.7-11.3
	c-0.4-0.2-0.8-0.6-1.1-0.5c-6,0.6-11.9,1.8-17.9,2.6c-6.3,0.6-12.6,1.5-18.8,2.3c-12.4,1.1-24.9,2.1-37.3,3.5
	C124.7,430.4,129.2,432.6,131,431.9 M409.5,418.1c12.9-2.5,25.8-5.1,38.7-7.6c2.3-0.9,11.1-1,11.8-2.8c-1.9-1.6-3.6-4.6-6.5-3
	c-8.8,2.9-17.8,5-26.6,7.5c-8.8,2.7-18.8,3.5-26.8,7.7C403,420.8,406.2,418.7,409.5,418.1 M267.1,445.6c-1.1,7.6-2.2,15.3-3,22.9
	c-0.1,0.6,0.9,1.2,1.3,1.9c2.3-2.2,1.1-5.6,1.7-8.5c0.5-4,1-8,1.5-12.1c0.8-2.6,0-6.3,2.1-8.3c1.6,8.9-2.3,18.3-2,27.4
	c2,4.4,4.2-1.1,3.8-3.6c0.3-4.7,0.5-9.5,0.8-14.3c-0.1-3,1.4-6.7,0.3-9.5C268.2,440.5,268.6,440,267.1,445.6 M250.3,365.3
	c4.1,7.5,7.4,15.5,11.1,23.2c0.5,1.4,2.1,0.9,3.2,1.2c-1.6-3.2-9.8-27.4-12.3-25.7c-1.7,0.9-8.6-0.4-6.7,2.8
	c4.1,7.1,7.6,14.5,11.1,21.9c0.4,1.7,1.8,1.5,3.2,1.5c-4-8.3-9-16.4-11.6-25.2C249,364.9,249.7,365.1,250.3,365.3 M404.9,433.1
	c-3.2-0.1-6.3-0.3-9.5-0.4c-0.2,0-0.5,0.1-0.7,0.2c16.4,3.1,33,4.6,49.4,7.9c6.8,1.1,13.5,2.2,20.3,3.3c2.5,0.2,4.6-2.1,6-3.8
	c-10.3-1.2-20.9-0.3-31.3-1.8C427.6,436.8,416.5,434.9,404.9,433.1 M384.3,443.3c-0.5-0.2-1-0.5-1.5-0.6c-0.4-0.1-0.8-0.2-1.1-0.2
	c8,7.9,18.8,12.1,26.6,20.1c1.1,1.8,10.5-0.2,11.8-1.4C408,455.4,396.3,449.7,384.3,443.3 M257.2,458.6c-0.1,3-3.3,9.4,0.2,10.9
	c0.7,0.2,2,0.6,2.1-0.9c0.4-3.2,0.8-6.3,1.1-9.5c1-3.6,0.7-16.9,3.4-18.2c1.5,0.5,0.4,2.7,0.5,3.9c-0.7,8.2-3.4,16.7-2.8,24.9
	c1.8-2.4,1-5.9,1.6-8.7c0.7-5.4,1.4-10.8,2.4-16.1c0.3-1.3-0.7-3.5,1.6-4c-1.2-0.8-3.1-0.5-4.6-0.7c-2.8-0.1-2.8-0.1-3.3,2.7
	C258.7,447.9,257.9,453.1,257.2,458.6 M181.7,399.6c-13.4-1.8-26.6-4.5-40-5.7c-1.6-0.1-3.3-0.4-4.3,1.1c13.5,2.5,27.6,4.1,41.3,6.1
	c7.2,0.4,20.3,4.6,26.3,1.8c-0.3-0.2-0.6-0.6-1-0.7C196.3,401.5,189.4,400.9,181.7,399.6 M267.5,371c-2.6-7.5-0.1-9.1-9.4-7.9
	c-1.8,0.1-2.1,0.6-1.4,2.3c1.2,2.9,2.3,5.8,3.5,8.7c1.9,3.2,4.6,14.1,7.4,15.1c-0.7-5.8-3.8-11.5-5.3-17.3c-0.5-2.5-2.9-5.9-1.7-8.3
	c2.4-0.6,2.1,3.4,2.8,4.8c2,4.5,4.1,19,7.8,20.4C271.5,382.9,268.5,377.3,267.5,371 M202,393.9c-10.1-3.4-20.4-6.1-30.7-8.8
	c-5.9-1.1-8.7-4.8-14.4-1c17.6,6,36.1,9.4,54.2,13.9C208.7,395.6,205.3,395.4,202,393.9 M402.2,444.3c10.1,4.1,20.2,8.4,30.2,12.7
	c2.7,0.9,8.1-0.9,10.6-2.1c-16.9-4.8-34.1-9.6-51-14.6C395.1,441.9,398.4,442.9,402.2,444.3 M213.1,438.9
	c-10,6.2-20.3,11.8-30.9,16.9c0,1,7.4,2.2,8.1,1.6c10.9-7.8,22.2-15.4,32.6-23.7C219.1,433.6,216.7,437.3,213.1,438.9 M297.8,456.4
	c-0.4-3.9-0.4-7.8-0.4-11.8c-0.2-2.4-3-1.3-4.6-1.4c-0.5,8.5,1,17.8,0.8,26.5c-0.1,1.4,1.1,2.7,2.5,2.7c0.4,0,0.9-0.1,1.3-0.3
	c1.6-1.1,0.2-3.4,0.4-5C297.8,463.7,297.8,460.2,297.8,456.4 M225.4,444.3c-5.1,6.1-10.8,11.6-16.2,17.4c-0.1,0.2,0,0.5,0.1,0.6
	c3.1,0.4,7.7,3.4,8.9-1.2c5-8.4,10.1-16.8,16.3-24.5C232,433.2,227.5,442.5,225.4,444.3 M365.6,442c-0.1,0.2-0.4,0.4-0.3,0.4
	c3,4,6,7.9,9.1,11.8c2.7,3.5,5.6,7,8.4,10.3c1.9,3.4,6,2.9,9,1.6c-7.9-7.2-15.8-14.8-22.5-23.2C368.4,441.5,367.4,441.1,365.6,442
	 M212.8,444.2c-6.7,5.2-13.7,9.9-20.9,14.2c2.3,0.8,5.5,2.1,7.8,1.1c8.3-6.5,15.8-14,23.4-21.4c1.4-1.1,2.7-2.7,4.5-3
	c-2.9-3-5.9,2.6-8.3,4.1C217.3,441,215.1,442.5,212.8,444.2 M220.9,390.1c-9.5-4.5-19.1-9-28.5-13.6c-3.1-1.7-6.8-1.8-10.1-0.4
	c0.8,1.5,2.6,1.1,4,1.8c5.2,2.1,10.4,4.3,15.6,6.5c8.9,3.2,17.6,9.2,26.9,10.6C226.5,392.9,223.6,391.9,220.9,390.1 M316.7,447.1
	c0-1.6-2.6-3.6-3-1.2c0.3,2.1,0.8,4.1,1.1,6.3c1,6,1.5,12.1,2.3,18.2c0.2,1.4,1.4,2.1,2.9,1.9c1.3-0.6,5.3,0.5,4.3-1.9
	C321.5,462.7,319.2,455.3,316.7,447.1 M207.6,391.8c-11.3-4.2-23.6-6.8-34.8-11.5c-1.9-1.4-7.1-0.4-7.9,1
	c10.6,2.5,21.2,5.6,31.6,8.8c5.4,0.8,21.1,9.9,24.5,6C216.5,394.8,212.3,393.5,207.6,391.8 M287.1,461.3c0,3,0,5.9,0,8.8
	c-0.1,2.8,3.3,1.4,4.9,1.6c-1.8-9-0.7-18.6-1.5-27.7c-0.1-0.6-0.4-1-0.9-1.3c-2.2-1-2.9-0.4-2.9,2
	C286.7,450.4,286.9,455.4,287.1,461.3 M349.7,452.5c-1.9-2.5-2.2-8.9-6.5-7.7c-1.7,0.7-0.4,1.5-0.1,2.2c3,7.4,6.1,14.7,9.4,22
	c0.3,0.6,1.6,1.1,2.5,1.3c0.9-0.1,3.5,0.3,3.3-1.2C354.9,463.9,352.6,458.4,349.7,452.5 M281,451c-0.3,6.4-0.8,12.7-1.1,19.1
	c0,0.4,0.5,1.2,0.8,1.3c1.2-0.1,3.8,1,4.1-0.7c-0.1-9.2-0.2-18.4-0.4-27.5c-0.1-0.6-0.7-1.1-1.3-1c-0.4,0-0.7,0.3-0.9,0.7
	C281.4,445.4,281.6,448.1,281,451 M339.2,445c-1,0.2-3-0.6-3.2,0.7c2.9,8.4,6.5,16.8,10.1,24.9c1.2-0.3,4.4,0.4,4.9-0.8
	C346.4,461.8,344,453,339.2,445 M299.8,455.2c0.1,4.8,0.2,9.5,0.4,14.2c0.1,2.4,1,3,3.6,2.9c2.5-0.1,1-1.7,0.9-2.5
	c-0.6-8.2-1.4-16.3-1.5-24.5c-0.1-1.6-0.9-2.1-3.9-1.8c-1,0.1,0.1,0.8,0.1,1.3C299.5,448.2,299.7,451.5,299.8,455.2 M264.3,258.7
	c-4.2-4.6-3.5-11.2,0.9-15.5c1.3-0.8,2-2.2,1.9-3.7c-8.1-0.7-11.8,13.8-6.6,20.4c2.4,3.1,5.8,6.1,10,5.4
	C270.9,261.5,266.8,260.7,264.3,258.7 M322.9,448.2c0.1-2.5-1.3-4.5-4.2-3.6c1,8.3,5.3,16.7,7.5,25c0.4,1.7,2.2,2.8,3.9,2.3
	c0.4-0.1,0.7-0.3,1-0.5C329.7,464,325.5,456.1,322.9,448.2 M230.7,451.3c2.8-4.6,4.7-10.3,8.4-14.3c-1.2-0.8-2.9-0.4-3.6,0.9
	c0,0-0.1,0.1-0.1,0.1c-5.4,8.1-10.7,16.4-15.7,24.8c-0.2,0.3-0.4,1.1-0.2,1.3c0.9,1,4.4,0.4,5-0.8
	C226.5,459.5,228.6,455.6,230.7,451.3 M398.4,463.9c-7.8-5.1-14.1-12.1-21-18.3c-2.2-2.2-4.4-7.1-8-4.1c4.3,2.6,7.2,7.2,10.9,10.5
	c4,4,8.3,7.7,11.8,12c2.3,2.6,5.1,2.2,7.6,1.2C399.3,464.8,398.9,464.4,398.4,463.9 M454,437.7c4.7,0.5,9.4,0.4,14.1,0.4
	c2.3,0.6,3.5,0.4,5-1.6c-18.1-2.3-37-1.4-55.3-3.2C429.2,436.7,441.7,435.9,454,437.7 M158.2,389.7c15.2,3,30.5,7.6,45.9,8.6
	c-11.1-2.6-22.3-5.1-33.4-7.8c-3.9-1-7.8-2.4-11.7-3.3c-3.3-1.3-5.5-2.6-9,0.2C152.6,388.8,155.2,388.9,158.2,389.7 M274.5,464
	c0.3,2.1-1.9,6.6,1.1,7.1c1.6,0.1,2.3-0.4,2.3-2.1c-0.1-5.9,0.3-11.9,1.1-17.7c0.3-2.7,0.5-5.4,0.8-8.1c0.2-1.6-1-1.5-2-1.6
	s-1.9,0-1.9,1.4C275.4,450,275.6,457,274.5,464 M449.3,420.2c6.7-0.4,13.3-1.1,20-2.1c-1-1.4-1.6-3-3.6-2.3
	c-4.1,0.6-8.3,1.3-12.5,1.9c-13.1,2.1-26.6,2.3-39.6,5.3C425.5,422.8,437.5,421.9,449.3,420.2 M209.8,379.7
	c-5.4-3.1-10.8-9.1-17.5-5.8c7.8,4.6,17.1,7.7,25,12.4c4,1.5,11.7,8.6,15.3,7.8C225.6,388.5,217.6,384.5,209.8,379.7 M355.3,443.5
	c4.5,7.3,8.8,14.8,13.3,22.1c0.9,1.4,1.3,3.9,4.1,3.3c1.1-0.4,2.5,0,3.5-1c-6.2-6.7-11.3-14.6-16.5-22.1
	C358.6,444.2,357.7,443,355.3,443.5 M206.1,456.7c-1,0.8-1.9,1.6-2.9,2.5c-0.6,0.5-1.4,1-2.1,1.5c2.3,0.2,4.7,2,6.8,0
	c7.1-8.7,15.4-16.5,22.1-25.4c-2-0.3-2.8,1.1-3.9,2.5C219.5,444.3,213.6,451.1,206.1,456.7 M142.4,392.2c13,0.6,25.9,3.5,38.7,5.6
	c5,0.5,10.2,2.3,15.1,1.5c-11.2-2.7-22.9-3.7-34.2-6.6C155.6,392,147.5,385.9,142.4,392.2 M363,446.9c4.6,6.5,9.4,12.8,13.9,19.4
	c1.3,2.8,3.8,1,6.2,0.9c-4.7-4.2-8.4-9.5-12.5-14.3c-2.2-2.6-4.1-5.4-5.9-8.3c-1-2.1-2.9-2.3-4.8-1.5
	C361.2,444.2,361.8,445.5,363,446.9 M390.9,455.2c5.1,3.1,9.8,12.1,16.4,8.5c-6.1-5.3-13.6-9-19.9-14c-3.7-2.1-8.8-9.7-12.4-10.1
	C379.1,445.8,385.5,449.8,390.9,455.2 M233.8,450.6c-3.1,4.2-4.9,9.3-7.8,13.7c-0.7,1.2,0,1.4,0.6,1.4c1.4,0,3.2,1.1,4.1-0.9
	c4.3-9,7.3-18.6,11.8-27.4c-1.3,0-2.5-0.2-2.9,1.4C237.6,442.6,235.7,446.4,233.8,450.6 M218.4,379.5c-2.1-1.5-4.2-3.1-6.4-4.4
	c-2.8-2.2-6.1-5.4-10.1-2.7c11.1,6.2,21.6,13.8,32.3,20.6c0.9,0.5,2,0.6,3,0.1C231,388.5,224.7,384.3,218.4,379.5 M247.9,467.9
	c1.2-5.5,2.2-11.1,3.2-16.7c0.1-3.6,2.6-8.8,1.1-12c-4.5,7.9-4.9,18.7-7.9,27.6C244.1,468.7,246.6,467.7,247.9,467.9 M243,384.5
	c-4.4-4.9-8.4-10.1-12-15.6c-1.4-2.5-4.6-1.5-6.7-0.6c7.4,7.1,14.3,14.7,21.5,22c0.8,0.6,1.6,1.9,2.8,1.3
	C247.2,389.1,244.8,387.2,243,384.5 M291.8,366.1c0.4,4.5,1.9,9,2.7,13.5c1,2.3,0.8,8.5,3,9.4c1.5-2.5-0.8-8-0.7-11.1
	c-1.1-3.6,0.7-15.9-3.7-16.1C290.1,360.9,291.3,364.1,291.8,366.1 M300,388.2c0.9,1,3.9,1.7,3.3-0.6c-0.6-5.8-1.4-11.7-1.5-17.6
	c0-2.7-1.6-3.5-3.1-4.7c-0.5-0.4-0.9-0.5-0.8,0.4C298.5,373.1,299.1,380.5,300,388.2 M218.2,370.1c3.2,3.8,7.8,6.5,11.4,9.9
	c4.1,2.8,11,12,15.3,12.2c-3.5-4.5-8-8.1-11.9-12.3c-3.3-3.3-6.7-6.5-9.8-9.9C221.5,368.3,219.6,368.1,218.2,370.1 M252.6,455.9
	c0.1,2-4.2,13.6-1,12.9c0.9-0.1,2,0.5,2.2-1.2c1-8.8,2.5-17.5,3.8-26.2c0.1-0.8,0.6-2.1-1-2.1c-1.3-0.1-1.6,0.7-1.7,1.9
	C254.5,446.3,253.4,450.7,252.6,455.9 M221.1,378.7c4.8,3.6,9.5,7.3,14.3,11c1.6,1,3.1,2.9,5.1,2.7c-4.8-5.4-11.3-9.4-16.6-14.4
	c-4.8-2.9-8-10-14.3-7.3c0.6,1.5,2.5,1.6,3.7,2.6C215.9,375,218.4,376.8,221.1,378.7 M310.2,452.1c0.6,6.3,0,13,1.2,19.1
	c0.9,0.9,4,2,3.8-0.5c-1-8.3-2.1-16.5-3.5-24.8c-0.1-0.6-0.8-1.1-1.2-1.7C309.1,446.7,310.3,449.1,310.2,452.1 M249.1,439.8
	c0.3-0.4,0.7-0.8,1.1-1.2c-1.2-0.5-2.5,0.1-3,1.2c-2.8,8.4-5,17.1-8.8,25.1c-0.3,0.6-0.4,1.9-0.1,2c1.6,0.6,3.9,1.6,4.3-1
	C244.3,456.9,246.4,448.8,249.1,439.8 M251.6,389.4c-5.1-7-9.9-14.2-14.8-21.3c-0.6-1.3-4.9-2.5-5-0.6c3.1,3.9,6.2,7.7,9.3,11.6
	c3.3,3.3,7.1,11.4,11.3,12.3C252.1,390.6,251.9,390,251.6,389.4 M198.2,384.8c-5.5-2.3-11.5-3.9-16.7-6.9c-2.7-1.5-5.9-0.7-8.4,0.6
	c13.1,4.8,26.9,8.5,40.2,13.1C208.6,388.5,203.4,387.2,198.2,384.8 M235.1,466.5c4.7-9,6.7-19.4,11.2-28.4
	c-3.5-2.3-6.5,12.4-8.3,14.9c-1.5,3.6-3.2,7.2-4.8,10.8C232.1,466.1,232.4,466.5,235.1,466.5 M289.4,365.7c-0.2-0.9-0.4-1.8-0.9-2.7
	c-0.3-0.5-1.2-0.6-1.8-1c-1.1,4.5,1.8,10.6,2.3,15.4c1.2,3.4,0.8,10.9,4.5,11.9C294.1,381.5,290.5,373.8,289.4,365.7 M426,405.1
	c1-0.4,2-0.7,3-1.1c0.2-0.1,0.4-0.5,0.5-0.7c-7.5,1-15.4,1.7-22.3,5.2c-2.4,1.4-5.3,2.1-7.8,3.3c-0.4,0.1-0.6,1-0.9,1.6
	c3,1.3,10.7-3.6,14.5-4.3C417.2,407.5,421.4,406.3,426,405.1 M306.3,389.1c1.5,0.5,2.3-0.1,2.3-1.6c0-4.8,0-9.6-0.1-14.5
	c-0.3-2.1-2.9-2.8-4.4-4c-0.3,4.3,0.8,8.6,1,12.9C305.7,384.3,304.6,387.4,306.3,389.1 M307.8,450.2c0.1-1.6,0.1-3.2-0.1-4.8
	c-0.1-0.6-1.2-1-1.8-1.6c-0.3,0.5-0.8,1-0.8,1.4c0.4,5.4,0.9,10.8,1.1,16.2c0.7,3.3-0.6,8.6,2.1,10.8c2.1-1.9,0-5,0.2-7.4
	C308.3,460.1,308.1,455.4,307.8,450.2 M310.5,376.9c0.7,2.7-1.8,12.8,2,12.5c1.5,0,1.5-1,1.4-2.1c-0.9-4.5,2.5-12.1-3.3-13.9
	C310.5,374.5,310.4,375.7,310.5,376.9 M387.7,371.1c0.9-1.8,3.3-3.6,3.4-5.5c-1.4-0.9-3.2-0.5-4.1,0.8c-2.3,3.8-5.3,7.4-7.1,11.5
	C382.3,377.5,386.4,373.7,387.7,371.1 M267,246c-5.6,6.9,2.1,14.6,2.5,9.4C268.7,252.3,269.4,248.6,267,246 M380.3,368.6
	c-0.9,1.9-1.8,3.7-2.5,5.6c-0.2,0.6,0.1,1.4,0.2,2.1c0.3-0.1,0.8,0,0.9-0.2c2-4.2,4.4-8.2,7.2-12
	C382.1,361.6,381.6,365.5,380.3,368.6 M377,371.4c0.6-3,2.9-6,3.1-9c-3.3-1.1-3.4,3.8-4.8,5.6s-0.5,3.3,0.9,4.7
	C376.4,372.4,376.6,372,377,371.4 M322.8,383.7c0.2,1.9-0.9,4.6,1.4,5.5c0.6,0.3,1.3,0.1,1.6-0.5c0.1-0.1,0.1-0.3,0.1-0.5
	c0.1-2.9,1.1-6-2.4-7.3C323.2,382.1,322.7,382.5,322.8,383.7 M331.8,388.9c0.5-3.3,0.3-3.7-2.1-4.8c-1.5-0.7-2.1-0.4-1.9,1.3
	C327.7,388.8,328.1,390.6,331.8,388.9 M398.1,410.3c2.6-1.1,5.2-2.1,7.8-3.3c0.2-0.1,0.4-0.4,0.6-0.6c-3.8-0.9-7.5,1.3-10.3,3.5
	C396.8,410.2,397.4,410.3,398.1,410.3 M390.4,370.7c-0.1,0.3-0.2,0.5-0.4,0.8c1.2,0.5,2.5-0.9,3.1-1.7c1-2.1,2.9-1.1,4.5-2.1
	C392.7,365.1,393,366.6,390.4,370.7 M374.2,365.3c0.4-0.9,0.8-1.8,1.1-2.8c0.1-0.5-0.3-1-0.5-1.5c-3,0.7-3.3,4.5-2,6.8
	C373.4,367,373.9,366.2,374.2,365.3 M340.6,388.9c-0.5-0.1-1-0.4-1.4-0.4c-0.5,0.2-1,0.5-1.5,0.9c1.5,1.8,3.7,1.4,5.7,1.2
	C342.6,390,341.6,389.4,340.6,388.9 M370.8,362.2c0.4-0.5,1.2-1.4,1-2.1C368.3,359.2,368,360.5,370.8,362.2 M393.8,408
	c0.5,0.2,1,0.6,1.5,0.5c0.7-0.3,1.4-0.6,2-1c-0.3-0.3-0.6-0.8-1-0.9C395,406.3,393.7,406.9,393.8,408 M210.5,399.8
	c-0.8-0.7-5.1-1.7-5.9-1.3c-0.1,0.1-0.2,0.1-0.2,0.2c0.2,0,0.3,0.1,0.5,0.1C206.5,400.1,208.4,400.1,210.5,399.8 M336.5,389.1
	c-0.3-1.1-0.8-2.6-2.2-1.8c-0.1,0.8-0.1,1.5,0,2.3C335,389.5,335.8,389.4,336.5,389.1 M396.3,430.8l0.5-0.1c-1-0.8-2-1.4-3.1-0.3
	C393.6,431.3,395.4,430.8,396.3,430.8 M211.8,397.9c-0.1,0-0.2-0.1-0.2-0.1C211.6,397.9,211.6,398,211.8,397.9"/>
<path d="M268.2,35.3c-4-6-16.3-30.8-7.6-35c12.5-3.2,23.5,25.7,26,35.4c1.9,4.8-0.8,12.3-7.1,10.1C274.2,44.1,271,39.7,268.2,35.3"
	/>
<path d="M292.4,67.3c-9.4,1.9-11.4-11-5-15.9C297.3,45.3,302.3,64.5,292.4,67.3"/>
<path d="M275.2,198.4c-0.6-5.1,18.3,1,6.5,9.6c-3.4,2.4,1.3,4,2.3,6.3c0.4,3.1-6.4-0.5-6.6-3.5c-0.5-1.6,0.5-3.7,2.3-5.1
	c3.4-2.1,3.5-6.1-1.8-6.1C276.9,199.4,276,199,275.2,198.4"/>
<path d="M354.7,72c11.8-7.7,25.7,4.8,19.6,17.4C361.9,109.7,336.1,87.1,354.7,72 M373.2,85.7c-0.1-0.1-0.3-0.2-0.4-0.3
	c-4.8,8.3-21,4.3-18.4-6.2c0.5-1.9,2.2-3.4,2.6-5.4c-5.3,1.1-7.4,10.6-5.3,15C356.4,98.4,371,95.6,373.2,85.7"/>
<path d="M382.5,70.4c-7.9-13.4,7.8-28.7,20.5-19.4C417.9,64.9,395.6,86.4,382.5,70.4 M389.1,52.8c0.1-0.2,0.1-0.3,0.2-0.5
	c-6.1,1.6-7.1,9.9-5.5,14.8c3.3,9.8,20.8,7.1,21.4-3.6C397.1,74,379.1,64.9,389.1,52.8"/>
<path d="M375.1,115.1c-2.7-0.5-1.6-3.3,0.5-3.4c6.9-0.5,12.7-3.4,17.9-7.8c4-3.5,7.2-7.8,9.5-12.6c0.6-1.3,1.5-2,2.7-1.4
	c0.9,0.4,1.3,1.5,0.8,2.4c-0.1,0.1-0.1,0.3-0.2,0.4C400.6,104.6,389.2,115.4,375.1,115.1"/>
<path d="M445,160c0.6-3.8-3.1-21.2,1.8-20.8c1.4,0.1,1.3,1,1.3,2c-1,10.2-0.1,20.2,3.8,29.7c0.5,2.8,3.9,6.4,2,9
	c-0.8,0.2-1.9,0.6-2.5-0.9C449.4,172.6,446.4,166.7,445,160"/>
<path d="M327,270.7c-6.1-7.7-6.6-19.9-1-28c3.8-4.6,10.4-2.8,15.4-1.6c4.4,1.4,7.3,4.7,9.5,8.6c3.9,5.4,9.6,31.7-3.8,26.1
	c-1.1-0.7-2.3-2.3-3.6-1c-7.5,5.9-7.4-5.1-11.6-2.4C330.3,273.3,328.4,272.2,327,270.7 M326.3,250.8c0,3.2-0.4,6.5,0.1,9.6
	c0.4,1.6,2.9,10.9,5.3,6.9c3.1-4.6,5.3,4,8.3,5.1c1.8-1.7,3.1-5.7,5.8-3c1.4,1.1,3.9,5.3,5.4,2.4c1.6-9.8-1.3-23.8-11.8-27.5
	C332.1,243.1,328.4,242.3,326.3,250.8"/>
<path d="M395.4,231.8c-3.8-4.3-2.4-10.8-5.4-15.4c-0.8,4.8,0.5,9.9,0.4,14.8c-1.6,8.9-7.6-2-9.7-4.8c-4.5,21.2-8.5,2.9-11-6.4
	c-0.8-2.9,2.4-3.6,3.4-0.8c1.2,3.7,1.5,7.8,3,11.4c1.8-2,1.2-5,1.7-7.5c0-3.5,2.8-4,4.5-1.1c1.8,2.3,2.4,5.5,4.7,7.4
	c1-3.6-0.6-7.4-0.7-11.1c-0.6-2.6,2.5-3,4.4-3.8c3.9-0.8,3.5,5,4.7,7.2c5.9-8.4,8.4,1.1,10.2,6.4c1.2,2.3-2.6,3.6-3.1,1.3
	c-1.1-2.5-1.3-5.6-3.3-7.7C397.1,224.6,400.3,231.8,395.4,231.8"/>
<path d="M361,221.6c2.3-1,3.1-0.5,3.4,1.6c0.6,5.3,1.3,10.7,1.9,16.1c1,10.3,2.3,20.4,3.8,30.7c1.1,10.5,3.1,20.8,5.3,31.1
	c0.1,1.4,0.8,4.1-1.1,4.4c-4-0.2-4.8-17.6-6-21.5C365.3,263.3,362.7,242.5,361,221.6"/>
<path d="M422.3,224.5c-1.2-2.3-1.3-10.1-4.5-9.1c-1.2,0.8-3.1,0.6-3.8-0.4c-0.1-0.7,0.5-2.5,1.5-2.7c2.9-1.1,3.1-1.4,2.1-4.2
	c-1.6-3.1,2.8-4.8,3.3-1.3c0.5,6.3,6.3-0.5,6.3,4.6c-1.2,2.1-5.1,1.8-3.6,5c0.2,2.5,4.1,8.4,1.8,9.9
	C424,227.1,422.9,226.1,422.3,224.5"/>
<path d="M407,226.4c-2.3-3.4-1.3-12.7,4.3-9.1c2.6,1.6,4.9,3.6,7.4,5.4c1,0.5,1.3,1.7,0.8,2.7c-0.1,0.1-0.1,0.2-0.2,0.3
	c-2.3,1.8-4.6-2.3-6.8-3C412.3,225.9,410.8,229.8,407,226.4"/>
<path d="M420,289.4c0,1.4,0,2.5-1.5,2.7c-2.8,0.4-2.7-4.7-3-6.6c0.1-3-3.6-0.1-4.2-2.6c-0.4-1.3,0.4-2.1,1.6-2.5
	c3.1-0.7-0.5-4.6,2.4-5.5c3.5-0.5,0.6,4.1,5.5,3.4c2,0.1,1.6,2.2,0.7,3C417.2,282.5,419.7,286.3,420,289.4"/>
<path d="M428.5,281.1c-0.2,0.9-0.5,1.8-0.8,2.6c-0.7,0.6-1.8,0.4-2.3-0.3c-0.2-0.2-0.3-0.5-0.3-0.7c-1.3-3.9,3.9-6.4,2.2-9.5
	c-0.8-1-2.2-1.4-3.3-0.8c-2.8,0.3-2-3.1,0-3.6C431.7,267.4,432.9,276.3,428.5,281.1"/>
<path d="M400.9,263.6c-0.6-3.6-6.2-12.5-2.6-14.8c2.2,0.4,2.2,3.8,3,5.5C401.6,256.9,406.4,265.3,400.9,263.6"/>
<path d="M404.2,241.5c0.1,2.6-0.1,2.9-2.6,3.4c-2.6,0.5-5.3,1-8,1.5c-1.5,0.3-3.2-1.1-2.6-2.3C393.3,241.8,400.9,240.6,404.2,241.5"
	/>
<path d="M407.2,284.2c0.6,3.3,4.3,8.6,1.8,11.3c-0.7,0.5-1.7,0.3-2.2-0.5c-0.1-0.2-0.2-0.3-0.2-0.5c-0.4-3.1-4.3-9.4-1.6-11.8
	C406.1,282.1,406.7,283.1,407.2,284.2"/>
<path d="M402,279.8c-8.3,1.1,1.8-7,4.8-5.7c-0.1,0.8,0,2-0.5,2.5C405,277.9,403.6,278.9,402,279.8"/>
<path d="M335.5,260.2c-1.8-0.3-5.2-2.2-2.3-3.4c3-0.3,5.9,0,8.9,0c1.3,0,2.3,0.2,2.3,1.8C344.1,261.7,337.9,259.8,335.5,260.2"/>
<path d="M334.8,252.6c-1.4,2.5-6.4,2.1-5.1-1.1c0.9-1.4,2.5-0.7,3.8-0.7C333.9,250.8,334.3,251.8,334.8,252.6"/>
<path d="M341.9,252.9c-2.8,2.5-7.7-0.9-3-2.7C341,249.6,342.5,250.9,341.9,252.9"/>
</svg>
