<svg xmlns="http://www.w3.org/2000/svg" width="111.859" height="574.532" viewBox="0 0 111.859 574.532">
  <g id="_모양_10_체크_아웃_AdobeCapture" data-name="&apos;모양 10&apos; 체크 아웃 #AdobeCapture" transform="translate(-33.187 0.915)">
    <path id="패스_29" data-name="패스 29" d="M36.574,0c1.115,8.218,1.911,16.468,2.612,24.749.191,2.007,2.484-.159,3.631.159,2.357-.127,2.453,1.784,1.433,3.217-1.5,1.879,1.656-1.379,2.293,1.583,1.943-1.051,2.293-2.484,4.045,0,.8,4.459-6.179,7.391-5.319,11.882a62.287,62.287,0,0,1,0,11.127c-.655,11.7-1.682,24.32-.956,36.182.287,9.524.064,6.4,7.931,10.034A1.882,1.882,0,0,1,53.3,101.45c-.987,3.249-4.555,1.051-6.753.637-2.771-1.051-1.879,3.918.35,3.918,1.656.446,4.045,1.465,3.695,3.5a3.176,3.176,0,0,1-3.6,1.624c-1.975-.446-2.07-.414-2.039,1.624.1,5.956.191,11.945.319,17.933.191,10.288.446,20.609.605,30.929-.223,2.357,3.153-1.911,4.587.605.956,3.95-6.179,5.67-4.555,10.129.669.1,1.242-.7,1.784-1.051,2.039-1.911,4.587,1.242,2.707,2.994-5.988,5.925-4.364,6.307-4.491,14.238.127,8.282.319,16.6.637,24.877.1,5.765.478,11.531.573,17.264a2.788,2.788,0,0,0,1.847,2.9c1.752.8,3.345,1.847,3.95,3.79-1.5,1.179-3.153.86-4.873.573-3.217.35,3.95,3.6,4.491,4.364,1.338,1.688.478,2.771-1.465,3.281-.828.159-2.835-.35-3.153.1a4.583,4.583,0,0,0,1.147,4.81c7.645,5.479,14.96,11.795,22.353,17.641a222.554,222.554,0,0,1,24.86,23.8c2.837,3.243,7.038,8.792,7.038,8.792s2.374,3.6,2.585,5.339a8.654,8.654,0,0,1-1.16,6.131,6.086,6.086,0,0,1-3.811,1.823c-10.83.478-17.846,1.264-28.644,1.965-1.465.127-1.784,1.21-1.465,3.153,2.453,11.69-8.345,21.15-20.067,16.245-6.944-2.166-12.008-8.887-11.212-16.308.064-.892-.1-1.306-1.147-1.21-9.428.86-18.971.764-28.431,1.21-4.045.159-4.925-.319-4.925-.319a8.738,8.738,0,0,1-3.818-2.66A8.941,8.941,0,0,1,.011,311c.282-5.817,5.793-13.43,8.488-16.931,10.7-15.339,22.45-27.466,32.61-41.194,2.612-3.122,1.74-3.083,1.612-7.032,0-2.389-.414-2.962-2.676-3.759-4.2-1.72-1.529-5.893,2.357-4.937-.637-1.911-3.854-3.122-2.2-5.415,3.631-1.561,1.179-7.74,1.561-10.862-.223-9.205-.382-18.411-.669-27.616-.51-3.408.733-8.186-1.115-11.053-2.262-1.752-1.816-2.9-.223-4.4,1.72-1.624.7-3.472,1.051-5.192-.828-.064-1.274.8-1.943,1.147-1.975,1.752-4.937-1.624-2.9-3.44,1.529-1.784,4.332-3.026,4.81-5.447.191-15.321-.35-30.642-.637-45.963-.064-2.739-.127-5.447-.35-8.154-.255-1.529-2.516-1.847-3.408-2.739-2.2-2.9,1.37-4.045,3.281-4.587a7.18,7.18,0,0,0-.733-4.65,3.652,3.652,0,0,1,0-2.262c1.051-1.943.446-3.95.541-5.956-.733-12.422.893-25.391.669-38.97-.509-2.063.79-8.3,0-10-.045-.12-2.474.213-2.793,0-6.243-2.389,4.259-4.917,2.124-8.676-2.644,2.58-10.925,2.465-7.9-.943,3.153-2.134,3.5-3.751,2.262-7.924C33.038,16.054,32.147,8.122,31.573.1c1.624-.1,3.281-.1,5-.1M58.807,331.266c6.593.382,9.142-11.339,5.574-14.971-.8.669-.7,1.561-.669,2.484-.032,2.739-1.688,6.275-5.224,6.753-3.313.287-6.339,4.013-9.428,1.083-3.631-2.548-2.644-6.084-3.472-9.683-4.65,7.963,5.288,15.48,13.219,14.334M84.372,297.15s-2.694-6.878-5.88-5.349c-3.695,2.2.876,6.112,2.741,8.2a2.964,2.964,0,0,0,2.324.714c1.593-.255,1.138-2.654,1.138-2.654m4.532-1.678c7.326,4.364,5.67-3.759.414-5.224-4.141-.924-3.026,3.79-.414,5.224M56.259,318.844a13.209,13.209,0,0,0,.764,1.083,6.366,6.366,0,0,0,.764.828c.8-1.242,1.816-4.2-.764-3.854-4.842-.35-8.441.7-5.224,6.052a9.743,9.743,0,0,0,.446-1.847c.064-2.262,1.465-3.153,4.013-2.262m-34.878-25c-.924,1.5-4.65,3.472-2.516,5.256a1.68,1.68,0,0,0,2.484-.541c.8-1.465,3.313-4.65.032-4.714" transform="matrix(1, 0.017, -0.017, 1, 39.063, -0.915)"/>
    <path id="패스_30" data-name="패스 30" d="M137.421,1431.435c5.733,1.083,12.1,1.274,15.926,6.37,2.166,2.994.605,6.116-2.676,7.039-14.27,3.09-29.209,3.536-43.733,2.9-7.8-.924-17.2-.478-23.093-6.5a4.388,4.388,0,0,1,1.306-6.785c4.842-2.293,10.257-2.676,15.512-3.281a1.574,1.574,0,0,0,.956-1.147c-.573-6.5-3.695-13.219-1.656-19.621a1.534,1.534,0,0,0-.51-1.274c-3.122-2.262-4.077-5.415-3.822-9.078a2.264,2.264,0,0,0-1.179-2.389c-8.823-6.211-1.879-18.474,6.848-20.258,1.21-.382,1.274-.669.541-1.656-3.249-3.344-.127-7.74,2.835-4.714,1.019,1.5,1.593,3.249,2.644,4.746,3.122-3.376,5.574-7.453,10-9.428,7.358-3.727,17.2.127,18.379,8.632.127,3.344,6.4.446,10.607,3.854,9.046,5.988,1.179,14.716,3.79,14.174,3.854-.159,3.6,4.555.191,5.064-7.9.223,1.784,5.192-9.492,11.945-1.338.8-2.134,1.242-1.975,3.217.255,6.084-.892,12.1-1.4,18.22m-36.376-48.511c-4.428,1.816-8.5,8.536-2.644,11.053,4.682,1.338,1.624,5.415,2.548,8.536,1.147,4.682,6.307,4.3,10.129,3.822,7.485-.1,15.194-.86,22.647-.159,4.4.987,9.842-2.962,7.517-7.613a4.564,4.564,0,0,1,1.051-5.287c7.167-6.976,2.2-12.391-6.753-11.467-3.536.191-4.81-2.867-4.873-5.925-1.274-8.122-12.1-6.5-15.321-1.656a63.919,63.919,0,0,1-4.842,5.319c-2.612,2.262-6.211,2.166-9.46,3.376m10.989,53.353c3.631-1.147,17.774,2.007,19.175-1.593.764-4.364,3.281-7.039-2.962-5.733-2.421.573-22.583-.8-20.832,2.039.828,3.536.127,5.7,4.619,5.287m9.556-20.067c3.695-.1,7.422-.191,11.148-.35a1.059,1.059,0,0,0,.828-.542,3,3,0,0,0-2.612-4.523c-7.613.255-15.225.669-22.838.956-3.472.1-4.364,1.147-3.536,4.427,1.624,1.879,13.346-.287,17.009.032m7.008,7.645c1.529-.191,4.173.1,4.842-1.593a1.21,1.21,0,0,0-1.5-1.274c-4.65.669-9.365.382-14.047.637-1.752.51-14.748-1.019-12.04,2.389,4.013,1.178,8.791-.382,13.028-.127,3.122-.127,6.243-.032,9.715-.032" transform="translate(-36.859 -874.377)"/>
    <path id="패스_31" data-name="패스 31" d="M175.119,1071.411c1.115-2.293,5.893-2.2,4.555.956-1.688,2.453-2.867,5.319-5.033,7.39-2.262,2.134-4.332-.637-3.313-2.835a43.546,43.546,0,0,1,3.79-5.51" transform="translate(-97.014 -691.536)"/>
    <path id="패스_32" data-name="패스 32" d="M262.156,1070.155c1.019,1.879,3.026,4.587.319,5.765-3.5,1.274-5.479-4.459-6.53-6.944a2.065,2.065,0,0,1,1.083-2.8c2.9-1.306,3.854,2.07,5.128,3.981" transform="translate(-154.747 -689.019)"/>
    <path id="패스_33" data-name="패스 33" d="M220.555,1089.187c-2.166-2.166-4.682-7.135-1.975-9.4a2.268,2.268,0,0,1,3.122,1.019c.86,2.261,4.2,10.32-1.147,8.377" transform="translate(-128.593 -697.879)"/>
    <path id="패스_34" data-name="패스 34" d="M221.705,1429.994c1.752,1.593,1.752,2.421-.35,4.587-1.816,1.21-4.682,4.969-6.88,2.676-2.166-2.8,4.364-7.39,7.23-7.263" transform="translate(-126.304 -918.709)"/>
    <path id="패스_35" data-name="패스 35" d="M232.344,1455.686c-3.886-1.433,2.134-6.53,3.44-4.236,1.019,2.612-1.338,3.5-3.44,4.236" transform="translate(-137.898 -932.933)"/>
  </g>
</svg>
