<svg xmlns="http://www.w3.org/2000/svg" xmlns:xlink="http://www.w3.org/1999/xlink" width="1920" height="2158" viewBox="0 0 1920 2158">
  <defs>
    <clipPath id="clip-path">
      <rect id="사각형_79" data-name="사각형 79" width="1920" height="2158" transform="translate(0 3239)" fill="#fff"/>
    </clipPath>
  </defs>
  <g id="그룹_95" data-name="그룹 95" transform="translate(0 -3239)">
    <g id="마스크_그룹_1" data-name="마스크 그룹 1" clip-path="url(#clip-path)">
      <g id="_모양_12_체크_아웃_AdobeCapture" data-name="&apos;모양 12&apos; 체크 아웃 #AdobeCapture" transform="translate(0 3406.246)">
        <path id="패스_49" data-name="패스 49" d="M1920,883.507c-5.479-5.37-11.288-10.74-16.329-16.767-8.219-9.973-16.109-20.274-24-30.575-8.877-11.288-17.644-22.575-26.521-33.863-8.657-11.068-17.534-22.027-26.192-32.986-8.877-11.288-17.534-22.685-26.411-33.973-8.548-10.959-17.315-21.7-25.863-32.658-8.986-11.4-17.863-22.794-26.74-34.411q-14.959-19.726-29.808-39.671c-9.534-12.6-18.849-25.425-28.384-38.027-10.959-14.575-22.137-28.822-33.315-43.288-12.384-16-24.658-32.219-37.151-48.11-8.877-11.068-18.3-21.589-27.068-32.658-12.822-16-27.4-30.795-36.274-49.534-7.89-16.658-14.685-33.753-21.7-50.849-7.123-17.644-13.918-35.507-20.822-53.26-.219-.548-1.1-1.205-.986-1.753.219-2.521.657-5.151.986-7.671,2.63.438,5.589.219,7.781,1.315a255.052,255.052,0,0,1,43.4,28.822c11.617,9.315,23.671,18.192,35.068,27.726,9.425,8,18.849,16.219,27.288,25.205,13.151,14.137,25.863,28.822,38.247,43.726,13.7,16.329,26.849,32.986,40,49.644,16,20.274,31.89,40.438,47.671,60.822,13.37,17.425,26.082,35.288,39.562,52.6,11.4,14.575,23.343,28.822,35.178,42.959,14.356,17.1,29.26,33.863,43.288,51.178,15.123,18.411,29.589,37.37,44.274,56.11a34.772,34.772,0,0,0,4.6,4.274,127.232,127.232,0,0,1,0,12.932,132.534,132.534,0,0,1-11.507-12.055c-14.356-18.3-28.384-36.932-43.069-55.014-13.918-17.1-28.6-33.753-42.849-50.74-12.274-14.575-24.658-29.041-36.384-44.055-16.877-21.7-32.986-44.055-49.644-65.863-12.384-16.219-25.315-32-37.918-47.89-10.082-12.6-19.945-25.425-30.247-37.808-12.055-14.685-24.438-29.041-36.822-43.4-1.315-1.425-3.945-1.973-6.137-2.3a101.3,101.3,0,0,0-10.082-1.205c-.986-.11-2.082-.329-3.068-.438.438,1.1.548,2.411,1.315,3.288,2.411,2.63,5.26,4.932,7.562,7.671,11.836,13.918,23.671,27.836,35.178,41.863q18.247,22.192,36.055,44.822,18.247,23.178,36.055,46.9c15.671,21.041,30.9,42.521,46.9,63.233,16.767,21.479,34.3,42.411,51.507,63.671,9.753,11.945,19.507,24,29.37,35.945,9.753,11.726,19.726,23.233,29.37,34.959,8,9.644,15.671,19.507,23.781,29.041,3.178,3.726,7.233,6.9,10.849,10.411,0,4.164,0,8.438-.219,12.932-.329.219-.877.219-.877,0-.438-.548-1.1-.548-1.425-.877l-43.068-51.616c-13.26-15.89-26.63-31.671-39.891-47.562-13.041-15.781-25.973-31.562-38.685-47.562-12.712-15.671-25.315-31.452-37.589-47.452-11.288-14.685-22.247-29.808-33.315-44.822-10.959-14.795-21.7-29.808-33.1-44.274-11.726-15.014-24.219-29.479-36.274-44.164-16.109-19.616-32-39.342-48.109-58.959-.986-1.205-3.4-2.849-4.274-2.411-4.822,2.3-8.658-.548-12.822-1.644a16.619,16.619,0,0,0-2.3-.329,12,12,0,0,0,.548,1.863c3.288,6.247,5.918,13.151,10.192,18.74,11.726,15.342,24.11,30.247,36.274,45.26,14.575,17.863,29.26,35.726,43.726,53.589,13.808,16.986,27.616,33.863,40.986,50.959,16.438,21.151,32.329,42.521,48.548,63.781q20.219,26.466,40.657,52.712c8.438,10.849,17.1,21.37,25.534,32.219,12.384,15.781,24.548,31.781,36.822,47.671,9.315,11.945,18.74,23.671,27.836,35.616,3.726,4.822,6.685,4.822,10.849.219,2.849-3.178,6.575-5.7,9.973-8.548,0,3.068,0,6.247-.219,9.644-4.274,1.1-10.521,7.781-10.63,11.4-.109.877.767,1.753,1.205,2.74a17.835,17.835,0,0,0,1.863-1.205c2.63-2.74,5.151-5.589,7.781-8.329,0,4.932,0,9.863-.219,15.123-1.973.438-3.616.767-5.26.986,1.315,1.534,2.521,3.178,3.945,4.712.219.219.986,0,1.534,0,0,6.356,0,12.822-.219,19.507-7.123,7.343-7.014,12.932.219,18.849v12.931m-26.849-53.479c1.315-2.63,2.411-5.26,3.836-7.671,2.082-3.617,1.205-6.575-1.315-9.534-5.589-6.685-11.288-13.151-16.658-19.945q-21.863-27.616-43.4-55.452c-14.9-19.178-29.7-38.466-44.6-57.644-13.151-17.1-26.63-33.863-39.781-50.959-12.932-16.658-25.534-33.644-38.356-50.3-9.315-12.164-18.74-24.11-28.384-35.945-8.219-10.3-16.767-20.493-25.1-30.685-9.205-11.288-18.411-22.685-27.507-34.082-8.877-11.288-17.425-22.795-26.521-33.863-2.849-3.616-6.466-8.767-10.082-9.1-11.4-1.205-16.986-8-21.589-16.986-.657-1.205-1.863-2.082-2.74-3.178a22.638,22.638,0,0,0-1.644,3.726c-1.534,6.356,2.411,10.082,6.356,14.356,8,9.1,15.343,18.849,23.014,28.164,7.233,8.986,14.795,17.534,22.027,26.521,8.986,11.4,17.753,22.9,26.74,34.411,9.315,11.945,18.849,23.89,28.164,36.055,9.425,12.384,18.63,25.1,27.945,37.589,9.753,13.041,19.288,26.082,29.151,38.9,9.863,13.151,20.055,25.973,30.137,39.014,8.219,10.63,16.329,21.37,24.548,32q14.795,18.9,29.7,37.589c8.658,10.959,17.534,21.918,26.192,32.986,8.877,11.288,17.644,22.575,26.411,33.973,5.918,7.562,11.616,15.233,17.534,22.9,1.205,1.534,2.521,3.178,3.836,4.712.548-1.973.986-3.945,1.534-5.918a3.843,3.843,0,0,1,.548-1.644m-325.479-481.1c-1.315-.767-2.74-1.315-4.055-2.192-2.959-2.082-5.041-1.1-7.233,1.425-2.849,3.068-5.808,6.027-8.877,8.767-2.3,2.192-4.384,4.493-3.288,7.89,1.1,3.945,2.411,7.781,3.836,11.616,4.055,11.4,8.329,22.794,12.6,34.192.329.986,1.534,1.863,2.411,2.74.658-.877,1.644-1.753,1.753-2.63.219-2.3-.329-4.932,3.4-4.822,3.178.11,6.137-.548,7.89,3.726,1.534,3.836,4.6,7.233,7.123,10.63.877,1.206,2.3,1.863,3.4,2.849-.11-1.753.219-3.616-.438-5.151-1.534-3.726-4.274-7.123-5.151-10.959a23.162,23.162,0,0,1,.548-11.288c.329-1.206,5.041-2.3,7.014-1.425,3.836,1.534,5.151,0,7.123-2.849a7.576,7.576,0,0,1,5.589-2.849c3.178.11,6.247,1.425,9.425,2.3,2.63.767,5.151,1.644,7.781,2.521-1.425-2.63-2.411-5.808-4.493-7.89-7.233-6.9-14.466-13.918-22.356-20.055-7.452-5.808-15.562-10.74-24-16.548M1898.63,834.411c-.877,2.74-1.973,5.37-2.63,8.11-.219.877.438,1.863.767,2.849.767-.548,1.973-.986,2.3-1.753,1.644-3.178,2.959-6.356,4.493-9.534a55.98,55.98,0,0,0,3.178-6.9c.329-.877-.657-2.192-1.1-3.288-.877.658-2.082.986-2.63,1.863-1.425,2.63-2.521,5.37-4.384,8.658m16.986,9.315c-1.315-2.411-2.521-4.822-3.945-7.123-.11-.329-1.205-.219-1.863-.219-.109,1.753-1.1,4.493-.219,5.26,1.205,1.315,1.863,5.808,6.027,2.082m-6.575,7.671c-1.206-1.315-2.521-2.521-3.726-3.836-.548,1.753-1.753,3.507-1.534,5.151.11,1.644,1.644,3.069,2.63,4.6a28.182,28.182,0,0,0,2.63-5.918"/>
        <path id="패스_50" data-name="패스 50" d="M0,717.479c2.959-6.137,6.247-11.726,8.658-17.753C16.548,680.548,24,661.151,31.89,641.863c5.151-12.6,10.74-25.1,16.438-37.479,3.068-6.685,8.11-11.178,15.781-12.274,1.753-.329,4.384-1.753,4.712-3.178,1.425-6.027,6.027-8,10.959-9.863,14.466-5.37,28.932-3.069,43.726-1.425,16.658,1.863,32.219,6.685,47.562,12.6A182.825,182.825,0,0,1,200,604.712c4.493,2.63,5.808,8.329,6.137,13.7.219,3.068.658,6.466,2.192,8.986,4.164,6.685,4.493,13.37,2.521,21.041-7.671,30.466-19.726,59.288-30.795,88.548-7.562,20.274-15.452,40.438-23.342,60.493-7.452,18.63-15.342,37.041-22.575,55.781-3.945,10.3-12.164,14.247-21.589,16.11-15.123,2.849-30.466,5.808-45.808,4.274-9.425-.986-18.74-3.945-27.945-6.575-11.4-3.288-22.575-7.123-33.863-10.63-1.315-.438-2.959-.11-4.6-.11a36.207,36.207,0,0,1,0-8.438,8.077,8.077,0,0,1,3.507-.329c14.9,4.6,29.589,9.644,44.6,13.808,8.767,2.3,17.863,4.493,26.74,4.384,11.507,0,23.123-1.973,34.411-4.164,5.37-1.1,12.712-3.507,14.9-7.562,5.37-10.3,8.548-21.918,12.384-33.1a2.917,2.917,0,0,0-.767-2.849c-4.055-1.973-8.329-3.616-12.6-5.37-19.726-7.671-39.342-16.109-59.4-23.014C43.4,782.575,21.7,778.411,0,775.233a61.608,61.608,0,0,1,.219-6.247c8.219.767,16.329,1.205,24.11,3.068,16.877,4.164,33.753,8.438,50.192,13.808,21.151,6.9,42.082,14.575,61.7,25.425,3.726,2.082,5.7,1.1,7.233-2.521,4.384-10.849,8.986-21.808,13.26-32.767,6.9-17.753,13.808-35.616,20.274-53.479,8.767-23.781,17.425-47.562,25.425-71.562,2.74-8.11,4.055-17.534-4.493-23.123-7.781-5.151-16.877-8.438-25.315-12.6-4.493-2.192-6.685-.877-8.438,3.836-3.507,9.315-8,18.192-11.836,27.4-6.685,16.219-13.37,32.438-19.726,48.767-5.918,15.342-11.507,30.685-16.986,46.137-4.493,12.712-8.329,25.753-12.6,38.575-1.315,3.726.438,5.151,3.616,6.247,10.411,4.055,20.822,8,31.014,12.384,1.753.767,2.521,3.507,3.726,5.37-2.192.219-4.493.986-6.356.438-26.959-9.534-53.7-19.288-80.548-28.932C36.822,769.1,18.63,766.356,0,765.37a41.2,41.2,0,0,1,.329-6.247,80.292,80.292,0,0,1,9.1.767c4.712.438,9.534.877,14.356,1.1,3.288.11,7.342,1.205,8.986-2.849,4.6-11.068,8.877-22.247,13.26-33.425q15.288-39.123,30.685-78.137c5.808-14.575,11.4-29.26,17.644-43.616,2.192-4.932-.767-5.151-3.616-5.151-6.027,0-12.164.986-18.192.877-11.288-.11-17.1,6.685-20.932,15.89Q41.1,640.055,30.685,665.644C23.342,684.055,16.219,702.685,8.658,721.1,6.247,726.9,2.959,732.384,0,737.973V717.479M185.205,611.4c3.4,1.973,6.795,3.945,10.192,5.808a26.79,26.79,0,0,0,2.63,1.1c.11-1.1.767-2.521.219-3.068-2.082-2.74-4.055-5.918-6.9-7.452a101.553,101.553,0,0,0-17.973-8.109c-12.932-4.274-25.863-8.219-39.014-11.726a121.5,121.5,0,0,0-23.342-4.274c-10.959-.877-22.027-.658-32.548,3.178-1.1.329-1.753,1.973-2.521,2.959,1.1.438,2.192,1.315,3.288,1.205,4.384-.11,8.877-1.205,13.26-.877a217.606,217.606,0,0,1,23.781,3.288c11.836,2.192,23.671,4.493,35.288,7.452,11.178,2.849,22.027,6.575,33.644,10.521"/>
        <path id="패스_51" data-name="패스 51" d="M1920,460.493a12.964,12.964,0,0,1-4.274-2.521q-20.712-20.384-41.1-41.1c-9.973-9.973-19.726-20.164-29.37-30.466-10.411-10.959-20.822-22.027-31.014-33.205-11.068-11.945-21.918-24.11-32.986-36.164-15.014-16.219-29.918-32.767-45.37-48.548q-40.438-41.1-81.644-81.644c-12.055-11.945-24.658-23.342-37.041-34.849-4.164-3.945-8.219-8-12.712-11.616-7.781-6.466-12.274-15.014-17.1-23.671-11.616-21.041-23.89-41.863-35.507-63.123-8.11-14.795-15.671-29.918-23.123-45.151-.877-1.863-.219-6.027,1.315-7.123,1.534-1.315,5.589-1.315,7.343-.11,17.205,11.178,34.082,22.795,51.068,34.3,10.959,7.342,22.247,14.356,33.1,22.027,14.575,10.192,30.247,19.507,43.068,31.671,27.068,25.534,52.493,52.6,78.575,79.123q20.055,20.384,39.891,40.986c10.63,10.959,21.26,21.808,31.671,32.877,14.247,15.014,28.384,30.137,42.192,45.479,12.164,13.479,23.89,27.288,35.726,41.1,8.986,10.63,17.863,21.479,27.069,32.219a127.232,127.232,0,0,1,0,12.932c-.877.11-1.534.11-1.754-.219-11.616-14.027-22.9-28.164-34.63-42.082q-21.37-25.151-43.4-49.973c-9.753-10.959-19.945-21.7-30.137-32.438-10.082-10.63-20.274-21.151-30.575-31.671q-36.986-37.644-73.973-75.068c-12.493-12.6-25.1-24.986-37.479-37.589-1.205-1.205-1.973-2.959-3.178-4.055-4.274-4.164-8.548-8.219-13.151-11.945-1.1-.986-3.4-.438-5.041-.658.219,1.534.438,2.959.657,4.384.329,1.644,1.534,3.726.986,4.932-2.74,6.027,1.205,8.767,4.822,12.493,25.206,25.863,49.973,51.945,74.959,77.918q18.082,18.9,36.384,37.589a31.072,31.072,0,0,1,2.63,2.74c18.082,19.836,35.836,40.11,54.356,59.507,23.342,24.548,47.452,48.329,71.123,72.548,4.6,4.6,8.329,10.082,12.822,14.794,4.712,5.041,9.863,9.644,14.795,14.356,0,4.164,0,8.438-.219,12.932-14.575-15.452-28.384-31.452-43.069-46.685-26.192-27.507-52.932-54.356-79.233-81.753-15.89-16.438-31.342-33.425-46.9-50.082-3.4-3.507-7.014-6.795-10.3-10.411-18.411-19.726-36.493-39.781-55.123-59.288-14.9-15.562-30.466-30.466-45.7-45.808-.986-.986-2.521-1.863-2.959-3.068-2.192-5.808-8.11-5.808-12.384-8.329-.438-.219-1.863.548-1.863.658,1.863,5.589,2.63,12.055,5.918,16.548,6.137,8.438,13.7,15.671,20.712,23.342,13.479,14.9,26.74,29.918,40.329,44.6,12.384,13.479,24.986,26.63,37.479,39.781.657.767,1.315,1.315,1.973,1.973,13.589,14.356,26.959,28.822,40.767,42.849,23.343,23.781,47.343,46.9,70.575,70.9,18.74,19.4,36.712,39.452,55.123,59.288,6.027,6.466,12.055,12.931,18.192,19.288,2.082,2.192,4.493,4.055,6.685,6.137,0,3.836,0,7.671-.219,11.836a24.713,24.713,0,0,1-6.027-4.493c-8-8.548-15.781-17.1-23.671-25.753-11.4-12.493-22.575-24.986-34.082-37.37-13.589-14.466-27.178-29.041-41.1-43.178-23.014-23.452-46.466-46.466-69.589-69.7-12.055-12.274-24.11-24.658-35.945-37.151-6.356-6.575-12.164-13.589-18.3-20.384-14.356-15.89-28.932-31.781-43.4-47.781-7.014-7.781-14.137-15.671-21.26-23.452-4.055-4.274-8.219-8.329-12.493-12.384-.877-.767-2.411-.877-3.616-1.315-.219,1.534-.548,3.068-.767,4.493-.219,1.863-.438,3.726-.548,5.589-.329,5.151-3.507,10.63,2.411,14.9a123.817,123.817,0,0,1,11.068,8.986c13.808,12.932,27.616,25.863,41.205,39.014,18.3,17.644,36.493,35.507,54.466,53.37,10.74,10.63,21.041,21.589,31.342,32.438,4.822,4.932,9.425,9.973,14.027,15.014,11.069,12.164,22.137,24.438,33.315,36.6,11.945,13.041,23.891,26.3,36.055,39.233q21.863,23.342,44.055,46.247c12.713,13.151,25.753,25.973,38.795,38.794,1.1,1.206,2.849,1.863,4.274,2.74v11.836M1637.26,91.945c-.877-4.055-.877-8,2.411-11.288a1.725,1.725,0,0,0-.438-1.315c-6.9-4.6-13.808-8.986-20.6-13.7-12.384-8.548-24.548-17.315-36.931-25.863-.219-.11-1.315.438-1.315.767-1.1,8.219-2.849,16.11-10.849,20.712-.986.548-1.425,3.507-.877,4.712,4.932,8.877,10.411,17.534,15.342,26.521,4.493,8.11,8.438,16.548,12.712,24.767a77.364,77.364,0,0,0,4.6,7.014c-.11-2.74.219-5.589-.329-8.219-1.644-7.671,2.192-14.137,8.986-13.589,5.918.548,4.164-3.178,4.274-6.027.109-6.685,2.849-8.986,9.315-7.123,4.493,1.205,8.986,2.959,13.479,4.493a2.389,2.389,0,0,0,.219-1.863"/>
        <path id="패스_52" data-name="패스 52" d="M473.375,480.219c1.356-7.342,1.773-14.575,3.65-21.26,2.19-7.671,8.446-11.288,15.641-12.384,9.072-1.425,18.248-2.521,27.425-3.4,10.115-.877,20.23-1.863,30.449-2.082,28.989-.658,58.082-1.1,87.07-1.1,12.3,0,24.5,1.205,36.705,2.082,13.869.986,27.633,2.082,41.5,3.288,8.968.877,17.936,3.288,26.8,2.959,6.987-.219,13.869-3.288,20.647-5.589,27.425-8.877,54.745-18.082,82.169-26.959,18.665-6.027,37.435-11.726,56.2-17.425,23.254-7.123,46.716-13.808,69.969-20.932,28.155-8.658,56.413-17.315,84.464-26.411,25.026-8,49.844-16.438,74.661-24.767,15.85-5.37,31.6-10.74,47.446-15.89,12.93-4.164,25.443-8.986,39.416-8.767,12.826.11,16.476,5.26,20.23,16.219,6.465,18.74,12.826,37.589,18.457,56.658,3.963,13.26,6.465,27.068,9.8,40.658,3.441,13.589,6.987,27.288,10.636,40.877,2.607,9.644,5.527,19.178,8.134,28.712,1.564,6.027,5.318,8.219,14.286,8.877,16.267,1.315,32.534,2.849,48.8,4.384,11.575,1.1,23.149,1.973,34.62,3.4,5.944.658,11.992,1.205,17.414,3.4,8.759,3.4,11.575,9.315,11.887,20.164.417,14.247-.1,28.6-.938,42.849-1.043,18.411-2.711,36.712-4.067,55.123-.73,10.3-1.46,20.6-2.085,30.9-.73,12.274-1.356,24.548-2.086,36.822-.73,11.836-1.356,23.562-2.085,35.288-1.043,18.192-1.668,36.383-3.233,54.575-1.147,12.6-3.545,25.1-5.005,37.7a23.589,23.589,0,0,0,1.043,8.877c6.257,21.479,12.93,42.959,19.291,64.438,8.864,30.137,17.831,60.164,26.486,90.411q8.916,31.4,17.31,63.123c6.882,25.534,13.452,51.069,20.229,76.6,6.778,25.425,14.077,50.63,20.647,75.945,6.986,26.411,13.243,53.041,20.021,79.562,4.692,18.192,9.8,36.274,14.7,54.356,6.256,23.123,12.409,46.137,18.665,69.151,3.963,14.575,8.342,28.932,12.3,43.4,4.38,15.671,8.446,31.452,12.722,47.123.938,3.4,2.085,6.795,3.128,10.082,3.024,8.877-.521,12.384-7.2,14.685-11.992,4.164-24.192,7.343-36.184,11.288-28.155,9.315-56.2,18.849-84.359,28.165-15.016,5.041-30.136,9.753-45.256,14.794-23.149,7.781-46.194,15.781-69.448,23.562-6.465,2.192-13.139,3.726-19.708,5.589-5.944,1.753-5.11,7.671-5.735,12.055-2.085,16.219-3.441,32.438-5.318,48.658-1.668,13.918-3.233,27.836-5.318,41.644-2.816,19.616-6.152,39.233-9.281,58.849-2.607,16.329-5.005,32.548-10.323,48.11-3.233,9.534-9.176,13.589-16.893,14.027-12.2.767-24.4.548-36.6.11-9.8-.219-19.6-1.315-29.406-2.082-14.7-1.1-29.406-2.082-44.109-3.288-7.2-.657-14.286-1.425-21.481-2.192-13.556-1.425-27.007-2.959-40.563-4.384-7.716-.767-15.433-1.425-23.045-2.192-12.826-1.425-25.652-2.959-38.478-4.384-8.238-.877-16.476-1.205-24.713-2.192-10.01-1.315-20.021-3.068-30.031-4.384-6.778-.877-13.66-1.315-20.542-2.192-13.347-1.753-26.695-3.726-40.042-5.479-6.778-.877-13.66-1.315-20.542-2.192-8.968-1.315-17.935-2.849-27.008-4.164-6.257-.986-12.617-1.534-18.874-2.411-11.262-1.753-22.524-3.836-33.785-5.37-8.342-1.205-16.893-2.74-25.235-1.973-7.716.658-15.329,3.945-22.941,6.247-18.874,5.808-38.411,10.506-57.389,15.876-16.684,4.6-31.3,8.076-48.087,12.021-9.176,2.082-14.193-1.53-16.487-12.708-3.128-14.794-7.653-28.121-10.364-43.025-.939-5.589-3.441-7.233-11.47-8.438-10.01-1.425-19.812-3.617-29.719-5.26-9.489-1.644-18.978-2.849-28.467-4.493-10.636-1.973-21.272-4.384-31.908-6.356-7.508-1.425-15.12-2.3-22.628-3.507-12.513-2.082-25.026-4.6-37.539-6.466-9.385-1.425-18.978-2.082-28.363-3.4-8.759-1.315-17.31-2.959-25.965-4.384-10.74-1.863-21.585-3.178-32.221-5.589-11.679-2.74-23.254-6.247-34.724-9.753-7.612-2.3-11.992-8.658-12.1-16.877,0-9.973-.417-20.055.1-30.137.417-7.562,1.877-15.123,3.128-22.685,1.877-10.411,4.067-20.822,6.152-31.233,2.086-10.849,4.38-21.589,6.152-32.438,1.773-10.082,2.607-20.384,4.38-30.466,2.815-16,6.257-32,9.072-48.11,1.251-7.014,1.356-14.247,2.294-21.37,2.19-16.219,4.588-32.329,6.987-48.548,1.773-11.836,3.65-23.562,5.527-35.4,1.356-8.548,2.92-16.986,4.067-25.534,1.043-7.123,1.356-14.466,2.19-21.589,1.668-12.384,3.545-24.767,5.109-37.151.938-7.014,1.356-14.027,2.19-21.041,1.251-10.192,2.815-20.384,4.067-30.575.834-6.795,1.356-13.589,2.19-20.384,1.668-12.384,3.65-24.767,5.109-37.151,1.043-8.438,1.46-16.986,2.19-25.425,1.356-15.452,2.815-30.9,4.171-46.356,1.043-11.507,1.668-22.9,3.233-34.3,1.981-14.685,4.9-29.26,7.2-43.945,1.251-8.657,2.19-17.315,3.128-26.082,1.147-11.4,1.981-22.795,3.128-34.192,1.46-13.918-3.754-26.3-7.3-39.014q-10.323-37.644-20.855-75.288-11.418-41.425-22.941-82.63c-6.465-22.9-12.722-45.918-19.917-68.6-8.446-26.411-17.727-52.6-26.695-78.794-1.981-6.027-4.484-11.945-6.465-17.973-1.773-5.151,1.251-10.521,6.778-12.6,30.866-11.726,61.731-23.343,92.6-35.068,10.428-3.945,20.855-8,31.178-12.055,4.692-1.863,6.778-4.932,7.3-10.849.939-12.055,3.441-24,5.214-36.055,1.147-8.11,2.19-16.219,3.65-24.548m904.282,322.959c-3.545-12.164-6.882-24.438-10.74-36.493q-20.646-64.11-41.4-128.329-16.267-50.959-32.326-102.027c-7.091-22.685-14.077-45.37-20.751-68.274-4.9-16.658-9.281-33.534-13.66-50.521-2.92-11.616-5.109-23.671-8.446-35.178-5.839-20.055-12.3-39.89-18.77-59.726-1.773-5.37-3.233-11.836-9.8-13.041-4.38-.658-9.281-1.1-13.452.11-11.575,3.068-22.941,6.9-34.411,10.63-27.842,9.1-55.683,18.411-83.525,27.507-30.449,9.973-61,19.945-91.554,29.589-30.97,9.644-62.044,18.959-93.014,28.493-24.088,7.342-48.071,14.575-72.159,22.137-19.083,6.027-38.269,12.164-57.247,18.63q-38.009,12.657-75.809,25.973c-53.911,18.849-107.717,38.027-161.524,57.1q-35.35,12.658-70.7,25.753c-27.946,10.521-55.788,21.479-83.734,32.11-15.224,5.808-30.449,11.945-45.881,17.315-4.484,1.534-4.38,3.507-3.128,7.233,5.839,16.986,11.679,33.973,17.31,51.069,5.005,15.233,9.8,30.466,14.39,45.808q13.3,44.877,26.173,89.973c6.674,23.562,13.035,47.342,19.6,70.9q10.48,37.479,20.96,74.74c7.3,26.192,14.39,52.493,21.794,78.685,8.238,29.26,16.684,58.521,25.026,87.781,8.029,28.493,15.954,56.986,23.983,85.479,6.257,21.918,12.409,43.836,18.77,65.753,7.2,24.767,14.807,49.534,21.794,74.3,5.839,20.493,11.262,41.206,16.788,61.808,4.171,15.562,8.551,31.014,12.409,46.575,4.8,18.959,9.176,38.137,13.66,57.1,3.441,14.575,6.674,29.26,10.636,43.616.938,3.507,3.754,6.466,6.152,9.205,2.711,3.068,6.361,5.151,8.551,8.329,1.46,2.082,2.086,6.027,1.251,8.219a4.563,4.563,0,0,1-7.3,1.644c-.626-.438-2.607-1.315-1.773,1.973,1.981,7.342,2.92,15.123,4.484,22.685,3.024,14.356,6.152,28.712,9.281,43.068,3.441,16.219,7.091,32.438,10.428,48.657,2.607,13.151,4.8,26.411,7.3,39.562,2.086,10.74,4.067,21.589,6.257,32.329,2.4,11.726,6.168,21.344,8.879,33.071,1.564,6.794,4.324,7.53,10.476,5.667,6.048-1.753,10.506-2.368,16.659-4.122,29.927-8.767,59.712-15.876,89.639-24.644,29.614-8.767,59.229-17.205,88.635-26.521,21.9-6.9,43.483-15.014,65.068-22.794,35.871-13.041,71.533-26.74,107.509-39.342,34.1-11.945,68.405-23.123,102.816-34.082,25.235-8.11,50.678-15.343,75.913-23.014,23.775-7.233,47.446-14.466,71.116-22.027,24.818-8,49.531-16.219,74.349-24.438,23.984-7.89,47.863-16,71.846-24l77.894-25.973q31.6-10.521,63.191-20.822c2.607-.877,4.693-1.753,3.65-5.37-4.067-15.233-8.029-30.466-12.2-45.7-7.195-26.521-14.6-53.151-21.794-79.781-8.759-32.548-17.31-65.1-26.069-97.644-7.3-26.849-14.807-53.479-21.9-80.329-9.176-35.288-17.935-70.685-27.216-105.973-7.716-29.37-15.746-58.521-23.983-87.671-7.821-27.945-16.059-55.781-24.3-83.617q-10.48-36-21.481-71.781c-4.8-15.452-9.7-30.794-14.6-47.342m-785.2,757.26c1.668.986,3.233,2.192,5.005,3.068,3.754,1.754,7.612,3.507,11.47,5.151.521.219,1.356-.11,1.981-.219-.417-.657-.626-1.534-1.251-1.863-7.4-4.932-14.807-9.863-22.315-14.685-.73-.548-2.086-.219-3.128-.329.417,1.205.521,2.849,1.251,3.616,1.981,1.753,4.275,3.178,6.987,5.26" transform="translate(13.848 -5.13)"/>
        <path id="패스_53" data-name="패스 53" d="M155.945,922.411C149.7,926.356,144,930.63,137.753,933.7c-4.384,2.082-9.425,2.849-14.356,3.507-1.534.219-4.493-1.315-4.932-2.74a7.442,7.442,0,0,1,1.1-6.247A85.288,85.288,0,0,1,131.4,917.37c8.329-6.137,16.877-12.055,25.534-17.753,2.411-1.644,5.7-2.3,8.658-2.521,2.082-.219,5.7.767,6.137,2.082.877,2.192.767,6.027-.767,7.781-4.493,5.37-9.753,10.082-15.014,15.452m-24.438,3.507c1.644.219,3.726,1.205,4.712.548,7.233-4.6,14.356-9.425,21.151-14.575,1.973-1.425,3.068-3.945,4.493-6.027-2.74,1.1-5.808,1.753-8.11,3.4-7.342,5.151-14.466,10.74-22.247,16.658"/>
        <path id="패스_54" data-name="패스 54" d="M1803.507,1199.123c3.4-4.493,6.137-9.1,9.753-12.712,2.082-2.082,5.808-3.068,8.877-3.178,1.534-.109,3.945,2.521,4.493,4.274.548,1.973-.11,4.6-.986,6.575-5.589,12.712-9.863,26.3-21.041,35.616a33.78,33.78,0,0,1-8.329,5.041c-3.836,1.534-8.438-1.425-7.562-5.37a78.972,78.972,0,0,1,6.137-16c2.411-4.822,5.589-9.315,8.657-14.247m12.384.767a21.884,21.884,0,0,0,1.1-2.3c.219-1.315.109-2.74.219-4.055-1.205.658-2.74.986-3.4,2.082-1.753,2.411-3.178,5.151-4.712,7.781-3.616,6.247-7.343,12.384-10.849,18.63-.548.986-.219,2.411-.438,3.616a29.312,29.312,0,0,0,3.726-1.644,4.58,4.58,0,0,0,1.205-1.644c4.384-7.123,8.767-14.247,13.151-22.466"/>
        <path id="패스_55" data-name="패스 55" d="M1704.438,327.89c12.822,8.329,19.178,19.726,19.288,34.63,0,1.753-1.425,4.384-2.959,5.041s-4.6.329-5.7-.877a39.112,39.112,0,0,1-7.781-9.753c-4.274-7.781-8.877-15.233-9.863-24.329-.548-6.027,2.082-6.575,7.014-4.712m9.534,22.685c-1.425-2.849-2.74-5.7-4.274-8.548-.219-.438-1.205-.548-1.753-.767-.219.548-.657,1.1-.548,1.425l5.589,10.192a3.02,3.02,0,0,0,.986-2.3"/>
        <path id="패스_56" data-name="패스 56" d="M111.781,956.055c1.205,4.712-1.315,8.329-6.795,8.657-10.411.548-20.6-.657-29.151-7.123-1.973-1.425-2.63-4.712-3.288-7.233-.219-.767,1.534-2.849,2.521-2.959,9.1-1.315,18.3-2.63,27.068,1.1,3.507,1.534,6.466,4.6,9.644,7.562m-15.89-2.192c-2.74.11-5.37.329-8.11.438,2.192.986,4.493,1.863,6.685,2.849a.659.659,0,0,0,.438.11c2.3-.11,4.493-.219,6.685-.329a26.636,26.636,0,0,0-5.7-3.068"/>
        <path id="패스_57" data-name="패스 57" d="M1739.507,411.178c3.945,2.411,6.356,5.479,4.712,9.863-1.425,3.4-7.233,4.164-12.6,1.973-7.562-3.178-14.466-7.342-18.849-14.575-.877-1.425-1.315-4.493-.548-5.26,1.205-1.205,4.164-2.082,5.7-1.534,7.233,2.849,14.137,6.137,21.589,9.534"/>
        <path id="패스_58" data-name="패스 58" d="M1918.685,794.959a1.97,1.97,0,0,1-.438.986,1.97,1.97,0,0,1,.438-.986"/>
        <path id="패스_59" data-name="패스 59" d="M112.658,840.219c.548,2.082.877,3.945,1.205,5.808-2.192-.11-4.493.329-6.575-.329-8.658-2.63-17.205-5.918-26.082-8.219-16.11-4.274-32.438-7.89-48.658-11.836a113.182,113.182,0,0,1-13.37-4.6c-.877-.329-1.753-2.63-1.425-3.507a3.837,3.837,0,0,1,3.4-1.644c8.548,1.315,17.205,2.3,25.534,4.384,18.521,4.712,36.932,10.082,55.452,15.342,3.507.986,6.795,2.849,10.521,4.6"/>
        <path id="패스_61" data-name="패스 61" d="M869.041,1696.877c-5.918,6.247-13.37,7.014-21.041,6.356-2.192-.109-4.274-2.52-6.356-3.836,1.315-1.644,2.411-3.616,4.055-4.822,6.9-4.822,14.466-3.617,22.027-1.644.658.219.877,2.192,1.315,3.945"/>
        <path id="패스_62" data-name="패스 62" d="M820.055,1671.452c-.329-2.192-.986-4.932,0-5.7,1.534-1.315,4.6-2.3,6.247-1.534,5.37,2.3,11.288,4.274,14.137,10.192.767,1.644.767,3.726,1.205,5.479a18.915,18.915,0,0,1-4.164.548c-7.014-.548-11.945-4.932-17.425-8.986"/>
        <g id="그룹_51" data-name="그룹 51" transform="translate(-69.106 -334.954)">
          <path id="패스_60" data-name="패스 60" d="M745.154,1469.3c-9.175,3.221-18.448,5.563-26.549,9.956-14.251,7.613-25.768,18.35-30.258,34.748-2.538,9.37-3.709,18.838-1.854,28.7,1.854,10.249,2.635,20.693,4,31.039,1.269,8.882,3.123,17.764,3.807,26.744.586,8.785-3.123,16.691-7.418,24.206-2.245,3.9-4.685,7.808-7.125,11.615a9.989,9.989,0,0,1-2.928,3.123c-.878.586-2.343.39-3.514.586a12.093,12.093,0,0,1,.586-2.831c2.831-5.076,5.759-10.054,8.687-15.031,5.368-9.273,8.3-18.74,6.149-29.868-2.635-13.079-4.2-26.354-5.954-39.531-.976-7.321-2.147-14.739-1.952-22.059.586-19.229,7.906-35.139,23.328-47.437a93.59,93.59,0,0,1,40.019-18.643c13.47-2.831,26.744-.879,38.262,6.735,9.175,6.149,14.543,15.715,17.276,26.256a164.233,164.233,0,0,1,3.9,22.84c1.074,10.249,1.366,20.595,2.05,30.844.586,8.492,2.05,17.081,1.757,25.573-.293,8.687,7.028,11.518,14.251,8.687,9.37-3.709,15.324-11.127,20.985-18.838,6.832-9.175,13.47-18.448,22.938-24.987,4.2-2.831,8.2-6.637,14.055-6.052,4.295.293,6.247,2.733,4.49,6.832-2.44,5.368-5.368,10.541-8.2,15.617-7.809,13.958-11.713,29.184-14.641,44.7-2.05,10.834-4.685,21.473-6.735,32.308-.878,4.295-.586,8.882-1.171,13.274-.2,1.855-1.367,5.076-2.245,5.076-3.9.2-2.733-3.319-2.44-5.271,1.757-12.689,3.221-25.475,5.954-38.067a362.322,362.322,0,0,1,10.737-40.409c2.831-8.1,8-15.52,11.908-23.328a37.931,37.931,0,0,0,2.245-6.637,41.272,41.272,0,0,0-5.661,2.44c-10.639,5.954-18.35,15.031-25.378,24.792-6.052,8.492-12.689,16.691-22.254,21.766-4.49,2.342-9.077,3.611-14.153,1.659-7.809-2.733-9.077-4.49-9.37-12.4-.488-10.932-1.366-21.864-1.952-32.893-.391-6.344-.2-12.786-1.074-19.033-1.855-14.348-2.538-28.989-11.42-41.678a34.248,34.248,0,0,0-24.89-15.031c-5.856-.683-11.81-.1-18.252-.1"/>
          <path id="패스_63" data-name="패스 63" d="M790.865,1538.607c5.271-3.514,9.663-2.245,11.42,3.124,1.659,5.075,5.954,9.273,4.392,15.227-.2.878.293,2.147-.1,2.831-.976,1.562-2.245,2.928-3.319,4.392-.488-1.562-1.659-3.221-1.367-4.588,1.367-6.247-1.952-11.225-4.2-16.3-.488-1.171-3.612-1.562-5.564-1.464-3.221.2-2.928-.976-1.269-3.221" transform="translate(-12.72 -8.01)"/>
          <path id="패스_64" data-name="패스 64" d="M766.107,1532.445c-4.1,2.343-7.809,4.685-11.713,6.637-.976.39-2.44-.2-3.709-.39.586-1.171.976-2.831,1.952-3.416,4.88-3.318,9.956-6.344,14.934-9.468a6.071,6.071,0,0,1,2.538-.879,8.332,8.332,0,0,1,3.026.586c-.39.976-.488,2.245-1.171,2.831-1.757,1.464-3.709,2.538-5.856,4.1" transform="translate(-8.46 -6.728)"/>
          <path id="패스_65" data-name="패스 65" d="M793.138,1512.157c3.026-2.44,5.856-4.685,8.687-6.832.488-.293,1.464-.976,1.659-.781a2.711,2.711,0,0,1,.976,1.952c-.1,1.171-.2,2.635-.976,3.416-4.1,4.1-8.492,7.809-14.641,8.3a3.439,3.439,0,0,1-.683-2.05c1.464-1.367,3.123-2.538,4.978-4" transform="translate(-12.553 -4.497)"/>
        </g>
      </g>
    </g>
    <g id="_모양_13_체크_아웃_AdobeCapture" data-name="&apos;모양 13&apos; 체크 아웃 #AdobeCapture" transform="translate(706.625 4477.435)">
      <path id="패스_66" data-name="패스 66" d="M18.21,89c.765,1.785-.289,2.771-1.717,2.7a18.239,18.239,0,0,1-2.516-.34c-.9-.153-1.394.17-2.074,1.207-.731,1.1-1.6,2.108-2.4,3.178a1.775,1.775,0,0,1-2.125.646,2.184,2.184,0,0,1-1.394-2.006c-.119-1.377-.187-2.754-.17-4.113a1.066,1.066,0,0,0-.884-1.1A23.194,23.194,0,0,1,1.705,88.1c-.629-.306-1.394-.867-1.326-1.751a2.911,2.911,0,0,1,1.53-2.108,26.548,26.548,0,0,0,3.06-1.921c.374-.323.289-1.224.306-1.87a18.117,18.117,0,0,1-.119-2.329A4.153,4.153,0,0,0,3.728,74.6c-.68-.748-.816-1.5-.34-1.972a1.181,1.181,0,0,1,1.921.153q2.218,2.907,4.47,5.83a1.718,1.718,0,0,0,2.261.17c.986-.561,2.023-1.02,3.026-1.513a4.157,4.157,0,0,1,2.261-.527c1,.068,2.057,1.411,1.7,2.329-.459,1.173-.918,2.346-1.445,3.484-.374.782-.867,1.53-1.258,2.295-.272.51-.527.952,0,1.53A24.018,24.018,0,0,1,18.21,89M5.462,86.875h.153a.3.3,0,0,1-.153-.17c.119-.595.238-1.173.34-1.768a2.556,2.556,0,0,0-.051-.493,3.318,3.318,0,0,1-.289.391c-.1.085-.187.2-.306.238-.765.306-1.513.578-2.278.867a1.436,1.436,0,0,0-.306.255c.136.085.255.221.408.238.816.136,1.649.238,2.482.442m7.309-1.02c-.629-.765-1.224-1.53-1.887-2.261a3.589,3.589,0,0,0-1.258-1.02c-.442-.153-1.853,1.19-1.9,1.7-.034.255.085.51.068.765-.051,1.19-.238,2.431,1.428,2.7.051,0,.068.085.119.119,1.649.935,3.314.034,3.433-2.006m.935-2.465c.306-.2.731-.323.918-.612.612-.969,1.156-1.989,1.717-3.009a4.334,4.334,0,0,0,.221-.493,1.94,1.94,0,0,0-.629.017c-1.19.544-2.363,1.1-3.552,1.666-.374.187-.357.221-.085.561.459.578.884,1.19,1.411,1.87M7.841,92.654c.017.459.017.935.068,1.411a.858.858,0,0,0,.17.357,2.19,2.19,0,0,0,.272-.289c.17-.306.306-.663.51-.969a16.8,16.8,0,0,0,1.156-1.785c.136-.306-.017-1.037-.221-1.122A3.718,3.718,0,0,0,8.062,90.1c-.119.017-.187.731-.221,1.139s0,.816,0,1.411m-.51-12.578c.051.051.153.1.153.17.051.255-.153.714.408.578a2.132,2.132,0,0,0,.629-.357c-.153-.221-.323-.476-.476-.7a3.565,3.565,0,0,1-.374-.51,7.382,7.382,0,0,1-.272-.8c-.085.034-.272.068-.272.119a6.157,6.157,0,0,0,.034.969c.017.119.1.238.17.527M14.3,88.745c.085.136.119.34.238.391.357.136.714.221,1.088.323a10.016,10.016,0,0,0-.408-.986,2.919,2.919,0,0,0-.527-.493,2.846,2.846,0,0,0-.391.765" transform="translate(0 -59.681)"/>
      <path id="패스_67" data-name="패스 67" d="M759.189,525.443c-1.479,1.071-2.941,2.074-4.368,3.111-1.445,1.037-2.856,2.108-4.283,3.161-1.462,1.088-2.94,2.159-4.419,3.229-1.581,1.156-3.179,2.295-4.793,3.433a9.981,9.981,0,0,1-1.037.544.75.75,0,0,1-1.071-.306,1.3,1.3,0,0,1,.17-1.122,35.835,35.835,0,0,1,3.263-2.958c2.108-1.632,4.283-3.179,6.425-4.759,1.683-1.207,3.348-2.414,5.031-3.6,1.87-1.326,3.722-2.669,5.592-3.943,1.785-1.224,3.62-2.363,5.422-3.552,1.972-1.326,3.909-2.72,5.9-4.011,1.411-.935,2.89-1.768,4.334-2.669,2.7-1.666,5.405-3.365,8.108-5.048,1.36-.833,2.7-1.683,4.062-2.516.595-.357,1.241-.663,1.836-1.054a3.512,3.512,0,0,1,2.176-.51c.544.017.969.051,1.037.765a.952.952,0,0,1-.629,1.139c-.918.425-1.853.867-2.737,1.377-1.428.816-2.822,1.666-4.232,2.516-2.873,1.751-5.745,3.484-8.6,5.269-1.394.884-2.7,1.921-4.079,2.822-2.38,1.564-4.793,3.076-7.173,4.64-1.343.884-2.618,1.836-3.943,2.737-.629.442-1.292.85-1.989,1.309" transform="translate(-612.211 -416.459)"/>
      <path id="패스_68" data-name="패스 68" d="M749.708,505.593c-.816.544-1.615,1.037-2.38,1.547-.85.561-1.7,1.122-2.533,1.683-1.785,1.156-3.586,2.278-5.337,3.467-2.652,1.819-5.269,3.671-7.9,5.507-2.448,1.717-4.929,3.4-7.36,5.167-2.176,1.6-4.3,3.3-6.459,4.912q-1.683,1.249-3.416,2.4c-.442.289-1.037.459-1.428-.085a.991.991,0,0,1,.187-1.394c.935-.816,1.836-1.683,2.8-2.431,2.4-1.887,4.81-3.79,7.275-5.575,2.89-2.091,5.864-4.062,8.788-6.085,2.635-1.836,5.252-3.705,7.9-5.524,1.088-.731,2.278-1.343,3.4-2.057,1.5-.952,2.958-1.972,4.47-2.924,1.734-1.1,3.5-2.176,5.269-3.246,1.632-.969,3.3-1.9,4.929-2.89,1.224-.731,2.4-1.564,3.654-2.261a8.827,8.827,0,0,1,2.159-.765,2.588,2.588,0,0,1,1.071.255c-.153.476-.136,1.156-.459,1.377-1.411,1-2.907,1.853-4.385,2.754-1.887,1.173-3.79,2.329-5.694,3.484-1.411.884-2.822,1.768-4.249,2.635-.068.051-.17.017-.306.051" transform="translate(-590.236 -409.951)"/>
      <path id="패스_69" data-name="패스 69" d="M480.013,203.773c.527.867,1.071,1.666,1.479,2.516a30.738,30.738,0,0,1,1.309,3.2,1.327,1.327,0,0,1-.442,1.683,1.6,1.6,0,0,1-1.309.051,1.22,1.22,0,0,0-1.683.221c-1.6,1.462-3.314,2.788-4.98,4.164-.935.782-1.921,1.547-2.839,2.346a1.311,1.311,0,0,1-1.785.017c-.391-.255-.272-1.394.221-1.836.8-.731,1.666-1.411,2.516-2.108.187-.17.391-.306.561-.493.408-.425.969-.833.408-1.513a1.254,1.254,0,0,0-1.989-.306,4.3,4.3,0,0,1-5.8-1c-.731-1.037-1.53-2.023-2.329-3.026a1.385,1.385,0,0,1,.136-1.717c.986-.85,2.023-1.666,3.043-2.482.68-.544,1.36-1.071,2.04-1.6a2.184,2.184,0,0,1,2.176-.595c.289.119.714.527.68.765a1.928,1.928,0,0,1-.612,1.224c-1.19,1.037-2.448,1.972-3.705,2.941a1.233,1.233,0,0,0-.238,1.921c.51.68.765,1.683,1.836,1.632a4.162,4.162,0,0,0,2.057-.459,14.12,14.12,0,0,0,1.989-1.921,11.4,11.4,0,0,1,1.683-1.479,1.657,1.657,0,0,1,1.241.034c.17.068.272.629.187.918a5.667,5.667,0,0,1-.7,1.649c-.442.7-.408,1.1.374,1.819a.962.962,0,0,0,1.513-.1c.459-.459.986-.867,1.479-1.326.595-.544.527-2.006-.051-2.941-1.088-1.785-2.142-3.586-3.178-5.388-.459-.8-.34-1.292.408-1.734a.968.968,0,0,1,1.428.374c.969,1.5,1.9,3.009,2.873,4.555" transform="translate(-383.598 -164.422)"/>
      <path id="패스_70" data-name="패스 70" d="M971.292,341.172a9.512,9.512,0,0,1-2.6,2.55,4.9,4.9,0,0,1-3.943.051,7.493,7.493,0,0,1-4.045-5.558,20.806,20.806,0,0,1-.136-5.728,13.42,13.42,0,0,1,.884-3.28,1.766,1.766,0,0,1,.8-.816,6.42,6.42,0,0,1,6.68.068,9.687,9.687,0,0,1,2.176,2.431,1.417,1.417,0,0,0,1.377.765,6.8,6.8,0,0,1,1.02,0c.493,0,1.054-.119,1.19.578a1.388,1.388,0,0,1-.935,1.8c-.51.17-1.19.085-1.343.833-.034.238-.068.578.051.714a1.31,1.31,0,0,0,.8.289,6.42,6.42,0,0,0,.952-.136c.68-.068,1.241.187,1.292.884a1.279,1.279,0,0,1-.969,1.5,4.959,4.959,0,0,1-.833.2c-1.717.136-1.9,1.6-2.414,2.856m-6.884-11.048a1.453,1.453,0,0,0-1.1,1.19c-.068.476-.119.969-.187,1.445a12.167,12.167,0,0,0,.221,5.643,14.245,14.245,0,0,0,1.428,2.295,1.982,1.982,0,0,0,2.125.969,2.336,2.336,0,0,0,1.955-1.377,4.349,4.349,0,0,0,.17-.816,4.891,4.891,0,0,0-.867.17c-.527.221-1.139.323-1.462-.17a2.063,2.063,0,0,1-.272-1.462c.051-.238.612-.425.969-.578.493-.2.986-.34,1.5-.51.8-.289,1.224-.884.833-1.377-.2-.272-.867-.272-1.309-.221-.646.051-1.292.289-1.938.391-.765.136-1.02-.391-1.122-1-.1-.7.085-1.258.935-1.377a9.894,9.894,0,0,0,1.717-.34.973.973,0,0,0,.578-1.513c-.833-.867-1.7-1.649-3.06-1.377a5.7,5.7,0,0,1-1.1.017" transform="translate(-795.878 -271.21)"/>
      <path id="패스_71" data-name="패스 71" d="M148.214,185.676a12.863,12.863,0,0,1,1.921-1.122,5.855,5.855,0,0,1,3.688-.306A4.486,4.486,0,0,1,156.8,190.1a19.235,19.235,0,0,1-.51,2.006c-.476.986-1.1,1.921-1.666,2.873a1.723,1.723,0,0,1-1.819.952.9.9,0,0,1-.646-.527,2.339,2.339,0,0,1,.51-1.9,8.624,8.624,0,0,0,1.836-5.014,1.691,1.691,0,0,0-1.819-1.8,5.588,5.588,0,0,0-3.382,1.054,13.739,13.739,0,0,1-1.9,1.139,1.851,1.851,0,0,1-1.445,0,1.694,1.694,0,0,1-.612-1.921c.51-1.989,1.207-3.926,1.632-5.949a7.458,7.458,0,0,0-.85-5.133,2.972,2.972,0,0,0-3.043-1.394,7.7,7.7,0,0,0-3.212,2.363,18.242,18.242,0,0,0-2.38,5.32c-.2.612-.493,1.309-1.343.935a1.24,1.24,0,0,1-.646-.918,9.181,9.181,0,0,1,.34-3.145,11.7,11.7,0,0,1,4.487-5.915,5.472,5.472,0,0,1,4.521-1.071,6.18,6.18,0,0,1,4.232,4.708,13.584,13.584,0,0,1,.459,2.091,28.365,28.365,0,0,1-.561,3.926,28,28,0,0,1-.816,2.856.689.689,0,0,0-.051.2l.1-.153" transform="translate(-112.157 -142.216)"/>
      <path id="패스_72" data-name="패스 72" d="M454.21,430.9a7.28,7.28,0,0,1,4.555-.374c.51.085,1.054.918,1.224,1.53a6.889,6.889,0,0,1-.187,3.314.625.625,0,1,0,1.037.629,5.711,5.711,0,0,1,2.346-1.513,2.03,2.03,0,0,1,2.5.986c.867,1.275.51,2.652.731,3.977.034.187.034.391.085.578.051.136.153.272.221.408a1.813,1.813,0,0,0,.425-.374c.714-1.088,1.36-2.21,2.125-3.28a1.025,1.025,0,0,0,.051-1.394q-2.5-3.34-4.98-6.7a8.836,8.836,0,0,1-1.054-1.768.9.9,0,0,1,.612-1.207,1.311,1.311,0,0,1,1.53.34c.969,1.275,1.972,2.516,2.941,3.79,1.19,1.581,2.465,3.094,3.518,4.759.816,1.258,1.972,2.295,2.312,3.892.119.595-.051.986-.391,1.139a2,2,0,0,1-1.292-.068c-.357-.136-.629-.527-.969-.748a.721.721,0,0,0-1.1.34,8.76,8.76,0,0,1-2.958,3.348,1.913,1.913,0,0,1-2.856-1.156c-.289-1.309-.578-2.635-.85-3.977-.085-.476-.17-.51-.578-.187a10.37,10.37,0,0,1-2.465,1.6c-1.836.663-3.45-.238-3.4-2.4a20.164,20.164,0,0,1,.323-2.652c.153-.867-.017-.969-.9-.816a17.376,17.376,0,0,1-2.822.2,1.093,1.093,0,0,1-.833-.561.987.987,0,0,1,.374-1.258c.221-.136.459-.238.731-.408" transform="translate(-375.224 -352.553)"/>
      <path id="패스_73" data-name="패스 73" d="M674.624,556.882a9.018,9.018,0,0,1-5.422-4.555,6.462,6.462,0,0,1-1.054-3.383c.085-1.19-.085-2.4.034-3.569a8.564,8.564,0,0,1,2.176-4.844,12.689,12.689,0,0,1,3.026-2.635,6.244,6.244,0,0,1,3.637-1.088c.714.068,1.428-.017,2.142.017.748.034.833.629.7,1.122a1.45,1.45,0,0,1-.782.884c-1.02.306-2.074.459-3.11.714a6.1,6.1,0,0,0-3.467,2.244,9.847,9.847,0,0,0-1.581,2.822,9.026,9.026,0,0,0-.238,4.368,6.753,6.753,0,0,0,3.128,4.793,5.517,5.517,0,0,0,3.467.612c1.989-.1,3.263-1.275,4.47-2.55a15.194,15.194,0,0,0,2.873-5.082,5.233,5.233,0,0,0,.187-1.87c0-.867.527-1.088,1.224-1.088.476,0,1.156.833,1.173,1.411a5.086,5.086,0,0,1-.51,2.771c-.493.884-.731,1.921-1.207,2.8a21.713,21.713,0,0,1-1.7,2.448,10.731,10.731,0,0,1-4.674,3.417,8.345,8.345,0,0,1-2.788.221c-.544.034-1.071.017-1.7.017" transform="translate(-553.551 -444.617)"/>
      <path id="패스_74" data-name="패스 74" d="M702.186,282.66c.578-1.173.714-1.241,2.091-1.071a4.779,4.779,0,0,0,1.207,0,3.855,3.855,0,0,1,2.482.612.788.788,0,0,0,.7.051c.136-.1.119-.459.119-.7a6.249,6.249,0,0,1-.1-2.363,3.027,3.027,0,0,1,1.615-1.768,6.308,6.308,0,0,1,4.657.085,4.825,4.825,0,0,1,2.176,3.06,4.029,4.029,0,0,1-1.411,3.824c-.9.68-1.938,1.343-3.212.782a1.277,1.277,0,0,0-.527-.17c-.391.034-.969-.323-.714.7a9.838,9.838,0,0,1,.051,3.314,3.656,3.656,0,0,1-2.924,2.618,4.7,4.7,0,0,1-4.589-2.125,8.285,8.285,0,0,1-1.649-5.949c.017-.289,0-.578.034-.9m6.34,6.255c1.258-2.5-.442-4.589-2.822-4.929-.646-.085-1.224.306-1.173.748a6.39,6.39,0,0,0,1.241,3.314,2.146,2.146,0,0,0,2.754.867m2.635-8.244a2.356,2.356,0,0,0,1.666,2.125,1.331,1.331,0,0,0,1.19-.238c1.037-1.292.765-2.635-.918-3.009-.986-.2-1.887.2-1.938,1.122m-2.04,2.21a.356.356,0,0,1,.1.068c0-.051-.017-.1-.1-.068" transform="translate(-581.741 -229.382)"/>
      <path id="패스_75" data-name="패스 75" d="M556.745,404.195c1.122-.935,2.227-1.785,3.229-2.754.612-.561,1.19-.629,1.734-.136a1.784,1.784,0,0,1-.255,2.108c-1.819,1.513-3.552,3.128-5.456,4.538-.867.646-1.785,1.5-3.128,1.241a2.161,2.161,0,0,1-1.7-1.7,8.81,8.81,0,0,1,.612-3.246c.17-.663.391-1.309.595-1.955a.251.251,0,0,0-.068-.221c-.051-.051-.153-.034-.221,0a11.924,11.924,0,0,0-1.513.85,3.044,3.044,0,0,1-4.3-.646,6.814,6.814,0,0,1-1-2.278,22.174,22.174,0,0,1-.051-3.009,2.451,2.451,0,0,0-.238-.731,4.544,4.544,0,0,0-.476.306c-.867.7-1.768,1.377-2.6,2.108a.872.872,0,0,1-1.36-.085,1.1,1.1,0,0,1-.221-1.513,8.066,8.066,0,0,1,1.632-1.513,10.556,10.556,0,0,1,2.431-1.547,1.905,1.905,0,0,1,2.737,1.649,37.852,37.852,0,0,0,.714,4.113c.255,1.139,1.224,1.428,2.193.782a20.305,20.305,0,0,1,1.819-1.139c1.292-.68,2.771-.255,2.72,1.581a30.138,30.138,0,0,1-.34,3.5,8.612,8.612,0,0,1-.578,1.292,1.952,1.952,0,0,0,.085.748,2.094,2.094,0,0,0,.7-.2c.765-.68,1.513-1.394,2.312-2.142" transform="translate(-447.407 -326.227)"/>
      <path id="패스_76" data-name="패스 76" d="M395.821,268.036c.85-.476.884-.884.323-1.649a22.28,22.28,0,0,1-1.309-1.989,1.145,1.145,0,0,1,.272-1.666,1.236,1.236,0,0,1,1.649.221,26.529,26.529,0,0,1,1.785,2.5c1.241,1.938,2.5,3.875,3.671,5.864a7.559,7.559,0,0,1,.578,1.972.827.827,0,0,1-.714,1.088,1.362,1.362,0,0,1-1.122-.493,24.233,24.233,0,0,1-1.717-2.839c-.476-.9-1.581-1.411-2.074-.816a1.411,1.411,0,0,0-.17,1.224c.425,1.054,1.054,2.006,1.428,3.06a1.562,1.562,0,0,1-.323,1.428,1.06,1.06,0,0,1-1.5-.544c-.952-1.666-2.057-3.229-3.094-4.827-.255-.391-.493-.782-.731-1.173-.119.408-.221.833-.357,1.224a2.6,2.6,0,0,1-.408.935c-1.615,1.547-3.246,3.077-4.912,4.572a1.373,1.373,0,0,1-1.853-.051,1.5,1.5,0,0,1,.323-1.785c.9-.816,1.853-1.581,2.737-2.414.612-.595,1.122-1.309,1.751-1.87a2.331,2.331,0,0,1,1.36-.748c.816.034.884-.459,1-.986.255-1.19,1.088-1.547,1.887-.731a1.835,1.835,0,0,0,1.513.493" transform="translate(-318.905 -217.359)"/>
      <path id="패스_77" data-name="패스 77" d="M258.253,189.32a6.328,6.328,0,0,1-.816,2.8c-.561.731-1.054.969-1.887.527-.646-.357-.663-.7-.2-1.6a2.741,2.741,0,0,0,.34-1.207,42.5,42.5,0,0,0-.187-4.419c-.1-1-1.037-1.36-1.887-.714a10.338,10.338,0,0,0-2.142,2.074c-1.275,1.819-3.111,1.836-4.351.034-.544-.816-1.5-1.377-2.074-2.176a4.021,4.021,0,0,1-.918-2.771c.068-.612.51-1.088,1.071-.867a2.525,2.525,0,0,0,2.924-.833,29.847,29.847,0,0,1,3.111-2.737,2.708,2.708,0,0,1,1.547-.34c.391-.017.612,1.326.221,1.717-.833.867-1.717,1.666-2.567,2.516a23.308,23.308,0,0,0-2.091,2.21c-.374.459-.068.986.323,1.377.425.408.867.476,1.224-.085a9.036,9.036,0,0,1,3.229-2.652,3.512,3.512,0,0,1,4.317,1.241,5.906,5.906,0,0,1,.8,3.178c.051.867.017,1.751.017,2.72" transform="translate(-202.058 -146.551)"/>
      <path id="패스_78" data-name="패스 78" d="M428.582,95.064a5.381,5.381,0,0,1,5.592-.663,5.955,5.955,0,0,1,3.586,4.215,7.338,7.338,0,0,1-.085,3.433,7.123,7.123,0,0,1-1.428,2.4c-.969,1.326-2.482,1.207-3.79.969a4.733,4.733,0,0,1-2.329-1.462,8.453,8.453,0,0,1-2.159-7.139,7.7,7.7,0,0,1,.612-1.751m6.85,6.255c0-.459-.034-.918,0-1.36.153-2.363-2.227-3.892-4.453-3.467a.737.737,0,0,0-.459.493,13.121,13.121,0,0,0,0,2.584,5.492,5.492,0,0,0,1.938,3.161,1.105,1.105,0,0,0,.68.187c1.292.085,1.547-.085,2.295-1.6" transform="translate(-354.412 -77.695)"/>
      <path id="패스_79" data-name="패스 79" d="M275.752,354.211a7.737,7.737,0,0,1-.119-.765,1.049,1.049,0,0,0-1.36-.969,12.606,12.606,0,0,0-3.79,1.751,2.891,2.891,0,0,1-1.9.238c-.595-.1-.612-1.615-.017-1.972,1.87-1.088,3.671-2.363,5.9-2.567a3.135,3.135,0,0,1,3.535,2.6,1.9,1.9,0,0,0,2.142,1.819c1.224.034,2.448.1,3.671.17a1.024,1.024,0,0,1,.986,1.207,1.128,1.128,0,0,1-1.139,1.139c-1.343.017-2.669-.051-4.011-.136a1.308,1.308,0,0,0-1.462,1.343c-.034,1.02-.1,2.04-.17,3.077-.085,1.02-.527,1.53-1.292,1.53-.85-.017-1.224-.408-1.241-1.564-.017-1.02.1-2.057.153-3.077.051-1.258.119-2.516.119-3.824" transform="translate(-221.959 -289.813)"/>
      <path id="패스_80" data-name="패스 80" d="M835.642,195.184a3.771,3.771,0,0,1,.289,1.122c.034,1.224.034,2.448.017,3.654a53.3,53.3,0,0,1-.2,5.728,86.841,86.841,0,0,0-.493,10.912,5.693,5.693,0,0,1-.2,1.513,1.61,1.61,0,0,1-1.649,1.071,1.344,1.344,0,0,1-1-1.53c.051-1.921.2-3.824.323-5.728.153-2.482.391-4.963.493-7.428.119-2.669.136-5.337.187-8.006.017-1.513.8-2.006,2.244-1.309" transform="translate(-689.792 -161.265)"/>
      <path id="패스_81" data-name="패스 81" d="M824.849,522.952a3.617,3.617,0,0,1-.612,2.924,2.052,2.052,0,0,1-2.652.255,8.05,8.05,0,0,1-1.615-2.21c-.952-1.785-.612-3.654-.663-5.507-.034-.85,1.1-1.6,1.734-1.071a6.043,6.043,0,0,0,2.584.986c1.428.391,2.839.816,4.266,1.173a16.623,16.623,0,0,0,2.244.34c.595.085,1.156.2,1.428.816.425.9-.085,1.819-1.054,1.717-1.292-.136-2.584-.459-3.858-.7-.561-.1-1.1-.221-1.666-.289-.85-.085-.918,0-.578.935a2.674,2.674,0,0,0,.442.629m-2.414-.714c-.119-.119-.238-.221-.357-.323a1.783,1.783,0,0,0-.238.476,1.579,1.579,0,0,0,.017.748c.068.221.289.391.442.595a2.956,2.956,0,0,0,.2-.578,2.2,2.2,0,0,0-.068-.918m-1.19-1.19c.085,0,.17.017.255.017-.034-.34-.051-.7-.085-1.037l-.2.867c0,.034-.034.051.034.153m2.89,0c.017-.034.051-.068.068-.1-.051,0-.1,0-.068.1" transform="translate(-678.885 -428.478)"/>
      <path id="패스_82" data-name="패스 82" d="M876.767,476.506c-.85-.34-.578-1.054-.629-1.649,0-.034.1-.068.1-.119.391-1.326-.2-2.074-1.547-1.819a18.229,18.229,0,0,0-2.822.765c-1.326.459-3.433-.272-3.858-1.564a3.506,3.506,0,0,1,.221-3.3,25.391,25.391,0,0,1,1.581-2.4,7.094,7.094,0,0,1,1.836-1.479,1.207,1.207,0,0,1,1.037.221.885.885,0,0,1,.255,1.292c-.51.7-1.1,1.326-1.632,2.023a4.954,4.954,0,0,0-.918,1.394c-.136.374-.136,1.139.051,1.241a1.8,1.8,0,0,0,1.394,0,7.631,7.631,0,0,1,5.218-.561,2.318,2.318,0,0,1,1.6,1.989,14.321,14.321,0,0,1,.017,3.077c-.068.748-.85,1.088-1.9.884" transform="translate(-718.91 -385.135)"/>
      <path id="패스_83" data-name="패스 83" d="M378.209,485.3a4.61,4.61,0,0,1,1.36.187.946.946,0,0,1,.1,1.666,3.665,3.665,0,0,1-2.176.714c-1.513.136-3.009.459-4.5.646-.816.085-.833.612-.918,1.224a6.828,6.828,0,0,1-1.513,3.433,1.075,1.075,0,0,1-.884.238c-.153-.017-.289-.476-.289-.731a12.2,12.2,0,0,1,.731-5.048,11.338,11.338,0,0,0,.442-2.448c.272-1.36.51-2.72.867-4.045a2.989,2.989,0,0,1,.884-1.411,1.18,1.18,0,0,1,1.173.153,2.047,2.047,0,0,1,.442,1.394c-.136,1.156-.425,2.295-.646,3.45a.86.86,0,0,0,1.071,1.088c1.258-.2,2.516-.34,3.858-.51" transform="translate(-305.916 -397.34)"/>
      <path id="패스_84" data-name="패스 84" d="M924.223,451.827c-.833.272-1.53.221-1.819-.731-.051-.187-.136-.493-.034-.612.7-.782.425-1.734.442-2.618,0-.714-.935-1.139-1.938-.816a5.875,5.875,0,0,1-3.382-.068A1.813,1.813,0,0,1,916.4,445.9a6.319,6.319,0,0,1,1.547-5.983,1.213,1.213,0,0,1,1.513-.306,1.158,1.158,0,0,1,.374,1.5,13.367,13.367,0,0,0-.935,2.159,1.561,1.561,0,0,0,.068,1.275c.187.221.8.1,1.224.1,1,.017,2.006-.051,2.992.051a1.752,1.752,0,0,1,1.122.714,4.89,4.89,0,0,1,.952,4.079,4.791,4.791,0,0,1-1.037,2.346" transform="translate(-759.143 -364.049)"/>
      <path id="패스_85" data-name="패스 85" d="M666.667,336.525a2.812,2.812,0,0,0,.306.714.956.956,0,0,1-.187,1.445,1.374,1.374,0,0,1-1.819-.255q-2.448-3.773-4.878-7.564c-1.1-1.717-2.227-3.416-3.263-5.184-.272-.493-.8-1.054-.357-1.751.17-.272.306-.765.51-.8a1.6,1.6,0,0,1,1.207.289,19.551,19.551,0,0,1,1.683,2.346c1.479,2.38,2.924,4.793,4.419,7.156.765,1.207,1.581,2.346,2.38,3.6" transform="translate(-543.771 -267.59)"/>
      <path id="패스_86" data-name="패스 86" d="M989.315,448.467c-.289-1.53-.221-2.958,1.071-3.994a2.539,2.539,0,0,1,1.428-.595,4.433,4.433,0,0,1,5,2.21,3.48,3.48,0,0,1-.034,3.688,4,4,0,0,1-3.773,1.7,5.127,5.127,0,0,1-3.212-1.87,6.562,6.562,0,0,1-.476-1.139m4.555-1.9c-.425-.068-.85-.136-1.275-.17-.595-.051-.816.238-.867.833-.1,1.564,1.258,1.955,2.363,1.649a1.008,1.008,0,0,0,.595-1.479,2.356,2.356,0,0,0-.816-.833" transform="translate(-819.73 -367.672)"/>
      <path id="패스_87" data-name="패스 87" d="M551.1,74.5c2.244.8,2.312,3.892,1.071,5.473a4.512,4.512,0,0,1-2.414,1.921,3.629,3.629,0,0,1-4.827-3.416c-.153-2.04.867-3.094,2.4-3.977a.433.433,0,0,1,.221-.1c1.156.034,2.312.068,3.552.1m-3.909,2.635c.17.629.306,1.275.527,1.887.17.493.476.629,1.054.476a2.122,2.122,0,0,0,1.53-1.377c.357-.9.1-1.445-.884-1.394a10.148,10.148,0,0,0-2.227.408" transform="translate(-451.438 -61.501)"/>
      <path id="패스_88" data-name="패스 88" d="M535.8,2.752a18,18,0,0,1,2.142-.952,1.06,1.06,0,0,1,.935.272,1.582,1.582,0,0,1,.034,1.122,2.71,2.71,0,0,1-1.632,1.479c-1.071.527-1.19,1.326-.544,2.346a40.926,40.926,0,0,1,1.989,3.586c.17.357.476.9-.119,1.241a1.171,1.171,0,0,1-1.53-.306,31.188,31.188,0,0,1-2.363-3.009c-1.36-1.972-2.669-3.977-3.96-6.017a2.263,2.263,0,0,1-.306-1.377,1.156,1.156,0,0,1,.714-.816A1.673,1.673,0,0,1,532.4.678,4.981,4.981,0,0,1,533.435,2c.612,1.054.986,1.173,2.363.748" transform="translate(-439.432)"/>
      <path id="패스_89" data-name="패스 89" d="M359.969,138.044c.731,1.462,1.394,2.89,2.091,4.3.408.782.918,1.53,1.292,2.329a11.383,11.383,0,0,1,.884,2.448,1.2,1.2,0,0,1-.765,1.411,1.323,1.323,0,0,1-1.581-.782c-.663-1.462-1.326-2.907-2.006-4.351-.68-1.428-1.343-2.839-2.091-4.232-.68-1.292-1.462-2.516-2.159-3.773a2.6,2.6,0,0,1-.357-1.037c-.085-.629.017-1.309.765-1.428a1.34,1.34,0,0,1,1.649.9,44.364,44.364,0,0,0,2.278,4.215" transform="translate(-294.203 -109.906)"/>
      <path id="패스_90" data-name="패스 90" d="M765.874,523.435c.714.935,1.411,1.785,2.023,2.72.646,1,1.19,2.091,1.8,3.144a.9.9,0,0,1-.238,1.292,1.556,1.556,0,0,1-1.377-.085,10.738,10.738,0,0,1-1.8-2.108c-.7-.986-1.258-2.091-1.938-3.094-.8-1.139-1.666-2.244-2.5-3.365-.629-.85-1.275-1.666-1.853-2.55a2.264,2.264,0,0,1-.493-1.224c0-.34.289-.918.544-.986a1.912,1.912,0,0,1,1.445.238,7.3,7.3,0,0,1,1.343,1.615c1.02,1.445,2.006,2.907,3.043,4.4" transform="translate(-629.329 -428.43)"/>
      <path id="패스_91" data-name="패스 91" d="M473.784,71.4c-.765-1.462-1.479-2.89-2.244-4.3-.986-1.8-2.006-3.6-3.026-5.388a1.158,1.158,0,0,1,.34-1.649,1.227,1.227,0,0,1,1.649.289c.952,1.649,1.887,3.3,2.8,4.963.68,1.241,1.377,2.482,2.04,3.739q.943,1.81,1.785,3.671a1.434,1.434,0,0,1-.884,1.717c-.68.272-1.037-.306-1.309-.748-.442-.7-.748-1.5-1.156-2.295" transform="translate(-387.934 -49.438)"/>
      <path id="패스_92" data-name="패스 92" d="M503.747,38.886a23.176,23.176,0,0,1-.357-2.788,1.336,1.336,0,0,1,1.8-1.394c.238.085.442.493.544.782a8.328,8.328,0,0,1,.187,1.1,1.973,1.973,0,0,0,2.754,1.717,3.251,3.251,0,0,1,2.448.323.925.925,0,0,1,.374.748,2.277,2.277,0,0,1-.612,1.054c-.187.187-.561.17-.85.187-.969.085-1.938.051-2.89.221-.289.068-.612.646-.68,1.037a10.306,10.306,0,0,0-.034,1.921c0,.7-.187,1.173-1.037,1.088a1.328,1.328,0,0,1-1.343-1.309c-.085-1.547-.17-3.094-.306-4.691" transform="translate(-417.014 -28.485)"/>
      <path id="패스_93" data-name="패스 93" d="M433.069,553.767a4.769,4.769,0,0,1-3.722,1.1,6.355,6.355,0,0,1-2.38-1.054c-.9-.612-1.666-1.445-2.533-2.125a1.371,1.371,0,0,1-.357-1.6,1.436,1.436,0,0,1,1.1-.629,2.379,2.379,0,0,1,1.173.578c.986.714,1.955,1.462,2.907,2.21.578.459,1.071.238,1.632-.017a11.07,11.07,0,0,0,3.45-3.009,1.033,1.033,0,0,1,1.462-.272c.612.391.952,1.02.442,1.683-.714.9-1.53,1.734-2.329,2.567a4.911,4.911,0,0,1-.85.561" transform="translate(-351.163 -454.686)"/>
      <path id="패스_94" data-name="패스 94" d="M354.455,411.139c-1.207.153-1.887-.748-2.754-1.173a6.734,6.734,0,0,1-1.36-1.173,1.081,1.081,0,0,1-.17-1.428,1.107,1.107,0,0,1,1.53-.391,3.277,3.277,0,0,1,1.275.782,3.676,3.676,0,0,0,2.6,1.1,4.116,4.116,0,0,0,2.329-.816,12.424,12.424,0,0,0,2.04-2.176c.493-.561,1.343-.867,1.768-.442a1.336,1.336,0,0,1,.272,1.7,8.434,8.434,0,0,1-4.1,3.824,4.65,4.65,0,0,1-3.433.187" transform="translate(-289.827 -335.693)"/>
      <path id="패스_95" data-name="패스 95" d="M429.892,469.338a.758.758,0,0,1,.051.306c.017.646,0,1.309-.765,1.513-.629.17-1.258-.408-1.632-1.207-.68-1.5-1.377-2.992-2.176-4.419-.867-1.6-1.853-3.128-2.771-4.691a5.207,5.207,0,0,1-.476-1.241.917.917,0,0,1,.629-1.139c.442-.136,1.02-.374,1.428.323.816,1.411,1.734,2.771,2.55,4.181.765,1.292,1.5,2.6,2.176,3.926.391.765.646,1.6.986,2.448" transform="translate(-349.614 -379.668)"/>
      <path id="패스_96" data-name="패스 96" d="M320.974,184.352c-.272,1.156-1,1.258-1.7.816a1.67,1.67,0,0,1-.493-1.088c-.2-1.632-.391-3.263-.527-4.9-.085-1.173-.816-1.6-2.176-1.258a2.1,2.1,0,0,1-2.176-.221.8.8,0,0,1,.085-1.394,4.494,4.494,0,0,1,1.751-.884c1.19-.187,2.533-.544,3.5.442a4.926,4.926,0,0,1,1.547,3.11c.119,1.751.136,3.518.187,5.371" transform="translate(-259.621 -144.993)"/>
      <path id="패스_97" data-name="패스 97" d="M537.349,290.434a13.155,13.155,0,0,0,4.164-2.6,1.455,1.455,0,0,1,1.428-.357c.8.272,1.19,1.088.578,1.683a17.232,17.232,0,0,1-3.042,2.516,12.945,12.945,0,0,1-3.586,1.547,4.453,4.453,0,0,1-3.4-.442c-.527-.323-1.258-.34-1.292-1.224-.017-.9.918-1.666,1.7-1.224a3.8,3.8,0,0,0,3.451.1" transform="translate(-440.888 -238.019)"/>
      <path id="패스_98" data-name="패스 98" d="M350.161,326.339c-.629-1.02-1.258-1.938-1.87-2.89a1.065,1.065,0,0,1,.255-1.513,1.085,1.085,0,0,1,1.53.17,31.1,31.1,0,0,1,2.108,2.873c.578.918,1.037,1.938,1.547,2.907a19.672,19.672,0,0,1,1.411,2.72,3.75,3.75,0,0,1-.068,2.074c-.238.8-.7.867-1.258.272a5.867,5.867,0,0,1-.884-1.241c-.952-1.751-1.853-3.518-2.771-5.371" transform="translate(-288.265 -266.427)"/>
      <path id="패스_99" data-name="패스 99" d="M458.121,346.247a10.49,10.49,0,0,0-.017-1.8c-.119-.7.323-.952.748-1.207,1.088-.646,2.074-1.6,3.569-1.1a2.791,2.791,0,0,1,1.819,1.751,3.591,3.591,0,0,1-2.414,4.232,2.787,2.787,0,0,1-3.705-1.87m3.06-.425c.272-.357.544-.714.816-1.054-.442-.051-.884-.1-1.326-.136a.366.366,0,0,0-.289.085c-.1.085-.238.306-.2.323a3.792,3.792,0,0,0,1,.782" transform="translate(-379.461 -283.271)"/>
      <path id="패스_100" data-name="패스 100" d="M866.284,257a3.985,3.985,0,0,1,2.414,1.1,3.342,3.342,0,0,1-.561,4.521c-1.6,1.173-3.569.714-4.147-1.156-.255-.833-.8-1.53-.476-2.482A2.391,2.391,0,0,1,866.284,257m.34,2.465c-.255-.2-.595-.646-.663.085-.034.357-.272.9.374.969a3.652,3.652,0,0,0,.289-1.054" transform="translate(-715.346 -212.806)"/>
      <path id="패스_101" data-name="패스 101" d="M787.9,237.954a4.37,4.37,0,0,1-1.649-3.433,1.685,1.685,0,0,1,2.21-1.632,2.054,2.054,0,0,0,.646.1c2.21.17,3.026,1.87,2.737,3.688a2.328,2.328,0,0,1-2.142,1.564,10.157,10.157,0,0,1-1.8-.289m1.411-2.159a3.016,3.016,0,0,0-.2-.7c-.034-.068-.289-.017-.442-.034.017.153-.034.357.051.442a.9.9,0,0,0,.595.289" transform="translate(-651.524 -192.733)"/>
      <path id="패스_102" data-name="패스 102" d="M367.49,289.632c-1.479-.595-1.564-1.683-.34-2.652,1.224-.952,2.363-2.006,3.637-2.907.8-.561,1.513-1.462,2.686-1.241.323.068.867.2.9.391a1.774,1.774,0,0,1-.2,1.275,16.851,16.851,0,0,1-1.87,1.6c-1.428,1.139-2.839,2.278-4.266,3.4-.119.1-.306.085-.544.136" transform="translate(-303.364 -234.193)"/>
      <path id="패스_103" data-name="패스 103" d="M401.057,344.6a3.856,3.856,0,0,1,3.212-1.547,2.574,2.574,0,0,1,1.683,4.453,1.891,1.891,0,0,1-.68.374,3.612,3.612,0,0,1-4.487-2.142c-.1-.306.153-.731.272-1.139m2.941.986c-.187.1-.374.2-.544.306a3.849,3.849,0,0,0,.731.187c.136,0,.272-.2.408-.323a1.228,1.228,0,0,0-.595-.17" transform="translate(-331.938 -284.139)"/>
    </g>
  </g>
</svg>
