<svg xmlns="http://www.w3.org/2000/svg" xmlns:xlink="http://www.w3.org/1999/xlink" width="1475.626" height="1661.672" viewBox="0 0 1475.626 1661.672">
  <defs>
    <clipPath id="clip-path">
      <rect id="사각형_79" data-name="사각형 79" width="1475.626" height="1661.672" transform="translate(0 0)" fill="#fff"/>
    </clipPath>
  </defs>
  <g id="마스크_그룹_1" data-name="마스크 그룹 1" clip-path="url(#clip-path)">
    <g id="_모양_12_체크_아웃_AdobeCapture" data-name="&apos;모양 12&apos; 체크 아웃 #AdobeCapture" transform="translate(0.364 130.246)">
      <path id="패스_49" data-name="패스 49" d="M1825.619,749.185c-4.211-4.127-8.673-8.253-12.547-12.885-6.316-7.663-12.379-15.579-18.442-23.5-6.822-8.674-13.558-17.348-20.38-26.021-6.653-8.506-13.474-16.926-20.126-25.348-6.821-8.674-13.474-17.432-20.3-26.106-6.569-8.421-13.306-16.674-19.873-25.1-6.906-8.758-13.727-17.516-20.548-26.443q-11.494-15.158-22.906-30.485c-7.326-9.684-14.484-19.537-21.811-29.221-8.421-11.2-17.011-22.148-25.6-33.264-9.516-12.295-18.948-24.758-28.548-36.969-6.822-8.505-14.063-16.59-20.8-25.1-9.853-12.295-21.053-23.663-27.874-38.064-6.063-12.8-11.285-25.937-16.674-39.074-5.474-13.558-10.7-27.285-16-40.927-.168-.421-.842-.926-.758-1.347.169-1.937.505-3.958.758-5.895,2.021.337,4.3.168,5.979,1.011a196.031,196.031,0,0,1,33.348,22.148c8.926,7.158,18.19,13.979,26.947,21.306a253.685,253.685,0,0,1,20.969,19.369c10.106,10.863,19.875,22.148,29.39,33.6,10.526,12.548,20.632,25.348,30.737,38.148,12.295,15.579,24.505,31.074,36.632,46.738,10.274,13.39,20.042,27.116,30.4,40.422,8.758,11.2,17.938,22.148,27.032,33.011,11.032,13.137,22.485,26.022,33.264,39.327,11.621,14.148,22.737,28.716,34.022,43.116a26.737,26.737,0,0,0,3.536,3.284,97.722,97.722,0,0,1,0,9.937,101.957,101.957,0,0,1-8.842-9.263c-11.031-14.064-21.811-28.379-33.1-42.274-10.694-13.137-21.979-25.937-32.926-38.99-9.432-11.2-18.948-22.316-27.959-33.853-12.969-16.674-25.348-33.853-38.148-50.611-9.516-12.464-19.453-24.59-29.137-36.8-7.747-9.684-15.326-19.537-23.243-29.053-9.263-11.284-18.778-22.316-28.295-33.348-1.01-1.095-3.031-1.516-4.716-1.768a77.769,77.769,0,0,0-7.747-.926c-.758-.084-1.6-.253-2.358-.337a8.36,8.36,0,0,0,1.01,2.526c1.854,2.021,4.043,3.79,5.811,5.895,9.095,10.695,18.19,21.39,27.032,32.169q14.021,17.053,27.706,34.443,14.021,17.811,27.706,36.043c12.042,16.168,23.747,32.674,36.042,48.59,12.884,16.506,26.358,32.59,39.579,48.927,7.495,9.179,14.99,18.442,22.569,27.622,7.5,9.011,15.158,17.853,22.569,26.864,6.147,7.411,12.042,14.99,18.274,22.316,2.442,2.863,5.558,5.305,8.337,8,0,3.2,0,6.484-.168,9.937-.252.168-.674.168-.674,0-.337-.421-.842-.421-1.095-.674l-33.095-39.664c-10.19-12.211-20.464-24.337-30.654-36.548-10.021-12.127-19.958-24.253-29.727-36.548-9.769-12.042-19.453-24.169-28.884-36.464-8.674-11.285-17.095-22.906-25.6-34.443-8.421-11.369-16.673-22.906-25.431-34.022-9.01-11.537-18.612-22.653-27.874-33.937-12.38-15.074-24.59-30.232-36.969-45.306-.758-.926-2.611-2.19-3.284-1.853-3.705,1.768-6.653-.421-9.853-1.263a12.78,12.78,0,0,0-1.768-.253,9.212,9.212,0,0,0,.421,1.432c2.527,4.8,4.547,10.105,7.831,14.4,9.011,11.79,18.527,23.242,27.875,34.779,11.2,13.726,22.484,27.453,33.6,41.18,10.611,13.053,21.221,26.021,31.5,39.158,12.632,16.253,24.842,32.674,37.306,49.011q15.537,20.337,31.243,40.506c6.484,8.337,13.137,16.421,19.621,24.758,9.517,12.127,18.864,24.422,28.3,36.632,7.158,9.179,14.4,18.19,21.39,27.369,2.863,3.705,5.136,3.705,8.337.169,2.189-2.442,5.052-4.379,7.662-6.569,0,2.358,0,4.8-.168,7.411-3.284.842-8.084,5.979-8.168,8.758-.084.674.59,1.348.927,2.105a13.7,13.7,0,0,0,1.431-.926c2.021-2.105,3.958-4.295,5.979-6.4,0,3.79,0,7.579-.168,11.621-1.515.337-2.778.589-4.042.758,1.01,1.179,1.937,2.442,3.032,3.621.169.168.758,0,1.179,0,0,4.884,0,9.853-.168,14.99-5.473,5.642-5.389,9.937.168,14.484v9.937m-20.632-41.1c1.01-2.021,1.852-4.042,2.948-5.9,1.6-2.779.926-5.053-1.011-7.326-4.294-5.137-8.673-10.105-12.8-15.326q-16.8-21.221-33.348-42.611c-11.453-14.737-22.821-29.558-34.274-44.3-10.105-13.137-20.464-26.021-30.569-39.159-9.937-12.8-19.621-25.853-29.474-38.653-7.158-9.348-14.4-18.527-21.811-27.622-6.316-7.916-12.885-15.748-19.284-23.579-7.074-8.674-14.148-17.432-21.137-26.19-6.821-8.674-13.39-17.516-20.379-26.021-2.189-2.779-4.968-6.737-7.747-6.99-8.758-.926-13.054-6.147-16.59-13.053a19,19,0,0,0-2.105-2.442,17.424,17.424,0,0,0-1.263,2.863c-1.179,4.884,1.853,7.748,4.884,11.032,6.148,6.99,11.79,14.484,17.685,21.642,5.558,6.905,11.368,13.474,16.927,20.379,6.905,8.758,13.642,17.6,20.547,26.442,7.158,9.179,14.484,18.358,21.642,27.706,7.242,9.516,14.316,19.284,21.474,28.885,7.495,10.021,14.822,20.042,22.4,29.9,7.579,10.105,15.411,19.958,23.159,29.979,6.315,8.169,12.547,16.421,18.863,24.59q11.368,14.526,22.821,28.884c6.653,8.421,13.474,16.842,20.127,25.348,6.821,8.674,13.558,17.348,20.3,26.106,4.547,5.811,8.926,11.705,13.474,17.6.926,1.179,1.936,2.442,2.948,3.621.42-1.516.758-3.031,1.178-4.547a2.954,2.954,0,0,1,.421-1.263M1554.879,338.4c-1.01-.59-2.106-1.011-3.116-1.684-2.274-1.6-3.873-.842-5.558,1.095-2.189,2.358-4.463,4.632-6.821,6.737-1.768,1.684-3.369,3.453-2.526,6.063.842,3.032,1.853,5.979,2.948,8.927,3.116,8.758,6.4,17.516,9.684,26.274.253.758,1.179,1.432,1.853,2.105.506-.674,1.263-1.347,1.347-2.021.169-1.768-.253-3.79,2.611-3.705,2.442.084,4.716-.421,6.063,2.863,1.179,2.947,3.537,5.558,5.474,8.168a16.372,16.372,0,0,0,2.611,2.19c-.085-1.348.168-2.779-.337-3.958-1.178-2.863-3.284-5.474-3.958-8.421a17.8,17.8,0,0,1,.422-8.674c.253-.926,3.874-1.768,5.39-1.095,2.948,1.179,3.958,0,5.474-2.19a5.82,5.82,0,0,1,4.294-2.19c2.442.084,4.8,1.095,7.242,1.769,2.021.589,3.958,1.263,5.979,1.937-1.095-2.021-1.853-4.463-3.453-6.063a228.9,228.9,0,0,0-17.179-15.411c-5.727-4.463-11.958-8.253-18.442-12.716M1809.2,711.458c-.674,2.105-1.516,4.126-2.021,6.232-.169.674.336,1.432.589,2.19.589-.421,1.516-.758,1.768-1.347,1.264-2.442,2.274-4.884,3.453-7.326a43.031,43.031,0,0,0,2.443-5.305c.252-.674-.505-1.684-.843-2.526-.674.505-1.6.758-2.021,1.432-1.095,2.021-1.937,4.126-3.369,6.653m13.053,7.158c-1.011-1.853-1.937-3.705-3.032-5.474-.084-.253-.926-.169-1.431-.169-.084,1.348-.842,3.453-.168,4.042.926,1.01,1.432,4.463,4.632,1.6m-5.053,5.895c-.926-1.01-1.937-1.937-2.863-2.947-.422,1.347-1.348,2.695-1.179,3.958.084,1.263,1.263,2.358,2.021,3.537a21.664,21.664,0,0,0,2.021-4.548" transform="translate(-350.229 -70.511)"/>
      <path id="패스_50" data-name="패스 50" d="M0,684.651c2.274-4.716,4.8-9.011,6.653-13.642,6.063-14.737,11.79-29.642,17.853-44.464,3.958-9.684,8.253-19.284,12.632-28.8,2.358-5.137,6.232-8.59,12.126-9.432,1.347-.253,3.368-1.347,3.621-2.442,1.095-4.632,4.632-6.148,8.421-7.579,11.116-4.127,22.232-2.358,33.6-1.1,12.8,1.432,24.758,5.137,36.548,9.684A140.5,140.5,0,0,1,153.686,598c3.453,2.021,4.463,6.4,4.716,10.526.168,2.358.505,4.969,1.684,6.905,3.2,5.137,3.453,10.274,1.937,16.168-5.895,23.411-15.158,45.559-23.663,68.043-5.811,15.579-11.874,31.074-17.937,46.485-5.726,14.316-11.79,28.464-17.348,42.864-3.032,7.916-9.348,10.948-16.59,12.379-11.621,2.189-23.411,4.463-35.2,3.284-7.242-.758-14.4-3.032-21.474-5.053-8.758-2.526-17.348-5.474-26.021-8.169a12.206,12.206,0,0,0-3.537-.084,27.824,27.824,0,0,1,0-6.484,6.209,6.209,0,0,1,2.695-.252c11.453,3.537,22.737,7.411,34.274,10.611,6.737,1.768,13.727,3.452,20.548,3.368,8.842,0,17.769-1.516,26.443-3.2,4.126-.842,9.769-2.695,11.453-5.811,4.126-7.916,6.569-16.842,9.516-25.432a2.242,2.242,0,0,0-.589-2.19c-3.116-1.516-6.4-2.779-9.684-4.126-15.158-5.895-30.232-12.379-45.643-17.685C33.348,734.673,16.674,731.473,0,729.031a47.344,47.344,0,0,1,.168-4.8c6.316.59,12.548.926,18.527,2.358,12.969,3.2,25.937,6.484,38.569,10.611,16.253,5.306,32.337,11.2,47.411,19.537,2.863,1.6,4.379.842,5.558-1.937,3.368-8.337,6.905-16.758,10.19-25.179,5.305-13.642,10.611-27.369,15.579-41.1,6.737-18.274,13.39-36.548,19.537-54.99,2.105-6.232,3.116-13.474-3.453-17.769-5.979-3.958-12.969-6.484-19.453-9.684-3.453-1.684-5.137-.674-6.484,2.947-2.695,7.158-6.147,13.979-9.095,21.053-5.137,12.463-10.274,24.927-15.158,37.474-4.547,11.79-8.842,23.579-13.053,35.453-3.453,9.768-6.4,19.79-9.684,29.642-1.011,2.863.337,3.958,2.779,4.8,8,3.116,16,6.148,23.832,9.516,1.347.59,1.937,2.7,2.863,4.126-1.684.168-3.453.758-4.884.337C83.033,744.1,62.485,736.61,41.853,729.2,28.3,724.315,14.316,722.21,0,721.452a31.652,31.652,0,0,1,.253-4.8,61.648,61.648,0,0,1,6.99.589c3.621.337,7.326.674,11.032.842,2.526.084,5.642.927,6.905-2.19,3.537-8.505,6.821-17.095,10.19-25.685q11.748-30.063,23.579-60.043c4.463-11.2,8.758-22.485,13.558-33.516,1.684-3.79-.589-3.958-2.779-3.958-4.632,0-9.348.758-13.979.674-8.674-.084-13.137,5.137-16.084,12.211q-8.084,19.579-16.084,39.243c-5.642,14.147-11.116,28.464-16.927,42.611C4.8,691.894,2.274,696.1,0,700.4V684.651m142.318-81.517c2.611,1.516,5.221,3.032,7.832,4.463a20.571,20.571,0,0,0,2.021.842c.084-.842.589-1.937.168-2.358-1.6-2.105-3.116-4.547-5.305-5.726a78.026,78.026,0,0,0-13.811-6.232c-9.937-3.284-19.874-6.316-29.979-9.01a93.367,93.367,0,0,0-17.937-3.285c-8.421-.674-16.927-.505-25.011,2.442-.842.253-1.347,1.516-1.937,2.274.842.337,1.684,1.011,2.526.926,3.368-.084,6.821-.926,10.19-.674a167.194,167.194,0,0,1,18.274,2.526c9.095,1.684,18.19,3.453,27.116,5.726,8.59,2.19,16.927,5.053,25.853,8.084" transform="translate(0 -133.559)"/>
      <path id="패스_51" data-name="패스 51" d="M1829.312,353.931a9.957,9.957,0,0,1-3.284-1.937q-15.917-15.663-31.579-31.579c-7.664-7.663-15.159-15.495-22.569-23.411-8-8.421-16-16.927-23.832-25.516-8.505-9.179-16.842-18.527-25.348-27.79-11.537-12.463-22.99-25.179-34.863-37.306q-31.074-31.579-62.738-62.738c-9.263-9.179-18.947-17.937-28.464-26.779-3.2-3.032-6.316-6.147-9.768-8.926-5.979-4.968-9.432-11.537-13.137-18.19-8.926-16.169-18.358-32.169-27.285-48.506-6.231-11.369-12.042-22.99-17.768-34.7-.674-1.432-.168-4.632,1.01-5.474,1.179-1.011,4.3-1.011,5.642-.084,13.221,8.59,26.19,17.516,39.243,26.358,8.421,5.642,17.1,11.032,25.432,16.927,11.2,7.832,23.242,14.99,33.094,24.337,20.8,19.621,40.338,40.422,60.38,60.8q15.411,15.663,30.653,31.5c8.168,8.421,16.337,16.758,24.338,25.264,10.948,11.537,21.811,23.158,32.421,34.948,9.348,10.358,18.358,20.969,27.453,31.579,6.906,8.169,13.727,16.506,20.8,24.758a97.651,97.651,0,0,1,0,9.937c-.673.084-1.178.084-1.347-.168-8.926-10.779-17.6-21.642-26.611-32.337q-16.421-19.327-33.348-38.4c-7.495-8.421-15.327-16.674-23.158-24.927-7.748-8.169-15.579-16.253-23.5-24.337q-28.421-28.927-56.843-57.685c-9.6-9.684-19.285-19.2-28.8-28.885-.926-.926-1.516-2.274-2.442-3.116-3.283-3.2-6.568-6.316-10.1-9.179-.842-.758-2.611-.337-3.874-.505.169,1.179.337,2.274.506,3.368.253,1.263,1.179,2.863.758,3.79-2.105,4.632.926,6.737,3.705,9.6,19.369,19.874,38.4,39.916,57.6,59.875q13.895,14.526,27.958,28.885a23.989,23.989,0,0,1,2.021,2.105c13.894,15.242,27.537,30.822,41.769,45.727,17.938,18.863,36.464,37.137,54.654,55.748,3.537,3.537,6.4,7.747,9.853,11.369,3.621,3.874,7.579,7.411,11.369,11.032,0,3.2,0,6.484-.169,9.937-11.2-11.874-21.81-24.169-33.1-35.874-20.126-21.137-40.674-41.769-60.885-62.822-12.21-12.632-24.085-25.685-36.042-38.485-2.611-2.695-5.39-5.221-7.917-8-14.147-15.158-28.042-30.569-42.359-45.559-11.452-11.958-23.411-23.411-35.116-35.2-.758-.758-1.937-1.432-2.273-2.358-1.684-4.463-6.231-4.463-9.516-6.4-.337-.168-1.432.421-1.432.505,1.432,4.295,2.021,9.263,4.548,12.716,4.716,6.484,10.526,12.042,15.916,17.937,10.359,11.453,20.547,22.99,30.99,34.274,9.516,10.358,19.2,20.463,28.8,30.569.5.589,1.01,1.011,1.516,1.516,10.442,11.032,20.716,22.148,31.326,32.927,17.937,18.274,36.38,36.043,54.233,54.485,14.4,14.905,28.21,30.316,42.358,45.559,4.632,4.968,9.263,9.937,13.979,14.821,1.6,1.684,3.453,3.116,5.137,4.716,0,2.947,0,5.895-.169,9.095a18.99,18.99,0,0,1-4.631-3.453c-6.148-6.569-12.127-13.137-18.19-19.79-8.758-9.6-17.348-19.2-26.19-28.716-10.443-11.116-20.885-22.316-31.58-33.179-17.684-18.021-35.706-35.706-53.474-53.559-9.264-9.432-18.527-18.948-27.622-28.548-4.884-5.053-9.347-10.442-14.063-15.663-11.032-12.211-22.232-24.421-33.348-36.716-5.389-5.979-10.863-12.042-16.337-18.021-3.116-3.284-6.316-6.4-9.6-9.516-.674-.589-1.853-.674-2.779-1.011-.169,1.179-.421,2.358-.59,3.453-.168,1.432-.337,2.863-.421,4.295-.252,3.958-2.694,8.169,1.853,11.453a95.075,95.075,0,0,1,8.506,6.905c10.611,9.937,21.222,19.874,31.663,29.979,14.064,13.558,28.043,27.285,41.853,41.011,8.253,8.169,16.169,16.59,24.085,24.927,3.705,3.79,7.242,7.663,10.779,11.537,8.505,9.348,17.01,18.779,25.6,28.127,9.178,10.021,18.358,20.211,27.705,30.148q16.8,17.937,33.854,35.537c9.769,10.105,19.79,19.958,29.811,29.811a14.588,14.588,0,0,0,3.284,2.105v9.095m-217.266-283.2c-.674-3.116-.674-6.147,1.853-8.674a1.323,1.323,0,0,0-.337-1.011c-5.3-3.537-10.61-6.905-15.831-10.526-9.516-6.569-18.864-13.305-28.38-19.874-.169-.084-1.011.337-1.011.589-.842,6.316-2.189,12.379-8.337,15.916-.758.421-1.095,2.695-.673,3.621,3.789,6.821,8,13.474,11.789,20.379,3.453,6.232,6.485,12.716,9.769,19.032a59.534,59.534,0,0,0,3.537,5.39c-.084-2.105.169-4.295-.252-6.316-1.263-5.895,1.684-10.863,6.905-10.442,4.548.421,3.2-2.442,3.285-4.632.084-5.137,2.189-6.905,7.158-5.474,3.452.926,6.905,2.274,10.358,3.453a1.838,1.838,0,0,0,.168-1.432" transform="translate(-353.922 -0.315)"/>
      <path id="패스_52" data-name="패스 52" d="M439.283,438.853c1.042-5.642,1.362-11.2,2.8-16.337,1.683-5.895,6.49-8.674,12.019-9.516,6.971-1.095,14.022-1.937,21.074-2.611,7.772-.674,15.545-1.432,23.4-1.6,22.276-.505,44.632-.842,66.908-.842,9.455,0,18.831.926,28.206,1.6,10.657.758,21.234,1.6,31.891,2.526,6.891.674,13.782,2.526,20.593,2.274,5.369-.168,10.657-2.526,15.866-4.295,21.074-6.821,42.068-13.895,63.142-20.716,14.343-4.632,28.766-9.011,43.19-13.39,17.869-5.474,35.9-10.611,53.766-16.084,21.635-6.653,43.35-13.305,64.9-20.3,19.231-6.147,38.3-12.632,57.373-19.032,12.179-4.126,24.279-8.253,36.459-12.211,9.936-3.2,19.552-6.905,30.289-6.737,9.856.084,12.661,4.042,15.545,12.463,4.968,14.4,9.856,28.885,14.183,43.537,3.045,10.19,4.968,20.8,7.532,31.243,2.644,10.442,5.369,20.969,8.173,31.411,2,7.411,4.247,14.737,6.25,22.064,1.2,4.632,4.086,6.316,10.978,6.821,12.5,1.011,25,2.19,37.5,3.368,8.894.842,17.789,1.516,26.6,2.611,4.567.505,9.215.926,13.381,2.611,6.731,2.61,8.894,7.158,9.135,15.495.32,10.947-.08,21.979-.721,32.927-.8,14.148-2.083,28.211-3.125,42.359-.561,7.916-1.122,15.832-1.6,23.748-.561,9.432-1.042,18.863-1.6,28.3-.561,9.1-1.041,18.106-1.6,27.116-.8,13.979-1.282,27.958-2.484,41.938-.881,9.684-2.724,19.284-3.846,28.969a18.132,18.132,0,0,0,.8,6.821c4.808,16.505,9.936,33.011,14.824,49.517,6.811,23.158,13.7,46.232,20.352,69.475q6.851,24.127,13.3,48.506c5.289,19.622,10.337,39.243,15.546,58.864,5.208,19.537,10.817,38.906,15.866,58.359,5.369,20.295,10.176,40.758,15.385,61.138,3.606,13.979,7.532,27.874,11.3,41.769,4.808,17.769,9.536,35.453,14.343,53.137,3.045,11.2,6.411,22.232,9.455,33.348,3.365,12.043,6.49,24.169,9.776,36.211.721,2.61,1.6,5.221,2.4,7.747,2.324,6.821-.4,9.516-5.529,11.284-9.215,3.2-18.59,5.642-27.8,8.674-21.635,7.158-43.189,14.485-64.824,21.643-11.539,3.873-23.157,7.495-34.776,11.369-17.788,5.979-35.5,12.126-53.366,18.105-4.968,1.684-10.1,2.863-15.144,4.295-4.567,1.348-3.927,5.895-4.407,9.263-1.6,12.463-2.644,24.927-4.087,37.39-1.282,10.695-2.484,21.39-4.087,32-2.164,15.074-4.728,30.148-7.131,45.222-2,12.547-3.847,25.011-7.933,36.969-2.484,7.326-7.051,10.442-12.981,10.779-9.375.589-18.75.421-28.125.084-7.532-.169-15.064-1.011-22.6-1.6-11.3-.842-22.6-1.6-33.894-2.526-5.529-.505-10.978-1.095-16.507-1.684-10.417-1.1-20.753-2.274-31.17-3.369-5.93-.589-11.859-1.095-17.709-1.684-9.856-1.095-19.712-2.274-29.568-3.369-6.33-.673-12.66-.926-18.991-1.684-7.692-1.011-15.385-2.358-23.077-3.369-5.208-.674-10.5-1.01-15.785-1.684-10.257-1.347-20.513-2.863-30.77-4.21-5.208-.674-10.5-1.011-15.785-1.684-6.891-1.01-13.782-2.189-20.753-3.2-4.808-.758-9.7-1.178-14.5-1.853-8.654-1.347-17.308-2.947-25.962-4.126-6.41-.927-12.981-2.105-19.391-1.516-5.93.505-11.779,3.031-17.628,4.8-14.5,4.463-29.516,8.073-44.1,12.2-12.821,3.537-24.051,6.206-36.951,9.238-7.051,1.6-10.906-1.176-12.669-9.766-2.4-11.368-5.88-21.609-7.964-33.061-.721-4.3-2.644-5.558-8.814-6.484-7.692-1.095-15.225-2.779-22.837-4.042-7.292-1.263-14.583-2.189-21.875-3.452-8.173-1.516-16.346-3.369-24.519-4.885-5.769-1.095-11.619-1.768-17.388-2.695-9.615-1.6-19.231-3.537-28.846-4.969-7.212-1.095-14.584-1.6-21.795-2.61-6.731-1.01-13.3-2.274-19.952-3.368-8.253-1.432-16.587-2.442-24.76-4.3-8.974-2.1-17.869-4.8-26.683-7.495-5.85-1.769-9.215-6.653-9.295-12.969,0-7.663-.32-15.411.08-23.158a162.612,162.612,0,0,1,2.4-17.432c1.442-8,3.125-16,4.728-24,1.6-8.337,3.365-16.59,4.728-24.927,1.362-7.748,2-15.664,3.365-23.411,2.163-12.295,4.808-24.59,6.971-36.969.961-5.389,1.042-10.947,1.763-16.421,1.683-12.463,3.526-24.842,5.369-37.306,1.362-9.095,2.8-18.106,4.247-27.2,1.042-6.568,2.243-13.053,3.125-19.621.8-5.474,1.042-11.116,1.683-16.59,1.282-9.516,2.724-19.032,3.926-28.548.721-5.39,1.042-10.779,1.683-16.169.962-7.832,2.163-15.663,3.125-23.5.641-5.221,1.042-10.442,1.683-15.663,1.282-9.516,2.8-19.032,3.926-28.548.8-6.484,1.122-13.053,1.683-19.537,1.042-11.874,2.164-23.747,3.205-35.621.8-8.842,1.282-17.6,2.484-26.359,1.522-11.284,3.766-22.484,5.529-33.769.961-6.653,1.683-13.305,2.4-20.042.882-8.758,1.522-17.516,2.4-26.274,1.122-10.695-2.885-20.211-5.609-29.979q-7.933-28.927-16.026-57.854-8.774-31.832-17.628-63.5c-4.968-17.6-9.776-35.285-15.3-52.717-6.49-20.295-13.622-40.422-20.513-60.548-1.522-4.632-3.446-9.179-4.968-13.811-1.362-3.958.962-8.084,5.208-9.684,23.718-9.011,47.436-17.937,71.155-26.948,8.013-3.032,16.026-6.147,23.959-9.263,3.606-1.432,5.208-3.789,5.609-8.337.721-9.263,2.644-18.442,4.006-27.706.881-6.232,1.683-12.463,2.8-18.863m694.879,248.172c-2.724-9.348-5.288-18.779-8.253-28.042q-15.866-49.264-31.811-98.612-12.5-39.158-24.84-78.4c-5.449-17.432-10.817-34.864-15.946-52.464-3.766-12.8-7.131-25.769-10.5-38.822-2.244-8.926-3.926-18.19-6.491-27.032-4.487-15.411-9.455-30.653-14.423-45.9-1.362-4.126-2.484-9.095-7.532-10.021-3.365-.505-7.131-.842-10.336.084-8.894,2.358-17.628,5.305-26.443,8.168-21.394,6.99-42.789,14.148-64.183,21.137-23.4,7.663-46.876,15.326-70.353,22.737-23.8,7.411-47.677,14.569-71.475,21.895-18.51,5.642-36.94,11.2-55.449,17.011-14.664,4.632-29.407,9.348-43.991,14.316q-29.207,9.726-58.254,19.958c-41.427,14.484-82.773,29.222-124.12,43.874q-27.164,9.726-54.327,19.79c-21.475,8.084-42.869,16.505-64.344,24.674-11.7,4.463-23.4,9.179-35.257,13.305-3.446,1.179-3.365,2.695-2.4,5.558,4.487,13.053,8.974,26.106,13.3,39.243,3.846,11.705,7.532,23.411,11.058,35.2q10.216,34.485,20.112,69.138c5.128,18.106,10.016,36.38,15.064,54.485q8.053,28.8,16.106,57.432c5.609,20.127,11.058,40.338,16.747,60.464,6.33,22.485,12.821,44.969,19.231,67.454,6.17,21.9,12.26,43.79,18.43,65.685,4.808,16.842,9.535,33.685,14.423,50.527,5.529,19.032,11.378,38.064,16.747,57.1,4.487,15.748,8.654,31.664,12.9,47.5,3.205,11.959,6.571,23.832,9.535,35.79,3.686,14.569,7.051,29.306,10.5,43.874,2.644,11.2,5.128,22.484,8.173,33.516.721,2.695,2.885,4.969,4.728,7.074,2.084,2.358,4.888,3.958,6.57,6.4a8.076,8.076,0,0,1,.962,6.316,3.506,3.506,0,0,1-5.609,1.263c-.481-.337-2-1.01-1.362,1.516,1.523,5.642,2.244,11.621,3.446,17.432,2.324,11.031,4.728,22.064,7.131,33.1,2.644,12.463,5.449,24.927,8.013,37.39,2,10.1,3.686,20.295,5.609,30.4,1.6,8.253,3.125,16.59,4.808,24.842,1.843,9.011,4.739,16.4,6.823,25.413,1.2,5.221,3.323,5.786,8.05,4.354,4.647-1.347,8.073-1.819,12.8-3.167,23-6.737,45.884-12.2,68.882-18.937,22.757-6.737,45.513-13.221,68.11-20.379,16.827-5.305,33.414-11.537,50-17.516,27.565-10.021,54.969-20.548,82.613-30.232,26.2-9.179,52.565-17.769,79.007-26.19,19.391-6.232,38.943-11.79,58.334-17.685,18.269-5.558,36.458-11.116,54.648-16.927,19.071-6.148,38.061-12.464,57.132-18.779,18.43-6.063,36.779-12.295,55.209-18.442l59.857-19.958q24.279-8.084,48.558-16c2-.674,3.606-1.347,2.8-4.126-3.125-11.705-6.17-23.411-9.375-35.116-5.529-20.379-11.218-40.843-16.747-61.306-6.731-25.011-13.3-50.022-20.032-75.033-5.609-20.632-11.378-41.1-16.827-61.727-7.052-27.116-13.782-54.317-20.914-81.433-5.929-22.569-12.1-44.969-18.429-67.37-6.01-21.474-12.34-42.864-18.67-64.254q-8.053-27.664-16.507-55.159c-3.686-11.874-7.452-23.663-11.218-36.38m-603.372,581.9c1.282.758,2.484,1.684,3.846,2.358,2.885,1.348,5.849,2.695,8.814,3.958.4.168,1.042-.084,1.522-.169-.32-.505-.481-1.179-.961-1.432-5.689-3.79-11.378-7.579-17.148-11.284-.561-.421-1.6-.168-2.4-.253.321.927.4,2.189.962,2.779,1.522,1.347,3.285,2.442,5.369,4.042" transform="translate(-64.885 -74.02)"/>
      <path id="패스_53" data-name="패스 53" d="M147.2,916.541c-4.8,3.032-9.179,6.316-13.979,8.674-3.368,1.6-7.242,2.189-11.032,2.695-1.179.168-3.453-1.011-3.79-2.106a5.718,5.718,0,0,1,.842-4.8,65.539,65.539,0,0,1,9.095-8.337c6.4-4.716,12.969-9.264,19.621-13.642a13.913,13.913,0,0,1,6.653-1.937c1.6-.168,4.379.589,4.716,1.6.674,1.684.59,4.632-.589,5.979-3.453,4.126-7.495,7.747-11.537,11.874m-18.779,2.7c1.263.168,2.863.926,3.621.421,5.558-3.537,11.032-7.242,16.253-11.2,1.516-1.095,2.358-3.031,3.453-4.631-2.105.842-4.463,1.348-6.232,2.611-5.642,3.958-11.116,8.253-17.095,12.8" transform="translate(-27.368 -207.973)"/>
      <path id="패스_54" data-name="패스 54" d="M1800.055,1195.442c2.611-3.452,4.716-6.99,7.495-9.769,1.6-1.6,4.463-2.357,6.821-2.442,1.179-.084,3.032,1.937,3.453,3.285a8.241,8.241,0,0,1-.757,5.053c-4.3,9.768-7.58,20.21-16.169,27.368a25.933,25.933,0,0,1-6.4,3.874c-2.947,1.179-6.484-1.095-5.81-4.127a60.663,60.663,0,0,1,4.716-12.295c1.853-3.705,4.295-7.158,6.653-10.948m9.516.59a16.868,16.868,0,0,0,.843-1.768c.168-1.011.083-2.106.168-3.116-.927.5-2.106.758-2.611,1.6-1.347,1.852-2.443,3.958-3.621,5.979-2.779,4.8-5.642,9.516-8.337,14.316-.421.758-.169,1.852-.337,2.779a22.574,22.574,0,0,0,2.864-1.263,3.513,3.513,0,0,0,.926-1.263c3.369-5.473,6.737-10.947,10.105-17.263" transform="translate(-414.183 -274.239)"/>
      <path id="패스_55" data-name="패스 55" d="M1702.8,327.671c9.852,6.4,14.737,15.158,14.821,26.611a4.931,4.931,0,0,1-2.274,3.874c-1.179.505-3.537.253-4.379-.674a30.047,30.047,0,0,1-5.979-7.495c-3.284-5.979-6.821-11.705-7.58-18.695-.421-4.632,1.6-5.053,5.39-3.621m7.326,17.432c-1.095-2.19-2.1-4.379-3.284-6.569-.168-.337-.926-.421-1.348-.589-.168.421-.5.842-.42,1.095l4.294,7.832a2.32,2.32,0,0,0,.758-1.768" transform="translate(-393.051 -75.951)"/>
      <path id="패스_56" data-name="패스 56" d="M102.691,953.739c.926,3.621-1.011,6.4-5.221,6.653-8,.421-15.832-.505-22.4-5.474-1.516-1.095-2.021-3.621-2.526-5.558-.168-.589,1.179-2.19,1.937-2.274,6.99-1.011,14.063-2.021,20.8.842,2.695,1.179,4.968,3.537,7.411,5.811m-12.211-1.684c-2.105.084-4.126.253-6.232.337,1.684.758,3.453,1.432,5.137,2.19a.508.508,0,0,0,.337.084c1.768-.084,3.453-.168,5.137-.252a20.464,20.464,0,0,0-4.379-2.358" transform="translate(-16.795 -219.317)"/>
      <path id="패스_57" data-name="패스 57" d="M1733.1,408.932c3.031,1.853,4.885,4.211,3.621,7.579-1.095,2.611-5.558,3.2-9.684,1.516-5.811-2.442-11.116-5.642-14.485-11.2-.674-1.095-1.01-3.453-.42-4.042a5.27,5.27,0,0,1,4.379-1.179c5.558,2.189,10.863,4.716,16.589,7.326" transform="translate(-396.402 -93.211)"/>
      <path id="패스_58" data-name="패스 58" d="M1918.583,794.959a1.518,1.518,0,0,1-.337.758,1.518,1.518,0,0,1,.337-.758" transform="translate(-444.203 -184.328)"/>
      <path id="패스_59" data-name="패스 59" d="M90.664,834.578c.421,1.6.674,3.032.926,4.463-1.684-.084-3.453.253-5.053-.252-6.653-2.021-13.221-4.548-20.042-6.316-12.379-3.284-24.927-6.063-37.39-9.095a86.963,86.963,0,0,1-10.274-3.537,2.964,2.964,0,0,1-1.095-2.695,2.949,2.949,0,0,1,2.611-1.264c6.569,1.011,13.221,1.769,19.621,3.369C54.2,822.873,68.348,827,82.58,831.041a54.956,54.956,0,0,1,8.084,3.537" transform="translate(-4.095 -189.168)"/>
    </g>
  </g>
</svg>
