<svg id="celebration_black_24dp" xmlns="http://www.w3.org/2000/svg" width="24" height="24" viewBox="0 0 24 24">
  <g id="그룹_64" data-name="그룹 64">
    <rect id="사각형_62" data-name="사각형 62" width="24" height="24" fill="none"/>
  </g>
  <g id="그룹_67" data-name="그룹 67">
    <g id="그룹_66" data-name="그룹 66">
      <g id="그룹_65" data-name="그룹 65">
        <path id="패스_54" data-name="패스 54" d="M2,22l14-5L7,8Zm10.35-5.82L5.3,18.7l2.52-7.05Z" fill="#283639"/>
        <path id="패스_55" data-name="패스 55" d="M14.53,12.53l5.59-5.59a1.249,1.249,0,0,1,1.77,0l.59.59,1.06-1.06-.59-.59a2.758,2.758,0,0,0-3.89,0l-5.59,5.59Z" fill="#283639"/>
        <path id="패스_56" data-name="패스 56" d="M10.06,6.88l-.59.59,1.06,1.06.59-.59a2.758,2.758,0,0,0,0-3.89l-.59-.59L9.47,4.53l.59.59A1.256,1.256,0,0,1,10.06,6.88Z" fill="#283639"/>
        <path id="패스_57" data-name="패스 57" d="M17.06,11.88l-1.59,1.59,1.06,1.06,1.59-1.59a1.249,1.249,0,0,1,1.77,0l1.61,1.61,1.06-1.06-1.61-1.61A2.758,2.758,0,0,0,17.06,11.88Z" fill="#283639"/>
        <path id="패스_58" data-name="패스 58" d="M15.06,5.88,11.47,9.47l1.06,1.06,3.59-3.59a2.758,2.758,0,0,0,0-3.89L14.53,1.46,13.47,2.52l1.59,1.59A1.268,1.268,0,0,1,15.06,5.88Z" fill="#283639"/>
      </g>
    </g>
  </g>
</svg>
