<svg xmlns="http://www.w3.org/2000/svg" width="16.313" height="15.425" viewBox="0 0 16.313 15.425">
  <g id="구성_요소_10_2" data-name="구성 요소 10 – 2" transform="translate(0 0)">
    <path id="패스_37" data-name="패스 37" d="M-897.908,3506.018l-2.832-1.388s-2.443.267-2.613.694-1.42,1.441-1.42,1.815a23.678,23.678,0,0,1-.607,2.462s1.686,3.464,2.027,3.571,2.9,1.922,3.352,2.242a6.915,6.915,0,0,1,1.136,1.815s2.1-.854,2.613-1.121,2.356-2.34,3.038-2.714,1.909-3.12,2.137-3.227.305-2.093.305-2.093l-1.958-2.75a13.154,13.154,0,0,0-2.556-.694c-.284.107-1.931.907-2.1.961A2.189,2.189,0,0,0-897.908,3506.018Z" transform="translate(906.43 -3503.718)" fill="#fff"/>
    <path id="패스_21" data-name="패스 21" d="M80.684-415.854a5.27,5.27,0,0,0-3.232,1.842,5.13,5.13,0,0,0-.649,5.392c.377.793.458.884,4.162,4.613l3.509,3.533,3.509-3.533c2.642-2.657,3.568-3.619,3.749-3.888a5.12,5.12,0,0,0-.586-6.5,4.951,4.951,0,0,0-4.312-1.44,5.336,5.336,0,0,0-2.124.82l-.241.16-.218-.155a5.976,5.976,0,0,0-1.525-.7A5.252,5.252,0,0,0,80.684-415.854Zm1.634,1.522a3.973,3.973,0,0,1,1.757,1.062l.4.383.4-.383a3.616,3.616,0,0,1,2.46-1.162,3.626,3.626,0,0,1,3.654,2.461,3.619,3.619,0,0,1,0,2.338c-.25.752-.241.743-3.486,4.029-1.648,1.668-3.009,3.031-3.028,3.031s-1.384-1.377-3.046-3.054c-2.2-2.229-3.055-3.127-3.168-3.318a3.971,3.971,0,0,1-.468-1.427,3.676,3.676,0,0,1,2.914-4.011A4.912,4.912,0,0,1,82.318-414.332Z" transform="translate(-76.318 415.9)"/>
  </g>
</svg>
