<svg id="inventory_2_black_24dp" xmlns="http://www.w3.org/2000/svg" width="24" height="24" viewBox="0 0 24 24">
  <g id="그룹_61" data-name="그룹 61">
    <rect id="사각형_59" data-name="사각형 59" width="24" height="24" fill="none"/>
  </g>
  <g id="그룹_63" data-name="그룹 63">
    <g id="그룹_62" data-name="그룹 62">
      <path id="패스_42" data-name="패스 42" d="M20,2H4A2.074,2.074,0,0,0,2,4V7.01A2.02,2.02,0,0,0,3,8.7V20a2.149,2.149,0,0,0,2,2H19a2.149,2.149,0,0,0,2-2V8.7a2.02,2.02,0,0,0,1-1.69V4A2.074,2.074,0,0,0,20,2ZM19,20H5V9H19ZM20,7H4V4H20Z" fill="#283639"/>
      <rect id="사각형_60" data-name="사각형 60" width="6" height="2" transform="translate(9 12)" fill="#283639"/>
    </g>
  </g>
</svg>
