<?xml version="1.0" standalone="no"?>
<!DOCTYPE svg PUBLIC "-//W3C//DTD SVG 20010904//EN"
 "http://www.w3.org/TR/2001/REC-SVG-20010904/DTD/svg10.dtd">
<svg version="1.0" xmlns="http://www.w3.org/2000/svg"
 width="512.000000pt" height="512.000000pt" viewBox="0 0 512.000000 512.000000"
 preserveAspectRatio="xMidYMid meet">

<g transform="translate(0.000000,512.000000) scale(0.100000,-0.100000)"
fill="#000000" stroke="none">
<path d="M1662 5063 c-202 -213 -309 -614 -258 -962 31 -210 111 -408 222
-552 l54 -69 0 -302 c0 -166 -3 -298 -7 -294 -4 4 -8 62 -9 129 -3 198 -63
382 -181 560 -130 196 -350 363 -545 414 -63 16 -66 16 -99 -3 -19 -11 -40
-31 -46 -45 -18 -35 -16 -224 3 -317 73 -357 347 -678 672 -786 67 -22 67 -23
140 -125 l72 -104 0 -380 c0 -292 -3 -378 -12 -369 -8 8 -11 46 -9 116 11 492
-335 990 -797 1145 -88 30 -137 28 -172 -7 -24 -25 -29 -39 -35 -108 -29 -304
122 -677 374 -924 129 -126 302 -231 451 -274 50 -15 59 -22 92 -74 l37 -57
-327 -5 c-296 -5 -331 -7 -356 -23 -49 -32 -58 -72 -54 -238 3 -131 5 -151 24
-176 16 -22 59 -45 111 -58 2 -1 83 -624 83 -638 0 -4 -32 -7 -71 -7 -65 0
-73 -2 -100 -29 -26 -27 -29 -36 -29 -94 0 -73 26 -170 59 -215 11 -17 21 -33
21 -36 0 -3 -65 -6 -145 -6 -142 0 -147 -1 -170 -25 -32 -31 -32 -69 0 -100
l24 -25 1876 0 1876 0 24 25 c14 13 25 36 25 50 0 14 -11 37 -25 50 -23 24
-31 25 -133 25 l-108 0 17 137 c10 76 18 153 19 171 0 43 -30 72 -74 72 -58 0
-70 -27 -90 -197 -10 -81 -20 -156 -22 -165 -5 -17 -34 -18 -430 -18 -332 0
-424 3 -424 13 0 6 -29 239 -64 517 -36 277 -62 508 -60 512 3 4 252 8 555 8
516 0 549 -1 549 -17 0 -10 -10 -100 -22 -201 -20 -165 -21 -186 -7 -210 11
-21 23 -28 55 -30 68 -5 73 8 104 248 15 115 28 211 31 212 2 2 17 10 34 18
16 9 40 31 52 49 21 31 23 45 23 165 0 212 -23 236 -226 236 l-122 0 24 93
c55 212 103 496 124 722 22 238 7 612 -26 677 -15 29 -60 58 -91 58 -55 0
-124 -91 -214 -285 -18 -38 -34 -65 -35 -59 -2 5 -10 67 -19 139 -29 230 -97
522 -145 616 -33 63 -109 79 -159 32 -22 -21 -39 -56 -65 -140 -39 -123 -89
-357 -106 -498 -21 -179 -14 -174 -79 -49 -108 206 -131 234 -196 234 -42 0
-75 -20 -94 -57 -6 -12 -16 -92 -23 -178 -18 -240 9 -577 73 -895 20 -103 83
-362 95 -393 5 -14 -13 -16 -141 -19 l-147 -3 -34 -37 -34 -38 0 -147 c0 -170
11 -201 74 -224 20 -7 36 -18 36 -24 0 -5 29 -241 65 -524 36 -283 65 -516 65
-518 0 -1 -119 -3 -264 -3 l-264 0 34 67 c36 71 56 170 47 231 -3 19 -17 42
-35 57 -25 21 -40 25 -100 25 l-70 0 6 27 c3 16 22 161 42 323 20 162 37 295
37 295 44 7 96 36 114 64 21 32 23 44 23 185 0 132 -3 155 -20 183 -37 62 -45
63 -400 63 l-321 0 43 61 c41 58 47 63 114 84 421 132 773 593 801 1050 8 143
-2 211 -37 247 -36 36 -81 37 -180 3 -321 -109 -612 -413 -729 -763 -40 -119
-54 -204 -56 -345 -1 -75 -5 -140 -8 -144 -4 -3 -7 165 -7 374 l0 380 68 98
c66 97 68 98 132 120 314 106 577 398 666 740 36 138 40 329 8 372 -34 45 -69
58 -127 44 -65 -15 -199 -78 -278 -131 -139 -93 -296 -283 -370 -445 -57 -127
-81 -228 -89 -385 -6 -126 -7 -106 -8 155 l-1 300 49 65 c104 136 185 328 217
518 15 91 15 95 -4 120 -14 19 -31 28 -56 30 -49 4 -73 -22 -82 -89 -11 -90
-53 -235 -89 -312 l-34 -72 -1 328 -1 328 -25 24 c-31 32 -74 33 -103 2 -22
-23 -22 -28 -22 -352 0 -222 -3 -326 -10 -319 -6 6 -26 49 -45 97 -95 231
-109 509 -40 754 29 100 100 252 143 302 l29 35 32 -48 c66 -95 117 -223 161
-403 6 -25 19 -47 31 -53 33 -18 80 -8 102 22 l20 27 -23 97 c-42 182 -133
369 -233 479 -34 38 -50 48 -85 52 -43 6 -45 5 -100 -54z m-622 -1280 c138
-75 267 -202 355 -351 43 -73 109 -251 103 -279 -2 -8 -34 31 -73 88 -101 149
-111 159 -151 159 -42 0 -74 -30 -74 -68 0 -19 30 -71 92 -163 100 -145 98
-148 -31 -45 -127 102 -252 291 -301 456 -20 66 -40 216 -32 239 5 16 33 7
112 -36z m1540 28 c0 -57 -25 -187 -51 -266 -62 -187 -194 -361 -357 -474 -18
-13 -35 -21 -37 -19 -2 2 34 59 81 126 90 131 101 165 64 202 -12 12 -33 20
-54 20 -39 0 -49 -11 -156 -168 -34 -51 -65 -91 -67 -88 -11 10 33 140 77 231
89 182 240 339 405 420 81 40 95 42 95 16z m1110 -589 c51 -255 64 -411 64
-762 0 -322 -11 -473 -51 -697 l-16 -93 -48 0 c-55 0 -51 -6 -73 125 -33 195
-47 391 -48 650 0 354 27 622 89 880 26 110 26 110 40 77 7 -17 26 -98 43
-180z m-2783 -283 c259 -116 496 -408 573 -707 38 -145 26 -141 -94 34 -60 88
-116 165 -124 172 -28 22 -78 15 -101 -14 -12 -15 -21 -35 -21 -45 0 -17 55
-103 188 -292 l55 -79 -39 20 c-59 30 -152 102 -218 168 -193 194 -305 433
-323 693 l-6 93 24 -7 c13 -4 52 -20 86 -36z m1793 -23 c0 -308 -204 -668
-482 -850 -45 -30 -85 -53 -87 -51 -2 2 49 80 113 172 70 102 116 178 116 192
0 36 -37 71 -75 71 -41 0 -52 -12 -181 -201 l-106 -154 6 55 c10 76 59 218
109 314 110 213 307 403 505 487 37 16 70 29 75 29 4 0 7 -29 7 -64z m1410
-411 c-19 -232 -70 -523 -127 -737 l-26 -98 -59 0 c-32 0 -58 3 -58 7 0 3 7
43 15 87 25 140 45 345 51 531 5 141 10 194 26 245 29 93 101 266 145 352 l38
73 3 -165 c2 -91 -2 -223 -8 -295z m-879 318 c23 -48 60 -138 84 -199 l43
-110 11 -230 c11 -228 29 -406 54 -543 l14 -71 -49 0 c-58 0 -50 -14 -106 205
-48 189 -86 391 -107 568 -18 157 -31 444 -21 482 7 28 7 28 22 7 8 -12 33
-61 55 -109z m-751 -1398 l0 -95 -144 0 c-144 0 -145 0 -165 -26 -26 -33 -27
-65 -2 -95 16 -20 30 -24 95 -27 42 -2 76 -7 76 -11 0 -5 -18 -149 -40 -322
-22 -173 -40 -315 -40 -316 0 -2 -229 -3 -510 -3 -401 0 -510 3 -510 13 0 6
-18 151 -40 322 -22 170 -40 311 -40 312 0 1 167 4 371 5 l371 3 19 24 c25 30
24 62 -2 95 l-20 26 -440 0 -439 0 0 95 0 95 730 0 730 0 0 -95z m1830 15 l0
-80 -670 0 -670 0 0 80 0 80 670 0 670 0 0 -80z m-1850 -1082 c-1 -67 -99
-176 -178 -198 -23 -6 -222 -10 -533 -10 -538 0 -543 0 -616 56 -38 28 -80 96
-89 142 l-6 32 711 0 711 0 0 -22z"/>
</g>
</svg>
