<?xml version="1.0" standalone="no"?>
<!DOCTYPE svg PUBLIC "-//W3C//DTD SVG 20010904//EN"
 "http://www.w3.org/TR/2001/REC-SVG-20010904/DTD/svg10.dtd">
<svg version="1.0" xmlns="http://www.w3.org/2000/svg"
 width="512.000000pt" height="512.000000pt" viewBox="0 0 512.000000 512.000000"
 preserveAspectRatio="xMidYMid meet">

<g transform="translate(0.000000,512.000000) scale(0.100000,-0.100000)"
fill="#000000" stroke="none">
<path d="M253 4245 c-102 -31 -176 -96 -222 -195 -22 -46 -26 -69 -26 -140 0
-71 4 -94 26 -141 49 -103 132 -172 242 -199 37 -10 47 -17 47 -34 0 -11 -27
-557 -61 -1212 -69 -1344 -70 -1250 10 -1352 58 -73 132 -107 231 -107 90 0
149 24 207 82 81 81 73 37 209 1143 68 553 126 1020 129 1038 l6 32 1509 0
1509 0 6 -32 c3 -18 61 -486 129 -1041 137 -1106 128 -1059 209 -1140 58 -58
117 -82 207 -82 99 0 173 34 231 107 80 101 79 8 10 1352 -34 655 -61 1201
-61 1212 0 17 10 24 47 34 110 27 193 96 242 199 22 47 26 70 26 141 0 76 -4
93 -33 152 -38 77 -92 130 -171 167 l-56 26 -1610 3 c-1200 2 -1617 -1 -1638
-9 -30 -13 -57 -55 -57 -89 0 -33 26 -75 55 -88 20 -9 403 -12 1611 -12 1569
0 1585 0 1624 -20 45 -23 80 -80 80 -130 0 -50 -35 -107 -80 -130 -39 -20 -54
-20 -2281 -20 l-2241 0 -40 22 c-45 25 -78 80 -78 128 0 48 33 103 78 128 38
21 50 22 266 22 177 0 233 3 255 14 66 35 66 137 0 172 -38 19 -483 19 -546
-1z m640 -712 c-23 -173 -293 -2378 -293 -2389 0 -30 -65 -84 -100 -84 -39 0
-100 56 -100 91 0 13 27 545 60 1182 33 637 60 1173 60 1192 l0 35 188 0 189
0 -4 -27z m3127 25 c1 -2 7 -47 14 -100 l12 -98 -1486 0 -1486 0 12 98 c7 53
13 98 14 100 0 1 657 2 1460 2 803 0 1460 -1 1460 -2z m580 -35 c0 -21 27
-558 60 -1193 33 -635 60 -1166 60 -1179 0 -35 -61 -91 -100 -91 -35 0 -100
54 -100 84 0 11 -270 2216 -293 2389 l-4 27 189 0 188 0 0 -37z"/>
<path d="M1151 4246 c-87 -48 -50 -186 49 -186 51 0 100 49 100 99 0 75 -83
124 -149 87z"/>
</g>
</svg>
